<svg width="36.149414" height="49.410156" viewBox="0 0 36.1494 49.4102" fill="none" xmlns="http://www.w3.org/2000/svg" xmlns:xlink="http://www.w3.org/1999/xlink">
	<desc>
			Created with Pixso.
	</desc>
	<defs>
		<linearGradient x1="-0.450195" y1="25.647461" x2="37.549805" y2="25.647461" id="paint_linear_22_584_0" gradientUnits="userSpaceOnUse">
			<stop stop-color="#DA4533"/>
			<stop offset="1.000000" stop-color="#DA4533" stop-opacity="0.000000"/>
		</linearGradient>
	</defs>
	<path id="1" d="M34.64 47.91L1.49 47.91L1.49 40.37L18.13 25.09C21.19 22.3 23.59 19.7 23.59 16.77C23.59 14.5 22.1 11.64 17.81 11.64C14.36 11.64 12.22 13.52 10.27 16.9L1.49 11.77C4.87 4.87 10.98 1.49 17.94 1.49C27.56 1.49 33.99 7.86 33.99 16.12C33.99 22.04 30.68 26.39 25.22 31.4L18.13 37.9L34.64 37.9L34.64 47.91Z" fill="#000000" fill-opacity="1.000000" fill-rule="evenodd"/>
	<path id="1" d="M1.49 47.91L34.64 47.91L34.64 37.9L18.13 37.9L25.22 31.4C30.68 26.39 33.99 22.04 33.99 16.12C33.99 7.86 27.56 1.49 17.94 1.49C10.98 1.49 4.87 4.87 1.49 11.77L10.27 16.9C12.22 13.52 14.36 11.64 17.81 11.64C22.1 11.64 23.59 14.5 23.59 16.77C23.59 19.7 21.19 22.3 18.13 25.09L1.49 40.37L1.49 47.91Z" stroke="url(#paint_linear_22_584_0)" stroke-opacity="1.000000" stroke-width="1.500000"/>
</svg>
