<svg width="27.074219" height="35.130859" viewBox="0 0 27.0742 35.1309" fill="none" xmlns="http://www.w3.org/2000/svg" xmlns:xlink="http://www.w3.org/1999/xlink">
	<desc>
			Created with Pixso.
	</desc>
	<defs>
		<linearGradient x1="0.599609" y1="17.587889" x2="32.395660" y2="17.587889" id="paint_linear_25_1919_0" gradientUnits="userSpaceOnUse">
			<stop stop-color="#FFFFFF"/>
			<stop offset="1.000000" stop-color="#FFFFFF" stop-opacity="0.000000"/>
		</linearGradient>
	</defs>
	<path id="1" d="M24.08 7.35L18.55 13.78C22.64 15.13 25.57 18.19 25.57 22.87C25.57 29.8 20.39 33.63 13.87 33.63C7.97 33.63 3.65 31.29 1.49 26.2L7.7 22.6C8.65 25.12 10.45 26.61 13.42 26.61C16.84 26.61 18.37 25.03 18.37 22.87C18.37 20.71 16.84 19.14 13.42 19.14L12.02 19.14L9.19 14.95L14.99 8.25L2.48 8.25L2.48 1.5L24.08 1.5L24.08 7.35Z" fill="#000000" fill-opacity="1.000000" fill-rule="evenodd"/>
	<path id="1" d="M18.55 13.78L24.08 7.35L24.08 1.5L2.48 1.5L2.48 8.25L14.99 8.25L9.19 14.95L12.02 19.14L13.42 19.14C16.84 19.14 18.37 20.71 18.37 22.87C18.37 25.03 16.84 26.61 13.42 26.61C10.45 26.61 8.65 25.12 7.7 22.6L1.49 26.2C3.65 31.29 7.97 33.63 13.87 33.63C20.39 33.63 25.57 29.8 25.57 22.87C25.57 18.19 22.64 15.13 18.55 13.78Z" stroke="url(#paint_linear_25_1919_0)" stroke-opacity="0.500000" stroke-width="1.500000"/>
</svg>
