<svg width="37.775391" height="49.410156" viewBox="0 0 37.7754 49.4102" fill="none" xmlns="http://www.w3.org/2000/svg" xmlns:xlink="http://www.w3.org/1999/xlink">
	<desc>
			Created with Pixso.
	</desc>
	<defs>
		<linearGradient x1="0.200195" y1="24.737305" x2="38.200195" y2="24.737305" id="paint_linear_22_588_0" gradientUnits="userSpaceOnUse">
			<stop stop-color="#DA4533"/>
			<stop offset="1.000000" stop-color="#DA4533" stop-opacity="0.000000"/>
		</linearGradient>
	</defs>
	<path id="1" d="M34.13 9.94L26.13 19.24C32.05 21.19 36.27 25.61 36.27 32.37C36.27 42.38 28.8 47.9 19.37 47.9C10.86 47.9 4.62 44.52 1.5 37.18L10.47 31.98C11.83 35.62 14.43 37.76 18.72 37.76C23.66 37.76 25.87 35.49 25.87 32.37C25.87 29.25 23.66 26.97 18.72 26.97L16.71 26.97L12.61 20.93L21 11.24L2.93 11.24L2.93 1.49L34.13 1.49L34.13 9.94Z" fill="#000000" fill-opacity="1.000000" fill-rule="evenodd"/>
	<path id="1" d="M26.13 19.24L34.13 9.94L34.13 1.49L2.93 1.49L2.93 11.24L21 11.24L12.61 20.93L16.71 26.97L18.72 26.97C23.66 26.97 25.87 29.25 25.87 32.37C25.87 35.49 23.66 37.76 18.72 37.76C14.43 37.76 11.83 35.62 10.47 31.98L1.5 37.18C4.62 44.52 10.86 47.9 19.37 47.9C28.8 47.9 36.27 42.38 36.27 32.37C36.27 25.61 32.05 21.19 26.13 19.24Z" stroke="url(#paint_linear_22_588_0)" stroke-opacity="1.000000" stroke-width="1.500000"/>
</svg>
