<svg width="28.200195" height="34.500000" viewBox="0 0 28.2002 34.5" fill="none" xmlns="http://www.w3.org/2000/svg" xmlns:xlink="http://www.w3.org/1999/xlink">
	<desc>
			Created with Pixso.
	</desc>
	<defs>
		<linearGradient x1="1.275391" y1="17.587889" x2="33.071442" y2="17.587889" id="paint_linear_25_1922_0" gradientUnits="userSpaceOnUse">
			<stop stop-color="#FFFFFF"/>
			<stop offset="1.000000" stop-color="#FFFFFF" stop-opacity="0.000000"/>
		</linearGradient>
	</defs>
	<path id="1" d="M23.55 21.3L26.7 21.3L26.7 27.96L23.55 27.96L23.55 33L16.26 33L16.26 27.96L1.5 27.96L1.5 21.3L11.53 1.5L19.27 1.5L9.24 21.3L16.26 21.3L16.26 14.55L23.55 14.55L23.55 21.3Z" fill="#000000" fill-opacity="1.000000" fill-rule="evenodd"/>
	<path id="1" d="M26.7 21.3L23.55 21.3L23.55 14.55L16.26 14.55L16.26 21.3L9.24 21.3L19.27 1.5L11.53 1.5L1.5 21.3L1.5 27.96L16.26 27.96L16.26 33L23.55 33L23.55 27.96L26.7 27.96L26.7 21.3Z" stroke="url(#paint_linear_25_1922_0)" stroke-opacity="0.500000" stroke-width="1.500000"/>
</svg>
