<svg width="101.000000" height="101.000000" viewBox="0 0 101 101" fill="none" xmlns="http://www.w3.org/2000/svg" xmlns:xlink="http://www.w3.org/1999/xlink">
	<desc>
			Created with Pixso.
	</desc>
	<defs/>
	<path id="Vector" d="M50.39 100.64C50.48 100.69 50.57 100.71 50.67 100.71C50.69 100.71 50.71 100.71 50.72 100.71C50.87 100.7 51.01 100.62 51.1 100.49L84.83 49.11C84.97 48.98 85.02 48.78 84.97 48.6C84.96 48.54 84.93 48.47 84.89 48.42L51.09 1.33C51 1.21 50.87 1.14 50.73 1.12C50.54 1.09 50.34 1.18 50.23 1.35L15.78 55.7C15.72 55.8 15.7 55.92 15.71 56.03C15.72 56.18 15.79 56.31 15.9 56.4L50.23 100.46C50.27 100.53 50.32 100.59 50.39 100.64ZM41.22 58.61L17.29 55.61L37.73 42.81L41.22 58.61ZM41.78 58.68L38.25 42.72L59.66 45.62L63.06 61.34L41.78 58.68ZM42.01 59.73L63.01 62.36L50.63 98.75L42.01 59.73ZM41.46 59.66L17.4 56.65L50.05 98.58L41.46 59.66ZM59.54 45.09L38.25 42.2L50.48 3.15L59.54 45.09ZM60.73 45.77L64.04 61.11L83.36 48.84L60.73 45.77ZM83.57 48.34L60.61 45.23L51.69 3.93L83.57 48.34ZM37.69 42.24L17.55 54.84L49.57 4.33L37.69 42.24ZM64.11 62.28L52.44 96.59L82.73 50.45L64.11 62.28Z" fill="#8A8A8A" fill-opacity="1.000000" fill-rule="evenodd"/>
</svg>
