<svg width="101.000000" height="101.000000" viewBox="0 0 101 101" fill="none" xmlns="http://www.w3.org/2000/svg" xmlns:xlink="http://www.w3.org/1999/xlink">
	<desc>
			Created with Pixso.
	</desc>
	<defs/>
	<path id="Vector" d="M50.81 98.45L50.74 98.45C50.6 98.43 50.49 98.37 50.41 98.27L4.63 51.26C4.44 51.06 4.44 50.75 4.62 50.56C4.63 50.55 4.64 50.54 4.65 50.53L50.44 3.52C50.47 3.49 50.5 3.47 50.53 3.44C50.6 3.4 50.67 3.37 50.75 3.37C50.96 3.34 51.15 3.44 51.25 3.61L96.89 50.47C97.02 50.56 97.11 50.7 97.12 50.87C97.13 51.04 97.06 51.2 96.93 51.31L51.24 98.22C51.18 98.3 51.1 98.37 51.01 98.41C50.95 98.44 50.88 98.45 50.81 98.45ZM6.15 50.46L6.66 50.49L43.87 47.08L50.36 5.06L6.15 50.46ZM56.67 47.92L94.88 50.53L95.49 50.48L51.5 5.32L56.67 47.92ZM44.39 47.09L50.55 47.51L50.55 7.19L44.39 47.09ZM51.05 47.54L55.63 47.85L51.05 10.14L51.05 47.54ZM56.29 53.3L56.03 51.16L52.14 51.16L56.29 53.3ZM51.14 50.64L51.05 50.6L51.05 48.05L55.69 48.36L55.97 50.64L51.14 50.64ZM50.55 50.34L50.55 48.01L45.33 47.66L50.55 50.34ZM44.41 47.76L50.01 50.64L44.79 50.64L44.41 47.76ZM51.05 51.18L51.05 53.06L55.15 53.29L51.05 51.18ZM10.59 50.64L43.87 47.59L44.27 50.64L10.59 50.64ZM57 50.64L56.73 48.43L89.11 50.64L57 50.64ZM44.54 52.68L18.24 51.16L44.34 51.16L44.54 52.68ZM45.07 52.71L44.86 51.16L50.55 51.16L50.55 53.03L45.07 52.71ZM86.47 51.16L57.06 51.16L57.33 53.36L86.47 51.16ZM50.39 96.78L44.68 53.71L6.29 51.5L50.39 96.78ZM51.54 96.46L57.33 54.38L95.3 51.52L51.54 96.46ZM45.2 53.74L50.55 94.06L50.55 54.05L45.2 53.74ZM51.05 92.42L56.3 54.38L51.05 54.08L51.05 92.42Z" fill="#8A8A8A" fill-opacity="1.000000" fill-rule="evenodd"/>
</svg>
