<svg width="270.000000" height="99.000000" viewBox="0 0 270 99" fill="none" xmlns="http://www.w3.org/2000/svg" xmlns:xlink="http://www.w3.org/1999/xlink">
	<desc>
			Created with Pixso.
	</desc>
	<defs>
		<clipPath id="clip8_3666">
			<rect id="Property 1=mone" rx="0.000000" width="269.000000" height="98.000000" transform="translate(0.500000 0.500000)" fill="white" fill-opacity="0"/>
		</clipPath>
	</defs>
	<g opacity="0.600000">
		<g clip-path="url(#clip8_3666)">
			<path id="image 81 (Traced)" d="M204.73 11.74C204.56 11.8 202.3 14 199.7 16.62C195.8 20.55 194.97 21.49 194.97 21.95C194.97 22.38 195.28 22.83 196.24 23.77C196.94 24.46 197.72 25.08 197.99 25.16C198.4 25.29 199.05 24.71 203.35 20.37C207.2 16.47 208.23 15.32 208.23 14.9C208.23 14.52 207.85 14 206.81 12.98C205.38 11.58 205.28 11.52 204.73 11.74ZM205.34 31.65C205.28 31.71 204.6 31.81 203.81 31.87C201.6 32.06 200.67 32.21 199.14 32.64C195.2 33.76 192.9 35.1 190.07 37.92C186.44 41.54 184.95 44.62 184.08 50.28C183.71 52.67 183.71 54.44 184.1 57.03C184.75 61.43 186.01 64.5 188.39 67.46C191.94 71.88 196.39 74.38 201.98 75.12C205.71 75.61 214.73 75.52 215.27 74.99C215.34 74.91 215.43 74.03 215.47 73.03C215.53 71.62 215.47 71.09 215.22 70.71L214.91 70.22L209.36 70.12C203.61 70.01 201.71 69.88 201.38 69.56C201.28 69.46 200.99 69.37 200.75 69.37C199.49 69.37 195.86 67.38 194.08 65.71C193 64.7 191.4 62.41 190.85 61.1C190.37 59.97 189.68 57.35 189.68 56.67C189.68 56.11 189.71 56.1 190.85 56.09C191.49 56.09 196.96 56.03 203 55.96C212.76 55.85 214 55.8 214.23 55.51C214.56 55.09 214.46 51.5 214.11 51.15C213.94 50.97 210.74 50.91 201.83 50.9L189.78 50.89L189.82 50C189.88 48.79 190.61 46.43 191.36 45.08C193.07 41.96 195.31 39.97 198.63 38.59C201.93 37.23 204.08 36.91 209.83 36.91C212.67 36.91 214.67 36.82 214.91 36.69C215.26 36.51 215.3 36.25 215.3 34.37C215.3 32.71 215.23 32.2 214.99 32C214.76 31.81 213.4 31.71 210.06 31.64C207.52 31.59 205.39 31.6 205.34 31.65ZM119.34 32.19C116.75 32.72 114.94 33.33 113.15 34.25C105.61 38.14 101.07 45.76 101.21 54.28C101.33 61.97 105.16 68.55 111.91 72.7C113.48 73.67 116.05 74.74 117.61 75.08C118.28 75.22 119.15 75.42 119.54 75.52C120.71 75.82 125.39 75.73 127.03 75.39C132.53 74.24 137.04 71.36 140.44 66.82C141.51 65.4 143.05 62.45 143.53 60.9C143.67 60.45 143.86 59.9 143.95 59.67C144.28 58.84 144.39 57.75 144.48 54.38C144.56 51.35 144.52 50.69 144.14 49.07C142.47 41.9 137.91 36.39 131.33 33.58C127.65 32 122.89 31.45 119.34 32.19ZM62.11 32.36C60.4 33.07 59.79 34.2 59.37 37.42C59.24 38.43 59.05 39.85 58.95 40.58C58.85 41.31 58.67 42.69 58.55 43.64C58.42 44.6 58.24 45.93 58.14 46.6C58.04 47.28 57.86 48.66 57.74 49.67C57.61 50.68 57.43 52.06 57.33 52.73C57.22 53.4 57.04 54.74 56.92 55.69C56.8 56.65 56.61 58.09 56.5 58.91C56.4 59.72 56.21 61.1 56.1 61.97C55.88 63.59 55.43 66.81 55.08 69.17C54.97 69.9 54.85 70.91 54.8 71.41C54.75 71.92 54.64 72.86 54.56 73.5C54.36 75.18 54.5 75.29 56.83 75.29C57.87 75.29 58.93 75.21 59.19 75.11C59.78 74.89 60.02 74.03 60.47 70.6C60.65 69.19 60.84 67.77 60.89 67.43C61.03 66.45 61.97 59.63 62.21 57.84C62.33 56.94 62.51 55.6 62.61 54.87C63 52.12 63.61 47.35 63.83 45.48C64.2 42.25 64.52 40.25 64.59 40.68C64.62 40.91 64.74 41.41 64.85 41.81C66.8 48.9 67.88 52.71 68.83 55.8C69.21 57.04 69.52 58.2 69.52 58.39C69.52 58.58 69.61 58.79 69.73 58.86C69.84 58.93 69.93 59.2 69.93 59.47C69.93 59.74 70.02 60.17 70.12 60.43C70.23 60.69 70.51 61.59 70.75 62.43C70.99 63.27 71.26 64.19 71.35 64.47C71.44 64.75 71.71 65.67 71.97 66.51C73.02 70 74.22 73.5 74.54 73.98C75.1 74.86 75.83 75.09 77.98 75.09C81.22 75.09 81.58 74.66 83.14 68.86C83.23 68.52 83.63 67.15 84.04 65.8C84.44 64.45 84.96 62.71 85.19 61.92C85.7 60.14 86.59 57.19 86.82 56.51C86.92 56.23 87.73 53.38 88.62 50.18C89.52 46.98 90.34 44.08 90.44 43.75C90.55 43.41 90.75 42.63 90.89 42.01C91.25 40.42 91.43 40.35 91.57 41.73C91.64 42.39 91.79 43.64 91.89 44.51C92.41 48.69 92.51 49.48 92.71 51.05C92.83 51.97 93.01 53.33 93.12 54.06C93.62 57.44 94.17 61.36 94.55 64.17C94.78 65.85 95.01 67.41 95.06 67.64C95.18 68.21 95.47 70.1 95.63 71.31C95.9 73.33 96.22 74.68 96.47 74.89C96.62 75.02 97.64 75.08 99.03 75.05L101.34 74.99L101.41 74.27C101.45 73.88 101.38 72.87 101.25 72.03C100.96 70.05 100.71 68.25 100.44 66.21C100.03 63.05 99.79 61.29 99.5 59.47C99.34 58.46 98.79 54.55 98.29 50.79C97.78 47.03 97.28 43.31 97.17 42.52C97.06 41.73 96.87 40.43 96.76 39.61C96.09 34.59 95.94 34.06 94.94 33.06C93.98 32.1 92.63 31.83 90.37 32.14C89.64 32.24 89.21 32.45 88.63 33.01C87.98 33.63 87.76 34.1 87.12 36.19C85.9 40.18 85.75 40.67 85.56 41.04C85.46 41.23 85.38 41.51 85.38 41.65C85.38 41.79 85.1 42.83 84.76 43.95C84.41 45.07 84.04 46.36 83.92 46.81C83.56 48.16 83.38 48.79 82.97 50.08C82.48 51.64 80.87 57.03 80.5 58.35C80.39 58.74 80.13 59.66 79.91 60.39C79.7 61.12 79.33 62.5 79.08 63.45C78.84 64.41 78.55 65.4 78.45 65.66C78.35 65.91 78.26 66.33 78.26 66.57C78.26 66.82 78.18 67.15 78.08 67.31C77.88 67.63 77.93 67.79 75.91 60.69C75.17 58.11 74.49 55.72 74.4 55.38C73.92 53.72 73.76 53.1 73.66 52.63C73.6 52.35 73.48 51.93 73.39 51.71C73.14 51.11 72.87 50.25 72.41 48.65C72.18 47.86 71.7 46.25 71.35 45.07C70.99 43.89 70.53 42.38 70.33 41.7C68.49 35.56 67.82 33.72 67.2 33.1C66.12 32.01 63.76 31.67 62.11 32.36ZM149.62 32.61C148.23 33.03 147.58 33.66 147.1 35.05C146.82 35.84 146.78 38.39 146.78 55.1C146.78 65.63 146.84 74.38 146.91 74.56C147.01 74.83 147.43 74.89 149.44 74.89C151.61 74.89 151.87 74.85 152.06 74.49C152.2 74.22 152.23 68.55 152.15 56.88C152.04 40.11 152.04 39.68 152.41 40.29C153.28 41.76 154.31 43.39 155.88 45.8C156.8 47.2 157.56 48.39 157.56 48.44C157.56 48.48 158.2 49.49 158.98 50.67C159.77 51.86 160.4 52.92 160.4 53.02C160.4 53.12 160.48 53.24 160.57 53.27C160.67 53.31 161.24 54.12 161.84 55.08C162.44 56.03 163 56.91 163.09 57.02C163.17 57.13 165.58 60.76 168.44 65.08C171.31 69.41 173.99 73.25 174.4 73.63C175.62 74.75 176.17 74.95 177.71 74.84C179.97 74.67 181.1 73.7 181.55 71.5C181.72 70.71 181.76 65.01 181.72 51.6C181.66 35.17 181.61 32.78 181.35 32.61C180.89 32.32 176.8 32.36 176.51 32.66C176.32 32.84 176.26 36.99 176.26 50.07L176.26 67.23L175.35 65.8C173.42 62.77 169.72 57.09 166.56 52.3C164.74 49.54 163.25 47.2 163.25 47.1C163.25 47 163.17 46.91 163.06 46.91C162.96 46.91 162.81 46.73 162.74 46.5C162.67 46.28 162.49 45.97 162.33 45.81C162.18 45.66 161.89 45.25 161.68 44.91C161.35 44.34 157.77 38.93 157.41 38.44C157.32 38.32 156.8 37.54 156.25 36.7C154.72 34.36 153.78 33.32 152.78 32.84C151.86 32.41 150.58 32.31 149.62 32.61ZM126.18 37.5C127.06 37.71 128.05 37.99 128.38 38.12C134.01 40.33 137.91 45.17 138.85 51.1C140.04 58.56 136.38 65.7 129.72 68.94C129 69.29 128.25 69.58 128.05 69.58C127.86 69.58 127.64 69.66 127.58 69.76C127.52 69.86 127.13 70.01 126.71 70.09C125.68 70.3 120.25 70.3 119.25 70.1C118.06 69.86 115.48 68.72 114.23 67.88C112.34 66.61 110.12 64.31 109.25 62.74C107.45 59.45 106.94 57.75 106.78 54.6C106.55 49.84 108.31 45.33 111.72 41.9C115.57 38.02 121.24 36.29 126.18 37.5Z" fill="#FFFFFF" fill-opacity="1.000000" fill-rule="evenodd"/>
		</g>
	</g>
</svg>
