<svg width="270" height="99" viewBox="0 0 270 99" fill="none" xmlns="http://www.w3.org/2000/svg">
<g opacity="0.6">
<path fill-rule="evenodd" clip-rule="evenodd" d="M142.906 32.6134C139.705 33.0495 136.1 34.9365 133.65 37.4585C130.382 40.8227 128.71 45.1318 128.699 50.2193C128.692 53.4264 129.15 55.6438 130.336 58.136C132.029 61.6971 134.772 64.1305 138.81 65.6559C141.316 66.6023 145.979 66.8449 148.759 66.1736C153.588 65.0076 157.5 61.435 159.318 56.5293L159.85 55.0951H155.138H150.426L149.747 55.8508C147.918 57.8862 144.158 58.5762 141.714 57.3252C139.262 56.0696 138.157 53.5191 138.34 49.5359C138.473 46.6521 139.163 44.8062 140.705 43.207C143.274 40.5431 147.985 40.4601 150.572 43.0332L151.729 44.1846H156.351C161.507 44.1846 161.236 44.325 160.557 42.0117C159.675 39.0075 156.878 35.7852 153.845 34.2773C150.772 32.7501 146.58 32.1124 142.906 32.6134ZM28.3491 33.3458C28.2852 33.5434 28.0432 34.9322 27.811 36.4324C27.5785 37.9326 27.1665 40.5451 26.895 42.2376L26.4012 45.3156L23.3248 45.3959L20.2481 45.4766L19.7644 48.4914C19.0008 53.2501 18.7473 52.7982 22.18 52.7982C25.5956 52.7982 25.3735 52.4746 24.7125 56.4897C24.4875 57.8546 24.1035 60.2633 23.859 61.8424C23.6142 63.4216 23.3545 65.0042 23.282 65.3596L23.1497 66.0056L35.1296 66.0022C44.2383 65.9996 47.445 65.9069 48.51 65.6149C53.4177 64.2689 56.058 60.9291 56.0314 56.1C56.0174 53.5711 55.0157 51.2136 53.3838 49.8693L52.2807 48.9608L53.1286 48.5956C54.7605 47.8922 55.9232 46.7155 56.8089 44.8714C57.6013 43.2213 57.6753 42.8463 57.5526 41.0995C57.2465 36.7459 54.6135 34.0478 49.9105 33.2686C47.2783 32.8328 28.493 32.8999 28.3491 33.3458ZM64.7844 33.4894C64.702 33.7659 64.3704 35.7361 64.0474 37.868C63.7242 39.9998 63.2872 42.8423 63.076 44.1846C62.8648 45.5269 62.4349 48.3048 62.1206 50.3577C61.8063 52.4106 61.2254 56.1575 60.8296 58.6841C60.4338 61.2108 60.0349 63.8916 59.943 64.6418L59.7761 66.0056H74.3755H88.9746L89.1225 65.3596C89.2037 65.0042 89.4975 63.2278 89.7754 61.4117L90.2804 58.1099L80.2594 58.0346C72.4492 57.9758 70.263 57.8808 70.3504 57.604C70.4117 57.4084 70.6075 56.3119 70.7856 55.1669L71.1092 53.0853H76.3892C79.8989 53.0853 81.7327 52.9802 81.8582 52.7723C82.0126 52.5162 83.0887 46.0052 83.0999 45.2613C83.1016 45.143 80.6919 45.0459 77.7449 45.0459H72.3867L72.5786 43.5386C72.6842 42.7097 72.8399 41.7406 72.9251 41.3852L73.08 40.7392H82.1212H91.1628L91.4748 38.9447C91.8283 36.9133 92.3412 33.5267 92.3443 33.2023C92.3457 33.084 86.1786 32.9869 78.6401 32.9869C65.8303 32.9869 64.9241 33.0197 64.7844 33.4894ZM95.8579 33.3458C95.7459 33.7027 94.5873 40.8118 94.5873 41.1411C94.5873 41.2359 97.1814 41.3134 100.352 41.3134H106.116L105.953 42.103C105.864 42.5371 105.351 45.7996 104.813 49.3527C104.275 52.9058 103.71 56.5235 103.558 57.3921C103.406 58.2606 103.087 60.3279 102.849 61.986C102.611 63.6441 102.348 65.2267 102.264 65.5032C102.124 65.968 102.466 66.0056 106.837 66.0056H111.561L112.206 61.7706C112.561 59.4412 113.085 56.0498 113.372 54.2338C114.064 49.8406 115.012 43.7272 115.207 42.3901L115.364 41.3134H121.063C126.246 41.3134 126.775 41.268 126.913 40.8109C126.996 40.5344 127.259 39.0164 127.498 37.4373C127.737 35.8581 128.003 34.2109 128.088 33.7765L128.245 32.9869H112.107C99.4444 32.9869 95.9461 33.0642 95.8579 33.3458ZM167.296 33.633C167.225 33.9881 166.904 36.0232 166.582 38.1551C166.261 40.2869 165.183 47.2639 164.187 53.6595C163.191 60.0551 162.375 65.4495 162.374 65.6467C162.373 65.9195 163.482 66.0056 166.989 66.0056C171.552 66.0056 171.607 65.9982 171.734 65.3596C172.09 63.5726 176.658 33.9459 176.658 33.4277C176.658 33.0492 176.006 32.9869 172.042 32.9869C167.48 32.9869 167.424 32.9944 167.296 33.633ZM181.016 33.3458C180.957 33.5434 180.707 35.126 180.459 36.8631C180.211 38.6001 179.933 40.3119 179.841 40.6674L179.674 41.3134H185.449C188.625 41.3134 191.224 41.4265 191.224 41.5646C191.224 41.7027 190.978 43.3499 190.678 45.2254C189.492 52.625 187.878 63.0696 187.699 64.4983L187.51 66.0056H192.133H196.756L196.897 65.2161C196.975 64.7819 197.84 59.2285 198.819 52.8757L200.599 41.3246L206.345 41.2474L212.092 41.1698L212.701 37.5808C213.036 35.6069 213.319 33.7659 213.331 33.4894C213.351 33.0165 212.406 32.9869 197.237 32.9869C184.589 32.9869 181.099 33.0642 181.016 33.3458ZM214.23 33.633C214.7 34.5331 221.765 46.3414 223.772 49.5816C224.764 51.1814 225.368 52.4467 225.281 52.7399C225.142 53.2076 224.249 58.9135 223.7 62.8473C223.557 63.8738 223.373 65.0042 223.292 65.3596L223.145 66.0056H228.192C230.968 66.0056 233.24 65.8957 233.24 65.7613C233.24 65.6269 233.689 62.5611 234.239 58.9483C235.233 52.4146 235.244 52.3729 236.27 51.0855C237.286 49.8107 242.876 42.9951 247.898 36.9084C249.31 35.1966 250.567 33.6137 250.69 33.3912C250.88 33.0495 250.05 32.9869 245.322 32.9869H239.73L237.408 35.7864C236.131 37.3259 234.575 39.1672 233.95 39.8778C233.325 40.5884 232.426 41.6577 231.953 42.2537L231.093 43.3373L228.069 38.1623L225.046 32.9869H219.469H213.893L214.23 33.633ZM45.94 40.7205C47.9273 41.1934 48.4343 43.0143 46.9909 44.4938L46.1722 45.3331H40.8611H35.55L35.936 43.2515C36.1481 42.1064 36.3817 41.0085 36.4548 40.8109C36.6139 40.3817 44.2117 40.3096 45.94 40.7205ZM44.4521 53.1128C45.6683 53.3802 45.9509 53.5722 46.3313 54.3897C46.905 55.6226 46.5702 56.9559 45.4767 57.7935C44.7487 58.3513 44.2641 58.4042 39.081 58.4906C33.7596 58.5796 33.4806 58.5575 33.6237 58.0599C33.7067 57.7716 33.9218 56.4696 34.1019 55.1669L34.429 52.7982H38.7247C41.0872 52.7982 43.6647 52.9397 44.4521 53.1128Z" fill="white"/>
</g>
</svg>
