<svg width="270.000000" height="99.000000" viewBox="0 0 270 99" fill="none" xmlns="http://www.w3.org/2000/svg" xmlns:xlink="http://www.w3.org/1999/xlink">
	<desc>
			Created with Pixso.
	</desc>
	<defs>
		<clipPath id="clip8_3675">
			<rect id="logos" rx="0.000000" width="269.000000" height="98.000000" transform="translate(0.500000 0.500000)" fill="white" fill-opacity="0"/>
		</clipPath>
	</defs>
	<g opacity="0.400000">
		<g clip-path="url(#clip8_3675)">
			<path id="image 79 (Traced)" d="M24.75 33.32L24.75 40.02L23.43 38.77C21.15 36.62 18.87 35.81 15.15 35.83C12.53 35.85 10.84 36.25 8.52 37.39C3.25 40 0 45.57 0 51.99C0 58.41 3.25 63.99 8.52 66.59C10.84 67.74 12.53 68.13 15.15 68.15C18.87 68.17 21.15 67.36 23.43 65.22L24.75 63.96L24.75 65.68L24.75 67.39L28.7 67.39L32.65 67.39L32.65 47.01L32.65 26.62L28.7 26.62L24.75 26.62L24.75 33.32ZM142.98 31.6L142.98 36.59L140.38 36.59L137.78 36.59L137.78 39.44L137.78 42.29L140.37 42.29L142.96 42.29L143.02 51.95C143.07 61.54 143.07 61.61 143.48 62.61C144.28 64.57 145.84 66.12 147.8 66.89C148.73 67.26 149.16 67.3 153.07 67.36L157.33 67.42L157.33 64.02L157.33 60.63L154.95 60.63C152.25 60.63 151.7 60.44 151.17 59.33C150.9 58.76 150.87 57.87 150.92 50.54L150.96 42.38L153.88 42.33L156.79 42.28L156.79 39.43L156.79 36.59L153.83 36.59L150.87 36.59L150.87 31.6L150.87 26.62L146.93 26.62L142.98 26.62L142.98 31.6ZM49.78 35.89C42.87 36.8 37.19 42.02 35.8 48.73C35.44 50.49 35.44 53.49 35.8 55.25C37.08 61.46 41.94 66.33 48.39 67.87C50.33 68.33 53.67 68.25 55.84 67.69C57.8 67.18 60.06 66.13 61.5 65.05C63.63 63.46 65.67 60.97 66.64 58.77L67.09 57.78L62.87 57.78C60.35 57.78 58.66 57.85 58.66 57.95C58.66 58.04 58.22 58.59 57.68 59.16C55.96 61 53.85 61.82 51.23 61.65C47.48 61.41 45.01 59.23 43.69 54.97L43.57 54.57L55.51 54.57L67.45 54.57L67.45 52.75C67.45 44.1 62.76 37.62 55.43 36.14C53.79 35.8 51.26 35.69 49.78 35.89ZM85.93 35.86C83.3 36.23 81.26 37.18 79.54 38.83L78.39 39.93L78.39 38.26L78.39 36.59L74.45 36.59L70.5 36.59L70.5 56.98L70.5 77.36L74.45 77.36L78.39 77.36L78.39 70.71L78.39 64.06L79.54 65.16C81.71 67.24 84.24 68.17 87.72 68.16C93.87 68.15 98.91 64.94 101.52 59.35C102.69 56.87 103.05 55.1 103.05 51.99C103.05 49.77 102.98 49.05 102.64 47.72C101.36 42.82 98.13 38.88 93.86 37C91.75 36.08 88.12 35.56 85.93 35.86ZM119.84 35.87C118.07 36.09 116.49 36.55 114.87 37.3C113 38.17 111.97 38.86 110.44 40.32C107.14 43.45 105.43 47.44 105.43 51.99C105.43 56.54 107.14 60.53 110.44 63.66C111.97 65.12 112.99 65.81 114.89 66.7C119.15 68.68 124.29 68.68 128.55 66.7C132.82 64.71 135.88 61.24 137.29 56.79C139.43 50.07 136.79 42.59 130.87 38.54C127.9 36.52 123.39 35.43 119.84 35.87ZM262.42 36.59C260.25 37.13 258.4 38.85 257.77 40.9C257.02 43.36 257.7 46.17 259.44 47.72C261.64 49.7 265.18 49.97 267.46 48.34C268.83 47.35 270 45.02 270 43.27L270 42.46L266.59 42.46L263.18 42.46L263.18 43.53L263.18 44.6L265.24 44.6C266.38 44.6 267.3 44.65 267.3 44.72C267.3 44.78 267.1 45.18 266.85 45.61C266.25 46.62 265.32 47.09 263.96 47.09C261.48 47.09 259.74 45.07 260.03 42.5C260.4 39.14 263.82 37.61 266.44 39.64C267.03 40.09 267.25 40.15 268.37 40.15C269.07 40.15 269.64 40.08 269.64 40C269.64 39.73 268.64 38.47 267.93 37.85C267.54 37.52 266.88 37.09 266.45 36.9C265.54 36.51 263.42 36.34 262.42 36.59ZM172.04 43.01L172.04 49.26L175.68 49.2C179.07 49.15 179.36 49.11 180.17 48.72C181.24 48.2 181.88 47.28 182.03 46.08C182.15 45.02 181.89 44.11 181.26 43.44L180.81 42.96L181.17 42.57C182.76 40.9 182.17 38.09 180.03 37.1C179.4 36.82 178.82 36.77 175.68 36.77L172.04 36.77L172.04 43.01ZM184.42 43L184.42 49.23L185.68 49.23L186.93 49.23L186.93 46.83L186.93 44.42L187.89 44.42L188.86 44.42L190.7 46.83L192.54 49.23L194.04 49.23C194.87 49.23 195.54 49.17 195.54 49.1C195.54 49.02 194.74 47.93 193.76 46.66L191.99 44.36L192.83 43.97C194.86 43.04 195.59 40.76 194.51 38.71C194.1 37.94 193.82 37.66 193.05 37.26L192.09 36.77L188.26 36.77L184.42 36.77L184.42 43ZM201.32 37.07C201.01 37.67 196.08 49.01 196.08 49.13C196.08 49.19 196.66 49.22 197.36 49.19L198.64 49.14L199.23 47.81L199.83 46.47L202.63 46.42L205.44 46.37L206.09 47.8L206.75 49.23L208.06 49.23C209.25 49.23 209.37 49.2 209.28 48.91C209.22 48.74 208.02 45.96 206.6 42.73L204.03 36.86L202.76 36.8C201.68 36.76 201.46 36.8 201.32 37.07ZM210.79 43L210.79 49.23L212.05 49.23L213.3 49.23L213.35 44.94L213.39 40.64L216.44 44.93L219.49 49.23L220.88 49.23L222.27 49.23L222.27 43L222.27 36.77L221.02 36.77L219.76 36.77L219.76 40.96C219.76 43.5 219.7 45.12 219.6 45.05C219.51 45 218.12 43.11 216.52 40.86L213.6 36.77L212.2 36.77L210.79 36.77L210.79 43ZM225.14 43L225.14 49.27L228.24 49.19C232.06 49.09 232.91 48.83 234.48 47.29C235.89 45.92 236.33 44.74 236.23 42.63C236.11 40.07 235 38.39 232.7 37.32C231.75 36.88 231.52 36.85 228.42 36.8L225.14 36.74L225.14 43ZM238.42 43L238.42 49.23L239.68 49.23L240.93 49.23L240.93 43L240.93 36.77L239.68 36.77L238.42 36.77L238.42 43ZM243.8 43L243.8 49.23L245.06 49.23L246.31 49.23L246.36 44.91L246.4 40.6L249.46 44.87L252.51 49.14L253.9 49.19L255.28 49.25L255.28 43.01L255.28 36.77L254.03 36.77L252.77 36.77L252.77 41.06L252.77 45.36L249.71 41.06L246.65 36.77L245.22 36.77L243.8 36.77L243.8 43ZM179.16 39.51C179.51 39.92 179.59 40.15 179.5 40.58C179.3 41.56 178.84 41.74 176.57 41.75L174.55 41.75L174.55 40.45C174.55 39.73 174.61 39.08 174.69 39C174.76 38.93 175.7 38.9 176.77 38.93C178.66 39 178.73 39.01 179.16 39.51ZM191.73 39.26C192.61 39.83 192.66 41.1 191.82 41.76C191.43 42.06 191.09 42.11 189.15 42.11L186.93 42.11L186.93 40.49L186.93 38.87L189.13 38.93C190.64 38.98 191.45 39.08 191.73 39.26ZM231.44 39.39C232.99 40.07 233.86 41.55 233.72 43.24C233.51 45.66 231.94 46.89 229.05 46.91L227.66 46.92L227.66 42.88L227.66 38.85L229.15 38.95C230.06 39 230.96 39.17 231.44 39.39ZM203.63 42.25L204.47 44.16L202.76 44.21C201.83 44.24 201.02 44.22 200.98 44.18C200.93 44.13 201.29 43.22 201.76 42.14C202.24 41.06 202.67 40.22 202.71 40.26C202.76 40.31 203.17 41.2 203.63 42.25ZM18.38 42.53C21.14 43.26 23.17 45.28 24.17 48.3C24.57 49.49 24.64 49.99 24.64 51.99C24.64 54.06 24.59 54.46 24.15 55.73C23.54 57.46 22.86 58.55 21.72 59.61C18.65 62.47 13.64 62.4 10.68 59.46C6.35 55.18 7.2 46.21 12.2 43.31C13.83 42.35 16.48 42.02 18.38 42.53ZM53.91 42.53C56.5 43.22 58.5 45.11 59.53 47.86C59.74 48.42 59.91 48.93 59.91 48.97C59.91 49.02 56.27 49.05 51.82 49.05L43.73 49.05L43.84 48.56C43.91 48.29 44.25 47.48 44.61 46.75C45.65 44.62 47.39 43.14 49.51 42.57C50.76 42.24 52.74 42.22 53.91 42.53ZM88.92 42.53C91.64 43.26 93.66 45.27 94.66 48.25C95.08 49.5 95.14 49.96 95.14 51.99C95.14 54 95.08 54.49 94.68 55.68C93.42 59.47 90.51 61.7 86.83 61.69C83.59 61.68 81 60.08 79.57 57.21C77.07 52.16 78.74 45.27 82.98 43.18C84.8 42.29 87.05 42.04 88.92 42.53ZM123.88 42.56C126.76 43.3 128.94 45.67 129.79 48.96C130.2 50.55 130.15 53.64 129.69 55.29C128.57 59.3 125.59 61.7 121.72 61.7C116.76 61.7 113.33 57.73 113.33 51.99C113.33 49.94 113.66 48.43 114.49 46.74C115.14 45.42 116.69 43.77 117.83 43.2C119.59 42.3 121.92 42.06 123.88 42.56ZM178.67 44.29C179.39 44.65 179.69 45.33 179.42 45.98C179.1 46.74 178.55 46.92 176.43 46.92L174.55 46.92L174.55 45.49L174.55 44.07L176.39 44.07C177.5 44.07 178.41 44.16 178.67 44.29ZM189.25 54.8C187.39 55.33 186 56.52 185.16 58.3C184.75 59.16 184.69 59.53 184.69 61.08C184.69 62.73 184.73 62.95 185.27 64.04C186.32 66.14 188.21 67.38 190.63 67.53C192.59 67.66 193.74 67.24 195.12 65.89C196.37 64.66 196.93 63.45 197.1 61.57L197.21 60.44L193.82 60.49L190.43 60.54L190.38 61.65L190.32 62.76L192.38 62.76C194.73 62.76 194.79 62.83 193.64 64.16C192.89 65.03 192.08 65.32 190.68 65.22C186.76 64.94 185.76 59.1 189.32 57.34C190.47 56.77 191.72 56.74 192.81 57.27C193.24 57.47 193.69 57.79 193.81 57.98C193.98 58.26 194.24 58.31 195.41 58.31L196.81 58.31L196.46 57.64C196 56.75 194.65 55.52 193.62 55.07C192.6 54.62 190.38 54.49 189.25 54.8ZM228.6 54.93C227.78 55.2 227.21 55.55 226.43 56.26C222.19 60.16 224.58 67.17 230.26 67.53C232.57 67.68 234.67 66.73 235.85 65.01C236.18 64.54 236.45 64.08 236.45 63.99C236.45 63.9 235.85 63.83 235.13 63.83C234.01 63.83 233.76 63.89 233.47 64.21C232.57 65.22 230.4 65.57 229.11 64.91C227.7 64.19 226.87 62.78 226.87 61.07C226.87 57.48 230.65 55.59 233.33 57.84C233.83 58.25 234.06 58.31 235.17 58.31C235.87 58.31 236.45 58.25 236.45 58.18C236.45 57.9 235.74 56.91 235.09 56.26C233.55 54.74 230.89 54.19 228.6 54.93ZM176.07 54.94C175.7 55.53 170.67 67.22 170.75 67.3C170.95 67.5 173.08 67.39 173.25 67.17C173.34 67.05 173.65 66.41 173.94 65.74L174.46 64.54L177.3 64.58L180.14 64.63L180.72 65.97L181.3 67.3L182.59 67.36C183.56 67.4 183.88 67.35 183.88 67.18C183.88 67.05 182.69 64.22 181.22 60.89L178.57 54.84L177.38 54.79C176.65 54.76 176.15 54.81 176.07 54.94ZM199.31 61.07L199.31 67.4L203.75 67.35L208.19 67.3L208.24 66.19L208.3 65.08L205.06 65.08L201.82 65.08L201.82 63.65L201.82 62.23L204.96 62.23L208.1 62.23L208.1 61.07L208.1 59.91L204.96 59.91L201.82 59.91L201.82 58.49L201.82 57.07L205.06 57.07L208.3 57.07L208.24 55.95L208.19 54.84L203.75 54.79L199.31 54.74L199.31 61.07ZM210.69 54.97C210.65 55.1 210.63 57.92 210.66 61.25L210.7 67.3L211.96 67.3L213.22 67.3L213.3 63.12L213.39 58.94L216.37 63.12L219.35 67.3L220.72 67.36L222.1 67.41L222.1 61.08L222.1 54.75L220.84 54.75L219.59 54.75L219.54 59.04L219.49 63.34L216.44 59.05L213.39 54.76L212.09 54.75C211.2 54.75 210.75 54.82 210.69 54.97ZM237.17 54.86C237.17 54.92 238.26 56.76 239.59 58.94L242.01 62.9L242.01 65.15L242.01 67.39L243.27 67.39L244.52 67.39L244.52 65.21L244.52 63.03L246.94 59.02C248.27 56.82 249.36 54.96 249.36 54.88C249.36 54.81 248.77 54.75 248.05 54.75L246.73 54.75L245.05 57.51C244.13 59.03 243.31 60.21 243.23 60.13C243.15 60.05 242.37 58.83 241.5 57.41L239.92 54.84L238.54 54.79C237.79 54.76 237.17 54.79 237.17 54.86ZM177.96 59.74C178.28 60.47 178.65 61.33 178.79 61.65L179.04 62.23L177.26 62.23L175.47 62.23L176.1 60.85C176.45 60.09 176.85 59.2 176.99 58.86C177.13 58.53 177.28 58.29 177.32 58.33C177.35 58.37 177.64 59 177.96 59.74Z" fill="#FFFFFF" fill-opacity="1.000000" fill-rule="evenodd"/>
		</g>
	</g>
</svg>
