<svg width="270.000000" height="99.000000" viewBox="0 0 270 99" fill="none" xmlns="http://www.w3.org/2000/svg" xmlns:xlink="http://www.w3.org/1999/xlink">
	<desc>
			Created with Pixso.
	</desc>
	<defs>
		<clipPath id="clip8_3670">
			<rect id="Property 1=betcity" rx="0.000000" width="269.000000" height="98.000000" transform="translate(0.500000 0.500000)" fill="white" fill-opacity="0"/>
		</clipPath>
	</defs>
	<g opacity="0.600000">
		<g clip-path="url(#clip8_3670)">
			<path id="image 83 (Traced)" d="M142.9 32.61C139.7 33.04 136.1 34.93 133.64 37.45C130.38 40.82 128.71 45.13 128.69 50.21C128.69 53.42 129.14 55.64 130.33 58.13C132.02 61.69 134.77 64.13 138.81 65.65C141.31 66.6 145.97 66.84 148.75 66.17C153.58 65 157.5 61.43 159.31 56.52L159.85 55.09L155.13 55.09L150.42 55.09L149.74 55.85C147.91 57.88 144.15 58.57 141.71 57.32C139.26 56.06 138.15 53.51 138.34 49.53C138.47 46.65 139.16 44.8 140.7 43.2C143.27 40.54 147.98 40.46 150.57 43.03L151.72 44.18L156.35 44.18C161.5 44.18 161.23 44.32 160.55 42.01C159.67 39 156.87 35.78 153.84 34.27C150.77 32.75 146.58 32.11 142.9 32.61ZM28.34 33.34C28.28 33.54 28.04 34.93 27.81 36.43C27.57 37.93 27.16 40.54 26.89 42.23L26.4 45.31L23.32 45.39L20.24 45.47L19.76 48.49C19 53.25 18.74 52.79 22.17 52.79C25.59 52.79 25.37 52.47 24.71 56.48C24.48 57.85 24.1 60.26 23.85 61.84C23.61 63.42 23.35 65 23.28 65.35L23.14 66L35.12 66C44.23 65.99 47.44 65.9 48.5 65.61C53.41 64.26 56.05 60.92 56.03 56.1C56.01 53.57 55.01 51.21 53.38 49.86L52.28 48.96L53.12 48.59C54.76 47.89 55.92 46.71 56.8 44.87C57.6 43.22 57.67 42.84 57.55 41.09C57.24 36.74 54.61 34.04 49.91 33.26C47.27 32.83 28.49 32.89 28.34 33.34ZM64.78 33.48C64.7 33.76 64.37 35.73 64.04 37.86C63.72 39.99 63.28 42.84 63.07 44.18C62.86 45.52 62.43 48.3 62.12 50.35C61.8 52.41 61.22 56.15 60.82 58.68C60.43 61.21 60.03 63.89 59.94 64.64L59.77 66L74.37 66L88.97 66L89.12 65.35C89.2 65 89.49 63.22 89.77 61.41L90.28 58.1L80.25 58.03C72.44 57.97 70.26 57.88 70.35 57.6C70.41 57.4 70.6 56.31 70.78 55.16L71.1 53.08L76.38 53.08C79.89 53.08 81.73 52.98 81.85 52.77C82.01 52.51 83.08 46 83.09 45.26C83.1 45.14 80.69 45.04 77.74 45.04L72.38 45.04L72.57 43.53C72.68 42.7 72.83 41.74 72.92 41.38L73.08 40.73L82.12 40.73L91.16 40.73L91.47 38.94C91.82 36.91 92.34 33.52 92.34 33.2C92.34 33.08 86.17 32.98 78.63 32.98C65.83 32.98 64.92 33.01 64.78 33.48ZM95.85 33.34C95.74 33.7 94.58 40.81 94.58 41.14C94.58 41.23 97.18 41.31 100.35 41.31L106.11 41.31L105.95 42.1C105.86 42.53 105.35 45.79 104.81 49.35C104.27 52.9 103.71 56.52 103.55 57.39C103.4 58.26 103.08 60.32 102.84 61.98C102.61 63.64 102.34 65.22 102.26 65.5C102.12 65.96 102.46 66 106.83 66L111.56 66L112.2 61.77C112.56 59.44 113.08 56.04 113.37 54.23C114.06 49.84 115.01 43.72 115.2 42.39L115.36 41.31L121.06 41.31C126.24 41.31 126.77 41.26 126.91 40.81C126.99 40.53 127.26 39.01 127.49 37.43C127.73 35.85 128 34.21 128.08 33.77L128.24 32.98L112.1 32.98C99.44 32.98 95.94 33.06 95.85 33.34ZM167.29 33.63C167.22 33.98 166.9 36.02 166.58 38.15C166.26 40.28 165.18 47.26 164.18 53.65C163.19 60.05 162.37 65.44 162.37 65.64C162.37 65.91 163.48 66 166.98 66C171.55 66 171.6 65.99 171.73 65.35C172.09 63.57 176.65 33.94 176.65 33.42C176.65 33.04 176 32.98 172.04 32.98C167.47 32.98 167.42 32.99 167.29 33.63ZM181.01 33.34C180.95 33.54 180.7 35.12 180.45 36.86C180.21 38.6 179.93 40.31 179.84 40.66L179.67 41.31L185.44 41.31C188.62 41.31 191.22 41.42 191.22 41.56C191.22 41.7 190.97 43.35 190.67 45.22C189.49 52.62 187.87 63.06 187.69 64.49L187.51 66L192.13 66L196.75 66L196.89 65.21C196.97 64.78 197.84 59.22 198.81 52.87L200.59 41.32L206.34 41.24L212.09 41.16L212.7 37.58C213.03 35.6 213.31 33.76 213.33 33.48C213.35 33.01 212.4 32.98 197.23 32.98C184.58 32.98 181.1 33.06 181.01 33.34ZM214.23 33.63C214.7 34.53 221.76 46.34 223.77 49.58C224.76 51.18 225.36 52.44 225.28 52.73C225.14 53.2 224.24 58.91 223.7 62.84C223.55 63.87 223.37 65 223.29 65.35L223.14 66L228.19 66C230.96 66 233.23 65.89 233.23 65.76C233.23 65.62 233.68 62.56 234.23 58.94C235.23 52.41 235.24 52.37 236.27 51.08C237.28 49.81 242.87 42.99 247.89 36.9C249.31 35.19 250.56 33.61 250.69 33.39C250.88 33.04 250.05 32.98 245.32 32.98L239.73 32.98L237.4 35.78C236.13 37.32 234.57 39.16 233.95 39.87C233.32 40.58 232.42 41.65 231.95 42.25L231.09 43.33L228.06 38.16L225.04 32.98L219.47 32.98L213.89 32.98L214.23 33.63ZM45.94 40.72C47.92 41.19 48.43 43.01 46.99 44.49L46.17 45.33L40.86 45.33L35.54 45.33L35.93 43.25C36.14 42.1 36.38 41 36.45 40.81C36.61 40.38 44.21 40.3 45.94 40.72ZM44.45 53.11C45.66 53.38 45.95 53.57 46.33 54.38C46.9 55.62 46.57 56.95 45.47 57.79C44.74 58.35 44.26 58.4 39.08 58.49C33.75 58.57 33.48 58.55 33.62 58.05C33.7 57.77 33.92 56.46 34.1 55.16L34.42 52.79L38.72 52.79C41.08 52.79 43.66 52.93 44.45 53.11Z" fill="#FFFFFF" fill-opacity="1.000000" fill-rule="evenodd"/>
		</g>
	</g>
</svg>
