<svg width="270.000000" height="99.000000" viewBox="0 0 270 99" fill="none" xmlns="http://www.w3.org/2000/svg" xmlns:xlink="http://www.w3.org/1999/xlink">
	<desc>
			Created with Pixso.
	</desc>
	<defs>
		<clipPath id="clip8_3672">
			<rect id="Property 1=fish" rx="0.000000" width="269.000000" height="98.000000" transform="translate(0.500000 0.500000)" fill="white" fill-opacity="0"/>
		</clipPath>
	</defs>
	<g opacity="0.600000">
		<g clip-path="url(#clip8_3672)">
			<path id="image 84 (Traced)" d="M135.3 18.55C124.34 19.57 115.11 21.53 106.48 24.69C94.87 28.94 85.53 34.61 77.68 42.18L75.18 44.58L74.73 43.96C73.72 42.56 70.78 39.8 69.19 38.76C65.95 36.64 62.02 35.04 58.36 34.35C55.72 33.85 52.13 33.89 49.81 34.45C48.08 34.86 46.43 35.51 46.2 35.88C46 36.2 47.49 38.98 48.75 40.65C50 42.3 52.02 44.19 53.91 45.47C55.05 46.24 58.84 48.14 59.64 48.34C60.36 48.52 60.37 48.77 59.67 48.94C58.65 49.2 55.22 50.91 53.59 51.98C51.71 53.23 49.46 55.33 48.19 57.05C47.14 58.47 45.97 60.82 46.13 61.22C46.27 61.58 47.76 62.27 49.35 62.71C51.27 63.24 55.66 63.35 58.1 62.93C64.93 61.76 72.31 57.46 74.85 53.18C75.11 52.75 75.4 52.4 75.51 52.4C75.62 52.4 76.9 53.55 78.36 54.96C81.49 57.97 83.69 59.81 87.1 62.26C95.99 68.64 107.38 73.9 118.72 76.85C136.22 81.41 156.14 81.93 174.06 78.31C186.64 75.77 198.55 70.92 208.48 64.32C212.26 61.81 214.45 60.09 218.37 56.6C219.95 55.19 223.7 51.18 223.87 50.72C224.03 50.3 220.69 46.29 217.89 43.54C207.87 33.65 194.63 26.41 178.71 22.11C173.53 20.71 166.97 19.55 159.59 18.72C155.4 18.25 139.7 18.14 135.3 18.55ZM115.34 27.89C115.75 28.02 116.19 28.35 116.34 28.64C116.62 29.19 116.7 31.52 116.47 32.36C116.35 32.83 116.28 32.84 115.15 32.7C111.85 32.26 111.14 32.91 111.06 36.5L111.01 38.54L114.18 38.64L117.35 38.75L117.35 40.35C117.35 41.76 117.29 42.01 116.82 42.51C115.99 43.4 115.14 43.64 112.92 43.64L110.91 43.64L110.91 52.71C110.91 63.58 111.21 62.6 107.85 62.6C106.63 62.6 105.41 62.5 105.11 62.36L104.57 62.12L104.57 52.88L104.57 43.64L103.46 43.62C102.85 43.61 102.27 43.61 102.17 43.63C102.07 43.64 101.81 43.6 101.6 43.54C100.59 43.22 100.48 39.22 101.47 38.6C101.61 38.51 102.36 38.44 103.14 38.44L104.57 38.44L104.57 37.24C104.57 35.31 105.11 32.31 105.65 31.22C106.3 29.94 107.53 28.71 108.7 28.2C110.45 27.44 113.46 27.3 115.34 27.89ZM125.21 27.82C125.85 28.22 126.33 29.47 126.31 30.68C126.29 33.07 125.4 33.85 122.74 33.85C119.92 33.85 119 32.9 119.2 30.2C119.38 27.91 120.16 27.34 122.95 27.45C124.01 27.5 124.93 27.64 125.21 27.82ZM191.1 37.72C193.29 38.17 194.78 38.91 196.23 40.29C198.23 42.2 199.13 44.58 199.34 48.55C199.66 54.53 197.4 59.14 193.2 61.05C191.02 62.04 189.54 62.27 186.03 62.14L183.04 62.03L182.63 62.89C182.39 63.39 181.21 64.73 179.82 66.08C178.51 67.36 177.5 68.44 177.59 68.48C177.68 68.53 179.04 68.59 180.61 68.62C182.18 68.65 183.54 68.75 183.64 68.85C183.94 69.14 184.05 70.65 183.79 71.12C183.56 71.55 183.46 71.56 178.22 71.56C174.35 71.56 172.81 71.49 172.63 71.31C172.49 71.17 172.37 70.51 172.37 69.83L172.37 68.61L174.99 65.97C176.42 64.52 177.77 63.01 177.98 62.6C178.49 61.6 178.5 60.26 177.99 59.71C177.41 59.08 175.78 59.12 174.29 59.8C172.89 60.44 172.69 60.3 172.69 58.72C172.69 57.72 172.77 57.5 173.27 57.08C173.59 56.81 174.37 56.42 175.01 56.22C175.65 56.02 176.17 55.76 176.17 55.64C176.17 55.52 176.03 54.91 175.87 54.3C175.39 52.54 175.26 50.17 175.52 48.06C175.94 44.66 176.92 42.45 178.79 40.63C179.99 39.46 180.71 39.01 182.81 38.11C184.52 37.38 188.5 37.19 191.1 37.72ZM142.28 38.55C144.22 39.04 145.31 39.63 145.48 40.28C145.77 41.37 145.65 43.63 145.3 43.98C145 44.28 144.91 44.28 144.34 43.99C142.04 42.82 139.01 42.29 137.45 42.8C135.26 43.51 135.28 46.06 137.49 47.17C137.91 47.38 139.26 47.95 140.48 48.44C144.23 49.94 146 51.46 146.62 53.72C146.97 54.98 146.75 57.75 146.22 58.76C144.71 61.67 141.56 63.22 137.2 63.22C134.09 63.22 130.5 62.22 129.94 61.19C129.56 60.5 129.43 58.6 129.69 57.66C129.88 56.95 130.03 56.77 130.41 56.77C130.67 56.77 131.07 56.9 131.3 57.06C132.13 57.63 134.48 58.45 135.82 58.64C139.18 59.11 141.47 57.4 140.41 55.2C139.98 54.32 139.55 54.04 136.85 52.94C133.8 51.69 132.97 51.24 131.88 50.25C130.2 48.72 129.55 46.68 129.95 44.17C130.38 41.46 132.16 39.66 135.41 38.62C136.92 38.14 140.53 38.1 142.28 38.55ZM125.2 39.1L125.69 39.55L125.69 50.75C125.69 63.32 125.81 62.47 124.08 62.72C122.85 62.91 120.02 62.68 119.64 62.37C119.41 62.18 119.36 60.27 119.37 51.9C119.38 46.27 119.46 41.11 119.55 40.44C119.76 38.78 119.98 38.64 122.6 38.64C124.48 38.64 124.77 38.7 125.2 39.1ZM155.13 39.46C155.69 39.55 156.24 39.76 156.35 39.92C156.47 40.09 156.53 41.91 156.49 44.27L156.42 48.33L159.92 48.39L163.41 48.45L163.47 44.22C163.5 41.82 163.62 39.91 163.74 39.79C164.04 39.48 168.09 39.39 169.03 39.67L169.84 39.91L169.84 51.26C169.84 62.33 169.83 62.61 169.42 63.02C169.04 63.39 168.71 63.44 166.68 63.44C165.38 63.44 164.13 63.33 163.83 63.2L163.3 62.96L163.24 58.4L163.18 53.84L159.8 53.82L156.42 53.79L156.37 58.39L156.31 62.99L155.55 63.24C154.55 63.56 150.79 63.42 150.32 63.04C150.02 62.79 149.98 61.62 149.99 51.48C149.99 45.28 150.07 40.08 150.17 39.93C150.54 39.35 153.03 39.12 155.13 39.46ZM186.29 42.19C184.38 42.51 183.52 43.25 182.42 45.52C182 46.39 181.83 47.12 181.74 48.54C181.5 52.33 182.43 55.46 184.17 56.64C186.24 58.05 189.56 57.75 191.2 56.01C192.62 54.5 193.17 52.43 193.02 49.09C192.9 46.44 192.52 45.1 191.5 43.78C190.49 42.47 188.39 41.83 186.29 42.19Z" fill="#FFFFFF" fill-opacity="1.000000" fill-rule="evenodd"/>
		</g>
	</g>
</svg>
