<svg width="270" height="99" viewBox="0 0 270 99" fill="none" xmlns="http://www.w3.org/2000/svg">
<g opacity="0.6">
<path fill-rule="evenodd" clip-rule="evenodd" d="M54.846 3.53011C54.1173 3.8282 53.4669 4.64904 52.2433 6.81394C48.4884 13.4573 42.0275 19.8223 35.26 23.5456C34.1071 24.1799 32.9149 24.9914 32.6105 25.3486C30.896 27.3613 32.3205 30.4282 34.9684 30.4259C36.4103 30.4247 37.2993 29.7542 38.4338 27.8121C43.1341 19.765 48.8781 14.0979 56.8659 9.62621C58.478 8.72354 59.1835 7.90995 59.3771 6.73001C59.5473 5.69268 58.8841 4.31892 57.9375 3.74801C57.1845 3.29375 55.6824 3.18784 54.846 3.53011ZM66.4083 4.44914C65.3731 5.07383 64.4698 6.23741 63.1526 8.64312C61.0323 12.5163 57.7501 16.4529 51.4208 22.7136C45.0485 29.0168 41.0743 32.2529 37.1693 34.3183C34.4971 35.7315 33.1232 36.9781 32.7611 38.3172C32.0256 41.0386 34.3023 43.4321 37.1863 42.9692C38.7708 42.7148 39.5448 41.8309 42.2721 37.1619C43.941 34.3049 47.2199 30.3866 51.8916 25.6661C58.5168 18.972 62.9042 15.3197 67.3726 12.7789C68.6726 12.0396 70.0212 11.2349 70.3693 10.9906C72.0512 9.81067 72.5459 7.19385 71.3821 5.63353C70.215 4.06877 67.938 3.52661 66.4083 4.44914ZM45.7136 5.15285C45.4004 5.39646 44.5619 6.57617 43.85 7.77435C42.1631 10.6133 39.4508 13.3531 36.9199 14.7738C34.1088 16.3521 33.4562 16.9672 33.4562 18.0394C33.4562 18.7527 33.6056 19.0538 34.2083 19.5555C35.4531 20.5917 36.7847 20.0671 37.7689 18.1528C39.69 14.4163 42.785 11.3186 46.6545 9.25869C48.9143 8.05583 49.4362 6.68699 48.1282 5.39319C47.3279 4.60158 46.5248 4.52162 45.7136 5.15285ZM77.2862 8.19003C76.0151 8.76118 74.9531 10.0323 73.4216 12.8158C67.609 23.3789 52.0145 38.7858 41.3749 44.4765C37.5309 46.5324 36.0024 48.4949 36.4456 50.8047C37.032 53.8604 40.421 55.5507 43.1563 54.1517C44.1988 53.6184 45.361 52.1425 46.8616 49.4457C50.7942 42.3796 58.7961 33.3462 68.0817 25.4905C72.3958 21.8406 74.8281 20.1253 78.7957 17.934C81.6998 16.3304 82.7785 15.4427 83.3583 14.1805C85.0992 10.3898 81.1224 6.46653 77.2862 8.19003ZM81.7584 19.8873C80.8258 20.4498 80.1436 21.3557 78.6943 23.9569C76.406 28.0641 72.3656 32.8416 65.8056 39.1968C59.9318 44.887 56.3154 47.7418 52.0672 50.0423C51.0587 50.5882 49.8741 51.3705 49.4345 51.7806C47.3955 53.6827 47.8942 56.9614 50.3882 58.0527C52.7188 59.0725 54.7961 57.9274 56.513 54.6765C58.7274 50.484 62.5475 45.8084 68.7813 39.6615C74.9411 33.5879 79.319 30.0546 83.4285 27.8408C86.5863 26.1398 87.5807 24.9776 87.5807 22.9876C87.5807 21.9082 86.8506 20.7317 85.7083 19.9703C84.6804 19.285 82.8215 19.246 81.7584 19.8873ZM83.895 32.2716C82.8915 32.7254 82.7289 32.9361 80.4485 36.7392C76.8881 42.6777 70.4873 48.8371 64.5364 52.0518C61.6463 53.613 60.8765 54.4488 60.8753 56.0269C60.8737 58.3742 63.2975 59.8894 65.3632 58.8326C66.1923 58.4085 66.8229 57.5849 68.3169 54.9748C71.544 49.337 78.6414 42.2938 84.0354 39.3763C87.4462 37.5315 88.2871 36.6725 88.2888 35.0325C88.2912 32.7121 86.0437 31.2998 83.895 32.2716ZM83.6253 42.7071C83.342 42.9035 82.5062 44.087 81.7679 45.3373C80.0432 48.2583 77.1611 51.1266 74.4506 52.6194C73.4176 53.1884 72.3386 53.8592 72.0529 54.11C71.3412 54.7345 71.1609 55.7197 71.6033 56.566C72.0134 57.3504 72.3958 57.5465 73.5161 57.5465C74.4414 57.5465 75.029 56.9476 76.3074 54.7004C78.0983 51.5526 80.8357 48.8844 84.0867 47.1171C86.1614 45.9893 86.6825 45.425 86.6825 44.3053C86.6825 42.7359 84.9165 41.8126 83.6253 42.7071ZM231.364 59.1927C229.548 59.548 227.998 60.3738 226.92 61.5598C225.564 63.0509 225.042 64.5874 225.191 66.6454C225.386 69.342 226.601 71.1069 229.1 72.3233C230.6 73.0532 230.82 73.0936 233.287 73.0936C235.246 73.0936 236.169 72.9875 237.014 72.6651L238.137 72.2368V70.1518C238.137 69.0053 238.1 68.0671 238.055 68.0671C238.011 68.0671 237.346 68.2815 236.578 68.5433C234.366 69.298 232.75 69.3831 231.448 68.8134C228.838 67.6713 228.737 64.6437 231.27 63.5136C232.574 62.9319 235 63.1143 236.8 63.929L238.137 64.5343V62.3582V60.1818L237.132 59.8082C234.914 58.9834 233.309 58.812 231.364 59.1927ZM90.9312 60.4105C90.788 61.0854 90.1356 64.0576 89.4814 67.0151C88.8272 69.9725 88.2914 72.5239 88.2907 72.6845C88.29 72.8965 88.8683 72.9767 90.3973 72.9767H92.5048L92.7414 71.8662C92.8716 71.2553 93.3233 68.9672 93.745 66.7813C94.3245 63.7775 94.5568 62.9497 94.6963 63.3913C94.7977 63.7128 95.156 65.8695 95.4921 68.184C95.8284 70.4985 96.1503 72.5239 96.2073 72.6845C96.2846 72.9028 97.3302 72.9767 100.344 72.9767C103.366 72.9767 104.398 72.9036 104.463 72.6845C104.511 72.5239 104.835 70.4985 105.185 68.184C105.534 65.8695 105.898 63.7167 105.994 63.4C106.121 62.9782 106.373 63.8858 106.935 66.7899C107.356 68.9712 107.81 71.2553 107.942 71.8662L108.182 72.9767H110.408C111.632 72.9767 112.633 72.8979 112.633 72.8014C112.632 72.7048 112.256 70.8901 111.797 68.7685C110.827 64.2804 109.798 59.3897 109.798 59.2677C109.798 59.2212 108.169 59.1831 106.18 59.1831H102.562L101.663 63.9173C101.168 66.5211 100.688 68.9106 100.596 69.2274C100.418 69.84 100.363 69.6076 99.0279 62.5146L98.4006 59.1831H94.7958H91.1912L90.9312 60.4105ZM114.997 66.0759V72.9767H120.906H126.815V71.2233V69.4699H122.915H119.015V68.6516V67.8333H122.797H126.579V66.0799V64.3265H122.797H119.015V63.6309V62.9354L122.856 62.8711L126.697 62.8068V61.0534V59.3L120.847 59.2375L114.997 59.1749V66.0759ZM127.997 61.1703V63.1575H130.237H132.478L132.542 68.0087L132.606 72.8598L134.674 72.9274L136.742 72.995V68.0762V63.1575H138.987H141.232V61.1703V59.1831H134.615H127.997V61.1703ZM145.252 59.7091C144.64 61.1434 140.287 72.5987 140.287 72.7743C140.287 72.8855 141.223 72.9767 142.367 72.9767H144.448L144.873 71.8078L145.298 70.6388H148.328H151.358L151.75 71.8078L152.143 72.9767H154.369C155.593 72.9767 156.595 72.9061 156.595 72.8196C156.595 72.7334 156.342 72.0233 156.033 71.2415C155.724 70.46 154.538 67.427 153.397 64.5018L151.323 59.1831H148.4C145.592 59.1831 145.468 59.2039 145.252 59.7091ZM165.104 60.0013V60.8196L163.154 60.8219C161.611 60.8236 160.957 60.9379 160.022 61.3688C156.916 62.7996 156.156 67.2715 158.573 69.9017C159.532 70.946 160.825 71.4169 163.036 71.5275L165.104 71.6313V72.3039V72.9767H167.231H169.358V72.3039V71.6313L171.426 71.5275C175.317 71.3327 177.231 69.536 177.231 66.0799C177.231 64.4637 176.801 63.3212 175.837 62.376C174.708 61.2692 173.876 60.9653 171.604 60.8297L169.476 60.7027L169.402 59.9429L169.328 59.1831H167.216H165.104V60.0013ZM179.285 66.0621V72.9767H181.294H183.303V71.3402V69.7037H185.182C188.731 69.7037 190.539 68.9074 191.582 66.8848C192.55 65.0094 192.071 61.9991 190.594 60.6716C189.196 59.4155 188.68 59.3049 183.835 59.2238L179.285 59.1473V66.0621ZM197.589 59.9978C197.399 60.446 196.489 62.787 195.566 65.1997C194.642 67.6126 193.633 70.2468 193.322 71.0533C193.011 71.8599 192.757 72.6225 192.757 72.7483C192.757 72.8797 193.641 72.9767 194.837 72.9767H196.918L197.343 71.8078L197.768 70.6388H200.761H203.755L204.174 71.8078L204.594 72.9767H206.83C208.059 72.9767 209.065 72.9403 209.065 72.8956C209.065 72.8192 208.148 70.4219 205.966 64.7941C205.443 63.4439 204.743 61.629 204.413 60.7612L203.811 59.1831H200.872H197.933L197.589 59.9978ZM210.72 66.0799V72.995L212.788 72.9274L214.856 72.8598L214.919 70.6388C215.033 66.6487 214.775 66.7086 217.532 70.0342L219.972 72.9767H222.555C223.975 72.9767 225.137 72.9134 225.137 72.8358C225.137 72.7581 223.872 71.1473 222.325 69.2562L219.513 65.8178L220.361 64.78C220.826 64.2091 221.985 62.8244 222.936 61.7026C223.887 60.5809 224.665 59.5553 224.665 59.4232C224.665 59.2752 223.774 59.1831 222.344 59.1831H220.023L217.56 62.2057C216.206 63.868 215.063 65.1938 215.021 65.152C214.979 65.1101 214.924 63.7764 214.9 62.188L214.856 59.3L212.788 59.2324L210.72 59.1648V66.0799ZM149.255 64.8338C149.652 65.9485 149.977 66.9218 149.977 66.9964C149.977 67.0709 149.233 67.132 148.323 67.132C147.413 67.132 146.668 67.0532 146.667 66.9566C146.663 66.4636 148.225 62.4994 148.367 62.6413C148.458 62.7322 148.858 63.7188 149.255 64.8338ZM201.62 64.6772C201.987 65.7058 202.334 66.6791 202.392 66.8397C202.471 67.056 202.061 67.132 200.818 67.132C199.894 67.132 199.137 67.0532 199.135 66.9566C199.127 66.4965 200.677 62.4851 200.806 62.6352C200.887 62.7297 201.253 63.6485 201.62 64.6772ZM187.321 63.3913C187.581 63.6485 187.794 64.1219 187.794 64.4434C187.794 65.548 187.051 65.963 185.076 65.963H183.303V64.4434V62.9237H185.076C186.533 62.9237 186.932 63.007 187.321 63.3913ZM165.104 66.0799V67.8333H163.942C162.435 67.8333 162.089 67.6865 161.658 66.8631C160.966 65.5377 162.123 64.3368 164.099 64.33L165.104 64.3265V66.0799ZM172.427 64.9077C173.078 65.4907 173.058 66.738 172.386 67.3566C172 67.7122 171.55 67.8333 170.614 67.8333H169.358V66.0509V64.2685L170.655 64.3749C171.453 64.4403 172.134 64.6451 172.427 64.9077ZM89.1075 81.9181C89.0435 82.0826 89.0196 85.2145 89.0541 88.8775L89.117 95.5375H91.126H93.1349L93.1988 90.5695L93.2626 85.6014H96.9307H100.599L100.53 83.6727L100.462 81.7439L94.8428 81.6812C90.4467 81.6321 89.1983 81.6836 89.1075 81.9181ZM101.998 88.6246V95.6727L104.066 95.6051L106.134 95.5375V93.901V92.2645L108.734 92.1476C111.891 92.0057 113.045 91.4962 114.124 89.7697C115.37 87.7743 114.986 84.652 113.304 83.0994C112.082 81.9723 111.144 81.7775 106.43 81.674L101.998 81.5765V88.6246ZM115.235 81.9108C115.236 82.0761 115.794 83.0531 116.476 84.0818C119.121 88.0721 120.67 90.5489 120.67 90.7864C120.67 91.0586 119.185 93.5723 118.501 94.4586C117.663 95.5431 117.869 95.678 120.253 95.6049L122.435 95.5375L125.686 90.3941C127.474 87.5653 129.41 84.5201 129.989 83.6271C130.567 82.734 130.987 81.9185 130.923 81.8152C130.776 81.58 127.022 81.5718 126.688 81.8058C126.553 81.9003 125.756 83.0561 124.916 84.374C124.076 85.6919 123.335 86.7685 123.27 86.7662C123.205 86.7638 122.407 85.633 121.497 84.2529L119.843 81.7439L117.538 81.677C115.782 81.626 115.234 81.6817 115.235 81.9108ZM131.887 81.9185C131.823 82.0829 131.799 85.2145 131.834 88.8775L131.897 95.5375H133.906H135.915L135.978 90.5695L136.042 85.6014H138.633H141.223L141.287 90.5695L141.351 95.5375H143.36H145.369L145.321 88.6407L145.273 81.7439L138.638 81.6817C133.423 81.6331 131.978 81.6836 131.887 81.9185ZM148.575 81.9592C148.363 82.2112 148.31 84.0035 148.366 88.918L148.441 95.5375H150.45H152.459L152.523 90.5695L152.587 85.6014H155.177H157.768L157.831 90.5695L157.895 95.5375H159.904H161.913V88.6407V81.7439L155.386 81.6817C149.915 81.6298 148.814 81.6747 148.575 81.9592ZM109.81 85.7244C110.734 86.1971 110.836 87.2183 110.039 88.0268C109.473 88.6024 106.55 88.8717 106.221 88.3786C106.016 88.07 105.989 85.9082 106.186 85.543C106.359 85.2218 109.095 85.3585 109.81 85.7244Z" fill="white"/>
</g>
</svg>
