<svg width="270.000000" height="99.000000" viewBox="0 0 270 99" fill="none" xmlns="http://www.w3.org/2000/svg" xmlns:xlink="http://www.w3.org/1999/xlink">
	<desc>
			Created with Pixso.
	</desc>
	<defs>
		<clipPath id="clip8_3668">
			<rect id="Property 1=deneb" rx="0.000000" width="269.000000" height="98.000000" transform="translate(0.500000 0.500000)" fill="white" fill-opacity="0"/>
		</clipPath>
	</defs>
	<g opacity="0.600000">
		<g clip-path="url(#clip8_3668)">
			<path id="image 82 (Traced)" d="M157.97 15.13C147.43 16.46 138.76 23.62 135.93 33.31C135.67 34.23 135.38 35.49 135.28 36.13C134.96 38.44 134.96 38.42 134.75 37.24C134.34 34.92 133.19 32.29 131.75 30.4C130.71 29.02 128.48 27 127.01 26.1C125.53 25.19 123.86 24.5 121.84 23.96L120.41 23.57L109.96 23.53L99.51 23.48L99.62 24.61C99.85 27.14 100.56 29.45 101.75 31.49C104.42 36.1 108.98 39.1 114.63 39.96C115.24 40.05 124.36 40.1 139.77 40.1C166.23 40.1 165.49 40.12 168.97 39.25C178.26 36.93 185.53 29.82 187.82 20.82C188.15 19.54 188.57 16.61 188.57 15.61L188.57 14.97L173.74 14.99C165.59 15 158.49 15.06 157.97 15.13ZM179.49 22.14C179.49 22.38 178.2 24.49 177.44 25.48C175.15 28.5 172 30.73 168.31 31.94C165.37 32.92 165.4 32.91 154.2 32.98C148.13 33.02 144.06 32.99 144.06 32.91C144.06 32.7 145.1 30.88 145.81 29.86C146.73 28.52 148.89 26.44 150.47 25.39C152.79 23.83 155.76 22.68 158.26 22.35C158.94 22.26 159.67 22.17 159.87 22.14C160.53 22.05 179.49 22.05 179.49 22.14ZM83.55 34.33C83.25 34.41 82.81 34.56 82.58 34.68C81.97 34.99 81.03 36.1 80.84 36.75C80.72 37.12 80.66 38.59 80.66 40.97C80.66 44.37 80.65 44.61 80.41 44.54C80.27 44.49 79.67 44.29 79.09 44.08C74.18 42.34 68.46 43.7 64.76 47.49C63.28 49.01 62.25 50.77 61.6 52.86C61.29 53.86 61.27 54.16 61.22 61.41C61.18 66.85 61.22 69.2 61.34 69.92C62.22 74.92 65.89 78.81 71.09 80.28C72.07 80.56 72.6 80.61 74.59 80.62C76.58 80.62 77.11 80.57 78.16 80.29C82.41 79.14 85.77 76.24 87.26 72.42C88.16 70.11 88.14 70.64 88.1 52.89C88.06 37.74 88.04 36.68 87.8 36.24C86.99 34.78 85.13 33.95 83.55 34.33ZM184.98 34.27C184.06 34.5 183.62 34.71 183.03 35.25C181.74 36.42 181.84 34.9 181.84 53.05C181.83 66.32 181.87 69.3 182.04 70.18C182.81 74.18 185.67 77.73 189.5 79.47C191.56 80.4 192.62 80.61 195.23 80.61C197.98 80.62 199.21 80.36 201.38 79.32C204.75 77.71 207.02 75.11 208.28 71.45L208.7 70.22L208.7 62.13C208.7 54.1 208.7 54.03 208.36 52.89C208.17 52.25 207.68 51.08 207.26 50.29C206.61 49.05 206.28 48.62 204.96 47.32C203.71 46.08 203.18 45.67 202.04 45.06C199.7 43.82 197.87 43.37 195.23 43.37C193.36 43.38 191.67 43.69 190.27 44.28C189.89 44.45 189.51 44.58 189.43 44.58C189.35 44.58 189.3 43.06 189.3 40.95C189.3 38.56 189.24 37.12 189.12 36.75C188.9 36 187.84 34.85 187.14 34.57C186.5 34.32 185.41 34.17 184.98 34.27ZM204.69 34.39C203.77 34.68 202.95 35.52 202.68 36.46C202.31 37.71 202.77 38.93 203.91 39.67C206.45 41.33 209.7 38.81 208.54 36.09C207.94 34.66 206.22 33.91 204.69 34.39ZM206.73 35.23C207.9 35.81 208.34 37.08 207.75 38.22C206.99 39.68 205.29 39.96 204.05 38.82C203.52 38.33 203.45 38.18 203.39 37.48C203.29 36.32 203.84 35.44 204.89 35.08C205.58 34.84 206.02 34.88 206.73 35.23ZM204.48 35.58C204.42 35.63 204.38 36.41 204.38 37.31C204.38 38.85 204.4 38.95 204.67 38.95C204.93 38.95 204.96 38.85 204.96 38.22C204.96 37.26 205.31 37.26 205.95 38.23C206.26 38.69 206.53 38.95 206.72 38.95C207.1 38.95 207.09 38.84 206.64 38.18L206.26 37.63L206.64 37.34C207.02 37.04 207.15 36.35 206.89 35.95C206.66 35.59 204.76 35.3 204.48 35.58ZM206.2 36.25C206.67 36.59 206.39 36.92 205.63 36.92C204.99 36.92 204.96 36.91 204.96 36.49C204.96 36.1 205.01 36.06 205.45 36.06C205.72 36.06 206.06 36.15 206.2 36.25ZM103.19 43.42C97.76 44.09 93.31 47.76 91.77 52.84C91.48 53.79 91.44 54.3 91.39 57.87L91.33 61.84L91.75 62.63C92.2 63.52 93.09 64.27 93.95 64.51C94.31 64.6 98.16 64.66 104.82 64.66C111.48 64.66 115.34 64.6 115.69 64.51C116.55 64.27 117.44 63.52 117.89 62.64L118.29 61.86L118.29 58.34C118.29 54.36 118.15 53.32 117.34 51.47C116.61 49.8 116 48.86 114.78 47.58C113.59 46.32 112.05 45.22 110.55 44.54C108.48 43.62 105.4 43.15 103.19 43.42ZM132.86 43.5C129.84 43.98 127.55 45.13 125.38 47.25C123.84 48.76 123.17 49.75 122.37 51.68C121.51 53.76 121.51 53.76 121.51 66.35L121.52 77.87L121.86 78.6C122.51 79.94 123.71 80.68 125.25 80.68C126.7 80.68 127.91 79.98 128.59 78.74C128.9 78.17 128.91 78.1 128.98 66.54L129.05 54.91L129.52 53.94C130.16 52.59 131 51.76 132.33 51.11C133.4 50.6 133.5 50.57 134.98 50.57C136.4 50.57 136.59 50.61 137.5 51.03C138.86 51.67 139.71 52.49 140.36 53.8L140.91 54.89L140.98 66.53C141.06 79.33 141 78.41 141.96 79.54C142.91 80.65 144.88 81.02 146.34 80.35C147.23 79.94 148.06 79.02 148.29 78.19C148.42 77.75 148.45 74.44 148.42 65.74C148.37 53.98 148.37 53.89 148.05 52.86C146.63 48.31 143.07 44.94 138.44 43.79C136.64 43.34 134.56 43.23 132.86 43.5ZM163.51 43.42C157.69 44.14 153.08 48.25 151.89 53.77C151.74 54.48 151.68 55.77 151.67 58.31L151.67 61.86L152.07 62.64C152.52 63.52 153.41 64.27 154.27 64.51C154.63 64.6 158.48 64.66 165.14 64.66C171.8 64.66 175.66 64.6 176.01 64.51C176.87 64.27 177.76 63.52 178.22 62.63L178.63 61.84L178.57 57.87C178.52 54.27 178.48 53.79 178.19 52.81C177.14 49.36 174.49 46.28 171.2 44.71C169 43.66 165.87 43.13 163.51 43.42ZM77.33 51.13C78.64 51.75 79.48 52.59 80.13 53.94L80.59 54.91L80.64 61.55C80.67 66.27 80.64 68.43 80.51 68.99C80.01 71.28 78.09 73.05 75.64 73.47C72.55 74.01 69.46 71.98 68.81 68.99C68.69 68.43 68.65 66.27 68.68 61.55L68.73 54.91L69.19 53.94C69.78 52.72 70.62 51.82 71.71 51.25C72.88 50.63 73.49 50.5 74.97 50.56C76.06 50.6 76.38 50.68 77.33 51.13ZM107.36 51.07C107.91 51.33 108.59 51.74 108.88 51.99C110.12 53.07 110.88 54.89 110.79 56.6L110.75 57.51L104.82 57.51L98.89 57.51L98.85 56.6C98.73 54.25 99.97 52.18 102.1 51.15C103.26 50.59 103.69 50.51 105.12 50.56C106.18 50.6 106.54 50.68 107.36 51.07ZM167.81 51.13C169.82 52.08 171 53.85 171.12 56.11C171.17 57.04 171.14 57.35 170.98 57.45C170.87 57.52 168.24 57.58 165.14 57.58C162.04 57.58 159.41 57.52 159.3 57.45C159.15 57.35 159.12 57.04 159.16 56.11C159.22 55.14 159.32 54.7 159.69 53.93C160.44 52.35 161.99 51.06 163.64 50.65C163.94 50.57 164.76 50.53 165.45 50.56C166.54 50.6 166.86 50.68 167.81 51.13ZM197.99 51.13C199.26 51.75 200.19 52.67 200.82 53.94L201.23 54.76L201.23 61.99L201.23 69.21L200.78 70.15C199.95 71.87 198.28 73.12 196.33 73.47C193.4 73.99 190.44 72.22 189.58 69.41C189.3 68.51 189.29 68.12 189.33 61.68L189.37 54.91L189.84 53.93C190.6 52.34 192.15 51.06 193.8 50.65C194.1 50.58 194.92 50.53 195.62 50.55C196.74 50.59 197.01 50.65 197.99 51.13ZM94.64 68.09C93.13 68.61 92.24 69.71 92.12 71.22C92.04 72.16 92.44 73.23 93.43 74.72C98.06 81.73 108.47 82.76 114.5 76.81C115.62 75.7 116.82 73.96 117.27 72.78C117.87 71.21 117.38 69.52 116.06 68.62C114 67.22 111.62 67.84 110.32 70.12C109.2 72.08 107.78 73.13 105.79 73.48C103.17 73.93 100.64 72.59 99.25 70.02C98.68 68.96 97.97 68.37 96.86 68.05C95.93 67.78 95.55 67.78 94.64 68.09ZM155.26 67.96C154.51 68.15 153.95 68.51 153.32 69.18C151.99 70.61 152.11 72.25 153.73 74.7C155.67 77.63 158.8 79.71 162.36 80.43C164.16 80.8 166.97 80.73 168.73 80.27C170.23 79.88 172.26 78.89 173.54 77.93C175.6 76.39 177.68 73.41 177.84 71.78C177.94 70.76 177.66 69.93 176.96 69.18C176.08 68.24 175.38 67.93 174.14 67.92C172.8 67.91 171.73 68.46 171.07 69.48C169.75 71.53 169.4 71.96 168.76 72.4C167.59 73.19 166.56 73.51 165.14 73.51C163.73 73.51 162.69 73.19 161.52 72.4C160.88 71.96 160.46 71.43 159.21 69.47C158.48 68.31 156.63 67.61 155.26 67.96Z" fill="#FFFFFF" fill-opacity="1.000000" fill-rule="evenodd"/>
		</g>
	</g>
</svg>
