<svg width="270" height="99" viewBox="0 0 270 99" fill="none" xmlns="http://www.w3.org/2000/svg">
<g opacity="0.6">
<path fill-rule="evenodd" clip-rule="evenodd" d="M157.972 15.132C147.436 16.4689 138.763 23.6281 135.939 33.3186C135.672 34.2322 135.381 35.4997 135.29 36.1352C134.963 38.4398 134.968 38.4285 134.758 37.2442C134.348 34.9281 133.192 32.2945 131.756 30.4016C130.71 29.0244 128.48 27.0048 127.014 26.1064C125.532 25.1989 123.862 24.5057 121.843 23.9604L120.418 23.5758L109.969 23.5298L99.5194 23.4839L99.6216 24.6097C99.8516 27.1432 100.565 29.4518 101.75 31.4949C104.424 36.1052 108.985 39.102 114.635 39.9606C115.241 40.0526 124.367 40.1056 139.773 40.1062C166.234 40.1075 165.493 40.129 168.974 39.2579C178.266 36.9322 185.531 29.8285 187.825 20.8245C188.151 19.5424 188.571 16.6127 188.571 15.6172V14.9746L173.747 14.993C165.594 15.0031 158.495 15.0656 157.972 15.132ZM179.494 22.1428C179.494 22.3846 178.202 24.4976 177.449 25.4872C175.153 28.5035 172.004 30.7321 168.316 31.9487C165.37 32.9207 165.409 32.9179 154.202 32.9845C148.132 33.0206 144.063 32.9919 144.063 32.9129C144.063 32.7065 145.106 30.8881 145.812 29.8626C146.734 28.5239 148.9 26.4486 150.475 25.3941C152.799 23.8384 155.763 22.6824 158.265 22.356C158.949 22.2667 159.674 22.1707 159.875 22.1426C160.539 22.0501 179.494 22.0502 179.494 22.1428ZM83.5552 34.3375C83.2505 34.4113 82.8133 34.5675 82.5836 34.6847C81.9705 34.9975 81.0383 36.1059 80.8405 36.7573C80.7282 37.1269 80.6683 38.5937 80.6683 40.9715C80.6683 44.3786 80.6515 44.6136 80.4121 44.5405C80.2711 44.4975 79.6786 44.2928 79.0954 44.0857C74.1872 42.3427 68.4662 43.7042 64.7666 47.4956C63.288 49.0108 62.2495 50.7723 61.6034 52.8608C61.293 53.8645 61.2796 54.1687 61.2267 61.4124C61.1869 66.8515 61.2206 69.1999 61.3487 69.9263C62.2293 74.9207 65.8941 78.8178 71.0939 80.2897C72.0757 80.5676 72.6025 80.6173 74.5923 80.6199C76.5897 80.6226 77.1169 80.5739 78.1695 80.2902C82.41 79.147 85.7712 76.2397 87.2624 72.425C88.1667 70.1115 88.1439 70.6427 88.101 52.8901C88.0644 37.7402 88.0455 36.6834 87.8032 36.246C86.9961 34.7889 85.1384 33.9543 83.5552 34.3375ZM184.984 34.2783C184.061 34.4997 183.624 34.718 183.035 35.2515C181.742 36.4228 181.843 34.9057 181.84 53.0582C181.837 66.3209 181.872 69.3006 182.044 70.184C182.82 74.1849 185.67 77.7329 189.505 79.4703C191.559 80.4012 192.628 80.6155 195.233 80.6194C197.986 80.6236 199.212 80.3664 201.382 79.3288C204.753 77.7172 207.029 75.1185 208.283 71.451L208.702 70.2233V62.1346C208.702 54.1077 208.7 54.0371 208.363 52.8904C208.177 52.2548 207.683 51.0849 207.265 50.2904C206.617 49.0559 206.283 48.6252 204.969 47.3259C203.71 46.0811 203.18 45.6719 202.041 45.066C199.709 43.8257 197.876 43.3717 195.233 43.3797C193.368 43.3853 191.672 43.6954 190.279 44.2853C189.89 44.4501 189.511 44.585 189.438 44.585C189.36 44.585 189.303 43.0599 189.303 40.9546C189.303 38.5677 189.244 37.128 189.129 36.7511C188.904 36.0096 187.849 34.8559 187.139 34.576C186.504 34.3252 185.416 34.1749 184.984 34.2783ZM204.692 34.3969C203.776 34.6866 202.958 35.5274 202.682 36.4619C202.312 37.7176 202.778 38.9299 203.916 39.6737C206.451 41.3302 209.702 38.8197 208.549 36.0965C207.945 34.6693 206.225 33.9118 204.692 34.3969ZM206.731 35.2325C207.906 35.8177 208.341 37.0878 207.755 38.2217C206.996 39.6889 205.294 39.9643 204.052 38.8211C203.527 38.3384 203.452 38.1854 203.393 37.4821C203.296 36.3249 203.848 35.4431 204.896 35.0817C205.583 34.8449 206.026 34.8813 206.731 35.2325ZM204.481 35.5816C204.427 35.6344 204.383 36.4144 204.383 37.3149C204.383 38.8555 204.401 38.9518 204.676 38.9518C204.93 38.9518 204.969 38.8555 204.969 38.2296C204.969 37.2603 205.315 37.2611 205.958 38.2322C206.266 38.6972 206.539 38.9518 206.727 38.9518C207.107 38.9518 207.095 38.841 206.642 38.1835L206.266 37.6373L206.642 37.3452C207.026 37.0476 207.153 36.3506 206.896 35.9521C206.666 35.5946 204.764 35.3027 204.481 35.5816ZM206.209 36.2587C206.677 36.5963 206.391 36.9296 205.632 36.9296C204.993 36.9296 204.969 36.914 204.969 36.4963C204.969 36.1021 205.013 36.063 205.453 36.063C205.72 36.063 206.06 36.1511 206.209 36.2587ZM103.197 43.4276C97.7644 44.0939 93.3168 47.7603 91.774 52.844C91.4855 53.7947 91.4473 54.3026 91.3958 57.8736L91.3385 61.8457L91.7499 62.6391C92.2078 63.5222 93.0959 64.2749 93.9585 64.5112C94.3105 64.6077 98.1644 64.6607 104.826 64.6607C111.487 64.6607 115.341 64.6077 115.693 64.5112C116.554 64.2752 117.444 63.5221 117.893 62.6494L118.295 61.8661V58.3472C118.295 54.3673 118.151 53.3269 117.345 51.4721C116.619 49.7998 116.004 48.8645 114.788 47.5825C113.595 46.3242 112.054 45.2211 110.553 44.5493C108.489 43.6265 105.408 43.1565 103.197 43.4276ZM132.863 43.5034C129.847 43.9808 127.558 45.13 125.385 47.2572C123.846 48.7637 123.172 49.7557 122.375 51.6857C121.516 53.7696 121.516 53.7638 121.518 66.3534L121.519 77.8787L121.865 78.6009C122.51 79.9472 123.713 80.6889 125.25 80.6889C126.706 80.6889 127.915 79.9862 128.594 78.7453C128.908 78.1704 128.91 78.1096 128.983 66.54L129.056 54.9125L129.52 53.9477C130.168 52.5967 131.001 51.7598 132.338 51.1148C133.404 50.6007 133.51 50.5793 134.986 50.5793C136.408 50.5793 136.596 50.6135 137.501 51.0365C138.862 51.6724 139.71 52.4914 140.369 53.8058L140.915 54.8971L140.989 66.5324C141.069 79.3358 141 78.4106 141.966 79.5431C142.917 80.659 144.882 81.0224 146.341 80.3524C147.233 79.9424 148.066 79.0255 148.298 78.1976C148.424 77.7514 148.457 74.4398 148.422 65.7456C148.376 53.9884 148.373 53.8938 148.051 52.8608C146.631 48.3103 143.071 44.9494 138.445 43.7916C136.641 43.3402 134.569 43.2333 132.863 43.5034ZM163.517 43.4276C157.695 44.1416 153.081 48.2499 151.895 53.7759C151.742 54.488 151.681 55.7701 151.679 58.3172L151.676 61.8661L152.079 62.6494C152.528 63.5221 153.417 64.2752 154.279 64.5112C154.631 64.6077 158.485 64.6607 165.146 64.6607C171.807 64.6607 175.661 64.6077 176.013 64.5112C176.876 64.2749 177.764 63.5222 178.222 62.6391L178.633 61.8457L178.576 57.8736C178.524 54.2776 178.488 53.7989 178.191 52.8181C177.145 49.3612 174.496 46.2886 171.203 44.7133C169.002 43.6603 165.879 43.1379 163.517 43.4276ZM77.3305 51.1317C78.6492 51.7574 79.4821 52.5947 80.1317 53.9477L80.5951 54.9125L80.6427 61.5568C80.6763 66.2738 80.6402 68.4315 80.5176 68.9955C80.0197 71.2887 78.0979 73.0577 75.6474 73.4786C72.5532 74.0102 69.4621 71.9824 68.8135 68.9955C68.6909 68.4315 68.6548 66.2738 68.6884 61.5568L68.736 54.9125L69.1994 53.9477C69.7877 52.7225 70.6253 51.8257 71.7178 51.2513C72.8839 50.6381 73.4944 50.5095 74.9756 50.5654C76.0674 50.6066 76.385 50.683 77.3305 51.1317ZM107.369 51.0762C107.911 51.3313 108.593 51.7464 108.884 51.9986C110.126 53.0728 110.881 54.891 110.799 56.6045L110.755 57.5125H104.826H98.8961L98.8524 56.6045C98.7393 54.2558 99.9763 52.1841 102.106 51.1564C103.265 50.5969 103.7 50.5119 105.129 50.5653C106.181 50.6047 106.544 50.6876 107.369 51.0762ZM167.811 51.1317C169.828 52.0889 171.002 53.8555 171.122 56.1136C171.172 57.0426 171.14 57.3572 170.985 57.454C170.874 57.5235 168.246 57.5802 165.146 57.5802C162.046 57.5802 159.418 57.5235 159.307 57.454C159.152 57.3572 159.12 57.0426 159.169 56.1136C159.221 55.1412 159.325 54.7069 159.693 53.9324C160.443 52.3512 161.992 51.0667 163.645 50.6547C163.947 50.5795 164.762 50.5393 165.456 50.5654C166.548 50.6066 166.865 50.683 167.811 51.1317ZM197.99 51.1311C199.261 51.7507 200.195 52.6779 200.826 53.9459L201.236 54.7681V61.9902V69.2122L200.784 70.1515C199.954 71.8793 198.288 73.1231 196.334 73.4726C193.404 73.9968 190.445 72.22 189.583 69.4189C189.304 68.514 189.292 68.1251 189.333 61.6893L189.377 54.9125L189.844 53.9389C190.608 52.347 192.157 51.0632 193.805 50.6559C194.107 50.581 194.925 50.5367 195.622 50.5574C196.749 50.5907 197.013 50.6546 197.99 51.1311ZM94.6491 68.0996C93.1317 68.6172 92.2447 69.7144 92.1209 71.2266C92.0441 72.166 92.4444 73.2337 93.4339 74.7294C98.0682 81.7331 108.472 82.7606 114.504 76.8102C115.629 75.6999 116.826 73.961 117.276 72.7809C117.875 71.21 117.384 69.5222 116.069 68.6275C114.005 67.2244 111.627 67.8459 110.323 70.1291C109.204 72.088 107.785 73.139 105.797 73.4804C103.175 73.9309 100.644 72.592 99.2572 70.0205C98.6875 68.9646 97.9768 68.3798 96.8691 68.0552C95.9366 67.7821 95.5577 67.7896 94.6491 68.0996ZM155.263 67.9673C154.517 68.1597 153.955 68.5134 153.327 69.1861C151.993 70.6133 152.115 72.2518 153.735 74.7007C155.674 77.6312 158.803 79.7121 162.363 80.439C164.168 80.8076 166.975 80.7348 168.733 80.2738C170.233 79.8802 172.264 78.8926 173.545 77.9333C175.6 76.3941 177.688 73.412 177.846 71.788C177.945 70.7645 177.665 69.9351 176.966 69.1869C176.082 68.2408 175.389 67.9307 174.146 67.9249C172.804 67.9189 171.735 68.4611 171.075 69.4825C169.752 71.5325 169.409 71.966 168.767 72.4026C167.597 73.1978 166.56 73.517 165.146 73.517C163.731 73.517 162.694 73.1978 161.525 72.4026C160.88 71.9642 160.462 71.434 159.216 69.4708C158.482 68.3135 156.639 67.6124 155.263 67.9673Z" fill="white"/>
</g>
</svg>
