<svg width="270.000000" height="99.000000" viewBox="0 0 270 99" fill="none" xmlns="http://www.w3.org/2000/svg" xmlns:xlink="http://www.w3.org/1999/xlink">
	<desc>
			Created with Pixso.
	</desc>
	<defs>
		<clipPath id="clip8_3664">
			<rect id="Property 1=metalfraks" rx="0.000000" width="269.000000" height="98.000000" transform="translate(0.500000 0.500000)" fill="white" fill-opacity="0"/>
		</clipPath>
	</defs>
	<g opacity="0.600000">
		<g clip-path="url(#clip8_3664)">
			<path id="image 80 (Traced)" d="M54.84 3.52C54.11 3.82 53.46 4.64 52.24 6.81C48.48 13.45 42.02 19.82 35.25 23.54C34.1 24.17 32.91 24.99 32.61 25.34C30.89 27.36 32.32 30.42 34.96 30.42C36.41 30.42 37.29 29.75 38.43 27.81C43.13 19.76 48.87 14.09 56.86 9.62C58.47 8.72 59.18 7.9 59.37 6.72C59.54 5.69 58.88 4.31 57.93 3.74C57.18 3.29 55.68 3.18 54.84 3.52ZM66.4 4.44C65.37 5.07 64.46 6.23 63.15 8.64C61.03 12.51 57.75 16.45 51.42 22.71C45.04 29.01 41.07 32.25 37.16 34.31C34.49 35.73 33.12 36.97 32.76 38.31C32.02 41.03 34.3 43.43 37.18 42.96C38.77 42.71 39.54 41.83 42.27 37.16C43.94 34.3 47.21 30.38 51.89 25.66C58.51 18.97 62.9 15.31 67.37 12.77C68.67 12.03 70.02 11.23 70.36 10.99C72.05 9.81 72.54 7.19 71.38 5.63C70.21 4.06 67.93 3.52 66.4 4.44ZM45.71 5.15C45.4 5.39 44.56 6.57 43.84 7.77C42.16 10.61 39.45 13.35 36.91 14.77C34.1 16.35 33.45 16.96 33.45 18.03C33.45 18.75 33.6 19.05 34.2 19.55C35.45 20.59 36.78 20.06 37.76 18.15C39.69 14.41 42.78 11.31 46.65 9.25C48.91 8.05 49.43 6.68 48.12 5.39C47.32 4.6 46.52 4.52 45.71 5.15ZM77.28 8.18C76.01 8.76 74.95 10.03 73.42 12.81C67.6 23.37 52.01 38.78 41.37 44.47C37.53 46.53 36 48.49 36.44 50.8C37.03 53.86 40.42 55.55 43.15 54.15C44.19 53.61 45.36 52.14 46.86 49.44C50.79 42.37 58.79 33.34 68.08 25.49C72.39 21.84 74.82 20.12 78.79 17.93C81.7 16.33 82.77 15.44 83.35 14.18C85.09 10.38 81.12 6.46 77.28 8.18ZM81.75 19.88C80.82 20.44 80.14 21.35 78.69 23.95C76.4 28.06 72.36 32.84 65.8 39.19C59.93 44.88 56.31 47.74 52.06 50.04C51.05 50.58 49.87 51.37 49.43 51.78C47.39 53.68 47.89 56.96 50.38 58.05C52.71 59.07 54.79 57.92 56.51 54.67C58.72 50.48 62.54 45.8 68.78 39.66C74.94 33.58 79.31 30.05 83.42 27.84C86.58 26.13 87.58 24.97 87.58 22.98C87.58 21.9 86.85 20.73 85.7 19.96C84.68 19.28 82.82 19.24 81.75 19.88ZM83.89 32.27C82.89 32.72 82.72 32.93 80.44 36.73C76.88 42.67 70.48 48.83 64.53 52.05C61.64 53.61 60.87 54.44 60.87 56.02C60.87 58.37 63.29 59.88 65.36 58.83C66.19 58.4 66.82 57.58 68.31 54.97C71.54 49.33 78.64 42.29 84.03 39.37C87.44 37.53 88.28 36.67 88.28 35.03C88.29 32.71 86.04 31.29 83.89 32.27ZM83.62 42.7C83.34 42.9 82.5 44.08 81.76 45.33C80.04 48.25 77.16 51.12 74.45 52.61C73.41 53.18 72.33 53.85 72.05 54.1C71.34 54.73 71.16 55.71 71.6 56.56C72.01 57.35 72.39 57.54 73.51 57.54C74.44 57.54 75.02 56.94 76.3 54.7C78.09 51.55 80.83 48.88 84.08 47.11C86.16 45.98 86.68 45.42 86.68 44.3C86.68 42.73 84.91 41.81 83.62 42.7ZM231.36 59.19C229.54 59.54 227.99 60.37 226.92 61.55C225.56 63.05 225.04 64.58 225.19 66.64C225.38 69.34 226.6 71.1 229.1 72.32C230.6 73.05 230.82 73.09 233.28 73.09C235.24 73.09 236.16 72.98 237.01 72.66L238.13 72.23L238.13 70.15C238.13 69 238.1 68.06 238.05 68.06C238.01 68.06 237.34 68.28 236.57 68.54C234.36 69.29 232.75 69.38 231.44 68.81C228.83 67.67 228.73 64.64 231.27 63.51C232.57 62.93 235 63.11 236.8 63.92L238.13 64.53L238.13 62.35L238.13 60.18L237.13 59.8C234.91 58.98 233.3 58.81 231.36 59.19ZM90.93 60.41C90.78 61.08 90.13 64.05 89.48 67.01C88.82 69.97 88.29 72.52 88.29 72.68C88.29 72.89 88.86 72.97 90.39 72.97L92.5 72.97L92.74 71.86C92.87 71.25 93.32 68.96 93.74 66.78C94.32 63.77 94.55 62.94 94.69 63.39C94.79 63.71 95.15 65.86 95.49 68.18C95.82 70.49 96.15 72.52 96.2 72.68C96.28 72.9 97.33 72.97 100.34 72.97C103.36 72.97 104.39 72.9 104.46 72.68C104.51 72.52 104.83 70.49 105.18 68.18C105.53 65.86 105.89 63.71 105.99 63.39C106.12 62.97 106.37 63.88 106.93 66.78C107.35 68.97 107.81 71.25 107.94 71.86L108.18 72.97L110.4 72.97C111.63 72.97 112.63 72.89 112.63 72.8C112.63 72.7 112.25 70.88 111.79 68.76C110.82 64.28 109.79 59.38 109.79 59.26C109.79 59.22 108.17 59.18 106.18 59.18L102.56 59.18L101.66 63.91C101.16 66.52 100.68 68.91 100.59 69.22C100.41 69.83 100.36 69.6 99.02 62.51L98.4 59.18L94.79 59.18L91.19 59.18L90.93 60.41ZM114.99 66.07L114.99 72.97L120.9 72.97L126.81 72.97L126.81 71.22L126.81 69.46L122.91 69.46L119.01 69.46L119.01 68.65L119.01 67.83L122.79 67.83L126.57 67.83L126.57 66.07L126.57 64.32L122.79 64.32L119.01 64.32L119.01 63.63L119.01 62.93L122.85 62.87L126.69 62.8L126.69 61.05L126.69 59.29L120.84 59.23L114.99 59.17L114.99 66.07ZM127.99 61.16L127.99 63.15L130.23 63.15L132.47 63.15L132.54 68L132.6 72.85L134.67 72.92L136.74 72.99L136.74 68.07L136.74 63.15L138.98 63.15L141.23 63.15L141.23 61.16L141.23 59.18L134.61 59.18L127.99 59.18L127.99 61.16ZM145.25 59.7C144.64 61.14 140.28 72.59 140.28 72.77C140.28 72.88 141.22 72.97 142.36 72.97L144.44 72.97L144.87 71.8L145.29 70.63L148.32 70.63L151.35 70.63L151.75 71.8L152.14 72.97L154.36 72.97C155.59 72.97 156.59 72.9 156.59 72.81C156.59 72.73 156.34 72.02 156.03 71.24C155.72 70.45 154.53 67.42 153.39 64.5L151.32 59.18L148.39 59.18C145.59 59.18 145.46 59.2 145.25 59.7ZM165.1 60L165.1 60.81L163.15 60.82C161.61 60.82 160.95 60.93 160.02 61.36C156.91 62.79 156.15 67.27 158.57 69.9C159.53 70.94 160.82 71.41 163.03 71.52L165.1 71.63L165.1 72.3L165.1 72.97L167.23 72.97L169.35 72.97L169.35 72.3L169.35 71.63L171.42 71.52C175.31 71.33 177.23 69.53 177.23 66.07C177.23 64.46 176.8 63.32 175.83 62.37C174.7 61.26 173.87 60.96 171.6 60.82L169.47 60.7L169.4 59.94L169.32 59.18L167.21 59.18L165.1 59.18L165.1 60ZM179.28 66.06L179.28 72.97L181.29 72.97L183.3 72.97L183.3 71.33L183.3 69.7L185.18 69.7C188.73 69.7 190.53 68.9 191.58 66.88C192.55 65 192.07 61.99 190.59 60.67C189.19 59.41 188.68 59.3 183.83 59.22L179.28 59.14L179.28 66.06ZM197.58 59.99C197.39 60.44 196.48 62.78 195.56 65.19C194.64 67.61 193.63 70.24 193.32 71.05C193.01 71.85 192.75 72.62 192.75 72.74C192.75 72.87 193.64 72.97 194.83 72.97L196.91 72.97L197.34 71.8L197.76 70.63L200.76 70.63L203.75 70.63L204.17 71.8L204.59 72.97L206.83 72.97C208.06 72.97 209.06 72.93 209.06 72.89C209.06 72.81 208.14 70.42 205.96 64.79C205.44 63.44 204.74 61.62 204.41 60.76L203.81 59.18L200.87 59.18L197.93 59.18L197.58 59.99ZM210.72 66.07L210.72 72.99L212.78 72.92L214.85 72.85L214.91 70.63C215.03 66.64 214.77 66.7 217.53 70.03L219.97 72.97L222.55 72.97C223.97 72.97 225.13 72.91 225.13 72.83C225.13 72.75 223.87 71.14 222.32 69.25L219.51 65.81L220.36 64.77C220.82 64.2 221.98 62.82 222.93 61.7C223.88 60.58 224.66 59.55 224.66 59.42C224.66 59.27 223.77 59.18 222.34 59.18L220.02 59.18L217.56 62.2C216.2 63.86 215.06 65.19 215.02 65.15C214.97 65.1 214.92 63.77 214.9 62.18L214.85 59.29L212.78 59.23L210.72 59.16L210.72 66.07ZM149.25 64.83C149.65 65.94 149.97 66.92 149.97 66.99C149.97 67.07 149.23 67.13 148.32 67.13C147.41 67.13 146.66 67.05 146.66 66.95C146.66 66.46 148.22 62.49 148.36 62.64C148.45 62.73 148.85 63.71 149.25 64.83ZM201.62 64.67C201.98 65.7 202.33 66.67 202.39 66.83C202.47 67.05 202.06 67.13 200.81 67.13C199.89 67.13 199.13 67.05 199.13 66.95C199.12 66.49 200.67 62.48 200.8 62.63C200.88 62.72 201.25 63.64 201.62 64.67ZM187.32 63.39C187.58 63.64 187.79 64.12 187.79 64.44C187.79 65.54 187.05 65.96 185.07 65.96L183.3 65.96L183.3 64.44L183.3 62.92L185.07 62.92C186.53 62.92 186.93 63 187.32 63.39ZM165.1 66.07L165.1 67.83L163.94 67.83C162.43 67.83 162.08 67.68 161.65 66.86C160.96 65.53 162.12 64.33 164.1 64.32L165.1 64.32L165.1 66.07ZM172.42 64.9C173.07 65.49 173.05 66.73 172.38 67.35C172 67.71 171.55 67.83 170.61 67.83L169.35 67.83L169.35 66.05L169.35 64.26L170.65 64.37C171.45 64.43 172.13 64.64 172.42 64.9ZM89.1 81.91C89.04 82.08 89.01 85.21 89.05 88.87L89.11 95.53L91.12 95.53L93.13 95.53L93.19 90.56L93.26 85.6L96.93 85.6L100.6 85.6L100.53 83.67L100.46 81.74L94.84 81.68C90.44 81.63 89.19 81.68 89.1 81.91ZM101.99 88.62L101.99 95.67L104.06 95.6L106.13 95.53L106.13 93.9L106.13 92.26L108.73 92.14C111.89 92 113.04 91.49 114.12 89.76C115.37 87.77 114.98 84.65 113.3 83.09C112.08 81.97 111.14 81.77 106.43 81.67L101.99 81.57L101.99 88.62ZM115.23 81.91C115.23 82.07 115.79 83.05 116.47 84.08C119.12 88.07 120.67 90.54 120.67 90.78C120.67 91.05 119.18 93.57 118.5 94.45C117.66 95.54 117.86 95.67 120.25 95.6L122.43 95.53L125.68 90.39C127.47 87.56 129.41 84.51 129.98 83.62C130.56 82.73 130.98 81.91 130.92 81.81C130.77 81.57 127.02 81.57 126.68 81.8C126.55 81.89 125.75 83.05 124.91 84.37C124.07 85.69 123.33 86.76 123.27 86.76C123.2 86.76 122.4 85.63 121.49 84.25L119.84 81.74L117.53 81.67C115.78 81.62 115.23 81.68 115.23 81.91ZM131.88 81.91C131.82 82.08 131.79 85.21 131.83 88.87L131.89 95.53L133.9 95.53L135.91 95.53L135.97 90.56L136.04 85.6L138.63 85.6L141.22 85.6L141.28 90.56L141.35 95.53L143.35 95.53L145.36 95.53L145.32 88.64L145.27 81.74L138.63 81.68C133.42 81.63 131.97 81.68 131.88 81.91ZM148.57 81.95C148.36 82.21 148.31 84 148.36 88.91L148.44 95.53L150.45 95.53L152.45 95.53L152.52 90.56L152.58 85.6L155.17 85.6L157.76 85.6L157.83 90.56L157.89 95.53L159.9 95.53L161.91 95.53L161.91 88.64L161.91 81.74L155.38 81.68C149.91 81.62 148.81 81.67 148.57 81.95ZM109.81 85.72C110.73 86.19 110.83 87.21 110.03 88.02C109.47 88.6 106.55 88.87 106.22 88.37C106.01 88.06 105.98 85.9 106.18 85.54C106.35 85.22 109.09 85.35 109.81 85.72Z" fill="#FFFFFF" fill-opacity="1.000000" fill-rule="evenodd"/>
		</g>
	</g>
</svg>
