<svg width="305" height="307" viewBox="0 0 305 307" fill="none" xmlns="http://www.w3.org/2000/svg">
<path d="M0 0.0273438V306.3H305V0.0273438H0ZM1.41259 1.43803H303.595V152.197C303.44 132.16 299.451 112.715 291.736 94.3922C284.13 76.3344 273.241 60.116 259.372 46.1888C245.503 32.2616 229.352 21.3273 211.369 13.6895C192.75 5.77904 172.974 1.7731 152.585 1.7731C132.197 1.7731 112.421 5.77904 93.8019 13.6895C75.8192 21.3273 59.6682 32.2616 45.7989 46.1888C31.9296 60.116 21.0407 76.3344 13.4347 94.3922C5.55707 113.089 1.56778 132.947 1.56778 153.421C1.56778 173.895 5.55707 193.753 13.4347 212.45C21.0407 230.507 31.9296 246.726 45.7989 260.653C59.6682 274.58 75.8192 285.515 93.8019 293.152C110.132 300.089 127.354 304.024 145.096 304.889H1.40482V1.43803H1.41259ZM300.987 153.164L274.009 180.254L259.209 165.392V111.211L300.987 153.164ZM259.209 108.857V48.4958C286.35 76.2955 301.515 112.941 301.934 151.761L259.209 108.857ZM272.923 181.345L259.209 195.117V167.574L272.923 181.345ZM301.942 154.551C301.655 193.574 286.49 230.406 259.209 258.354V197.462L301.942 154.551ZM219.603 219.285V198.289C219.673 197.182 219.712 196.083 219.728 195.015C219.743 193.815 219.697 192.599 219.603 191.407V154.231H240.419C241.692 157.053 242.685 159.843 243.36 162.532C248.677 183.605 243.826 199.933 238.82 209.917C233.9 219.737 227.877 225.504 226.79 226.501L219.603 219.285ZM225.929 228.115C223.911 230.102 221.792 232.035 219.603 233.866V221.763L225.929 228.115ZM86.1649 87.8222V108.452C86.0951 109.559 86.0563 110.657 86.0407 111.725C86.0252 112.925 86.0718 114.141 86.1649 115.334V152.509H64.9381C63.6575 149.672 62.6562 146.859 61.981 144.154C56.7189 123.135 61.6008 106.831 66.6145 96.855C71.5506 87.0506 77.5656 81.2756 78.6599 80.278L86.1649 87.8222ZM79.4592 78.6024C81.6013 76.4826 83.8599 74.4328 86.1649 72.5078V85.336L79.4592 78.6024ZM112.181 169.53V181.984C110.085 182.343 107.927 182.522 105.77 182.522C98.1017 182.522 90.6044 180.309 84.0928 176.108C82.5948 175.142 81.1512 174.058 79.793 172.897L78.8384 171.938L96.4485 154.255H112.173V166.958V166.982C112.173 167.005 112.165 167.029 112.165 167.052C112.08 167.847 112.08 168.681 112.181 169.53ZM91.7763 215.645L112.181 195.156V218.949H108.347C102.743 218.591 97.0229 217.453 91.7763 215.645ZM97.7602 218.949H88.4855L90.5733 216.853C92.8862 217.679 95.2922 218.388 97.7602 218.949ZM105.809 199.029L85.7536 178.89C91.9004 182.273 98.7847 184.058 105.762 184.058C107.92 184.058 110.077 183.886 112.181 183.535V192.638L105.809 199.029ZM151.693 66.195V94.4L135.487 78.1269L138.212 75.3915C142.263 71.8064 146.92 68.6266 151.693 66.195ZM145.74 67.8316L151.693 61.8539V64.4881C149.683 65.4701 147.688 66.5924 145.74 67.8316ZM151.693 96.5744V112.388H139.197H139.174C139.151 112.388 139.127 112.38 139.104 112.38C138.739 112.341 138.351 112.317 137.963 112.317C137.536 112.317 137.094 112.341 136.652 112.395H124.195C122.72 102.942 124.917 92.7868 130.225 84.5177C131.195 83.0136 132.274 81.5483 133.446 80.1845L134.401 79.2259L151.693 96.5744ZM151.693 143.266V151.137L146.314 145.736C146.881 145.183 147.409 144.614 147.898 144.053C148.216 143.687 148.526 143.305 148.821 142.915C149.791 143.087 150.754 143.204 151.693 143.266ZM149.846 141.512C150.575 140.406 151.196 139.268 151.693 138.107V141.707C151.08 141.66 150.459 141.598 149.846 141.512ZM149.419 168.346C150.855 171.229 151.677 174.456 151.848 177.924V177.932H143.443L136.388 170.847L138.103 169.125C138.444 168.829 138.778 168.564 139.089 168.322C141.402 166.592 144.211 165.462 147.44 164.971C148.185 166.07 148.844 167.2 149.419 168.346ZM149.155 164.768C149.838 164.714 150.544 164.683 151.243 164.683C151.444 164.683 151.646 164.683 151.848 164.69V170.146C151.538 169.289 151.173 168.447 150.777 167.644C150.288 166.662 149.745 165.696 149.155 164.768ZM145.934 184.619C146.369 184.619 146.811 184.712 147.23 184.891L146.074 186.053L144.863 184.837C144.948 184.79 145.034 184.759 145.111 184.736C145.375 184.658 145.647 184.619 145.934 184.619ZM145.709 183.083L146.066 182.725L146.439 183.099C146.276 183.083 146.12 183.076 145.957 183.076C145.872 183.076 145.787 183.083 145.709 183.083ZM147.261 192.857C146.027 193.815 144.157 194.602 142.736 194.743C142.55 194.758 142.364 194.766 142.162 194.766C140.284 194.766 138.033 193.932 136.24 192.584L141.619 187.183L147.261 192.857ZM143.769 186.014C143.776 185.99 143.784 185.959 143.792 185.936L143.916 186.061L143.753 186.224C143.745 186.154 143.753 186.092 143.769 186.014ZM142.17 196.309C142.418 196.309 142.667 196.294 142.899 196.27C143.45 196.216 144.064 196.083 144.692 195.888L142.1 198.491L139.531 195.912C140.439 196.177 141.339 196.309 142.17 196.309ZM148.86 193.885C148.231 195.46 147.626 196.745 147.207 197.587C146.563 198.881 145.818 200.167 144.995 201.414L143.179 199.59L148.86 193.885ZM148.317 191.734L145.453 188.858L148.511 185.788C148.775 186.068 148.992 186.38 149.163 186.715C150.055 188.523 149.054 190.589 148.317 191.734ZM135.138 191.516L134.409 190.783C132.212 187.9 131.382 183.785 132.111 179.475H142.814L144.972 181.642L135.138 191.516ZM109.93 143.741C109.984 144.295 110.108 144.903 110.31 145.534L107.726 142.939L110.279 140.374C109.953 141.551 109.829 142.705 109.93 143.741ZM111.567 148.986C110.644 148.589 109.728 148.16 108.851 147.716C107.594 147.077 106.344 146.344 105.133 145.534L106.631 144.03L111.567 148.986ZM111.451 143.585C111.265 141.614 112.103 139.081 113.601 137.086L118.956 142.463L113.321 148.121C112.367 146.874 111.591 145.004 111.451 143.585ZM121.284 145.705C121.331 145.791 121.362 145.877 121.385 145.947C121.579 146.625 121.525 147.365 121.23 148.067L120.081 146.913L121.284 145.705ZM120.074 144.747L119.918 144.591C119.942 144.591 119.957 144.583 119.981 144.583C120.019 144.583 120.066 144.591 120.112 144.599C120.136 144.606 120.167 144.614 120.19 144.622L120.074 144.747ZM126.803 145.62V152.439C124.831 152.431 122.751 152.228 120.632 151.815L126.803 145.62ZM123.023 146.547L123.372 146.898L123.007 147.264C123.031 147.022 123.031 146.781 123.023 146.547ZM122.48 154.263C121.711 154.606 120.951 155.011 120.206 155.471L119.003 154.263H122.48ZM125.522 154.839C126.159 154.683 126.834 154.567 127.548 154.481V162.851L121.308 156.585C122.689 155.775 124.141 155.174 125.522 154.839ZM126.803 121.467C126.345 120.361 125.933 119.246 125.569 118.139C125.126 116.791 124.754 115.373 124.466 113.923H126.803V121.467ZM126.803 125.161V126.143L114.625 113.915H122.914C123.225 115.521 123.628 117.103 124.117 118.607C124.622 120.142 125.491 122.519 126.803 125.161ZM126.803 128.629V131.412C125.763 131.24 124.715 131.155 123.675 131.155C121.936 131.155 120.291 131.388 118.762 131.848L124.389 126.198L126.803 128.629ZM123.667 132.682C124.707 132.682 125.763 132.776 126.81 132.963V143.445L124.459 145.807L114.664 135.979L115.394 135.246C118.149 133.126 121.409 132.682 123.667 132.682ZM117.287 146.298L120.33 149.353C120.05 149.618 119.74 149.836 119.406 150C118.933 150.233 118.413 150.358 117.854 150.358C116.558 150.358 115.301 149.727 114.431 149.166L117.287 146.298ZM118.91 156.351C116.713 157.972 114.889 160.045 113.709 162.251V154.263H116.829L118.91 156.351ZM119.996 157.45L127.548 165.033V168.073H113.702V167.036C114.183 163.459 116.472 159.968 119.996 157.45ZM127.556 169.616V170.138C127.4 169.951 127.237 169.78 127.059 169.616H127.556ZM126.857 171.97H125.235V170.255C125.328 170.286 125.406 170.317 125.475 170.356C126.089 170.699 126.578 171.268 126.857 171.97ZM123.706 170.271V170.442H123.489C123.527 170.395 123.574 170.349 123.636 170.31C123.659 170.294 123.683 170.286 123.706 170.271ZM121.3 169.616V177.612C119.763 177.417 117.893 176.646 116.791 175.734C115.27 174.479 114.082 172.087 113.733 169.608H121.3V169.616ZM115.828 176.934C116.255 177.285 116.775 177.628 117.357 177.932H113.709V174.308C114.299 175.368 115.029 176.272 115.828 176.934ZM120.679 179.475C119.647 179.904 118.607 180.293 117.575 180.636C116.325 181.057 115.021 181.408 113.709 181.696V179.475H120.679ZM118.048 182.094C119.523 181.603 121.812 180.745 124.373 179.475H125.289L113.709 191.103V183.255C115.192 182.951 116.651 182.561 118.048 182.094ZM122.821 177.565V173.513H127.121C127.113 173.895 127.043 174.269 126.927 174.627C126.298 176.529 124.156 177.277 122.821 177.565ZM127.804 179.475H130.567C130.148 182.203 130.311 184.977 131.033 187.393L125.475 181.813L127.804 179.475ZM130.869 177.932H129.341L131.529 175.734C131.265 176.435 131.048 177.176 130.869 177.932ZM129.077 174.931V166.569L133.609 171.12L132.6 172.133C131.529 173.107 130.35 174.043 129.077 174.931ZM143.986 160.7L140.175 164.527C140.563 163.693 140.897 162.851 141.176 161.994C141.51 160.981 141.797 159.944 142.038 158.9C142.705 159.453 143.357 160.053 143.986 160.7ZM141.2 143.087L143.932 145.83C143.427 146.266 142.907 146.687 142.372 147.093C142.1 145.682 141.712 144.341 141.2 143.087ZM140.975 156.164C139.841 155.408 138.669 154.769 137.474 154.263H141.184C141.138 154.894 141.068 155.525 140.975 156.164ZM140.687 157.855C140.439 159.11 140.113 160.349 139.725 161.518C138.708 164.581 137.016 167.442 134.696 170.021L129.077 164.379V154.348C129.41 154.333 129.744 154.325 130.07 154.325C131.009 154.325 131.91 154.387 132.748 154.512C135.487 154.917 138.157 156.04 140.687 157.855ZM135.379 172.001L141.285 177.932H132.445C132.849 176.381 133.454 174.923 134.191 173.708C134.533 173.146 134.929 172.57 135.379 172.001ZM142.542 164.667L145.189 162.009C145.616 162.508 146.035 163.023 146.439 163.56C145.08 163.81 143.769 164.184 142.542 164.667ZM145.08 159.593C144.591 159.095 144.087 158.611 143.59 158.175C143.194 157.824 142.791 157.489 142.379 157.17C142.542 156.195 142.667 155.221 142.736 154.255H150.389L145.08 159.593ZM142.822 152.509C142.837 151.714 142.814 150.943 142.767 150.194C142.736 149.742 142.698 149.283 142.635 148.815C143.466 148.223 144.273 147.591 145.034 146.929L150.583 152.501H142.822V152.509ZM145.228 144.645L141.192 140.593C142.115 141.037 143.062 141.419 144.025 141.738C145.034 142.073 146.074 142.362 147.121 142.588C146.532 143.297 145.903 143.983 145.228 144.645ZM141.27 152.509H135.712C136.683 152.166 137.622 151.761 138.522 151.309C139.422 150.849 140.315 150.342 141.184 149.797C141.254 150.678 141.285 151.589 141.27 152.509ZM137.831 149.937C134.975 151.387 131.785 152.213 128.339 152.392V144.076L135.2 137.187C136.147 138.052 137.001 138.995 137.684 139.915C139.368 142.19 140.478 144.941 140.975 148.098C139.95 148.776 138.895 149.399 137.831 149.937ZM128.65 121.584C128.844 120.033 129.604 118.147 130.505 117.033C131.747 115.497 134.114 114.297 136.566 113.946V121.584H128.65ZM136.566 127.39V127.889H136.046C136.24 127.733 136.411 127.57 136.566 127.39ZM135.938 125.551C135.907 125.645 135.875 125.73 135.837 125.8C135.503 126.416 134.936 126.907 134.246 127.195V125.559H135.938V125.551ZM135.751 124.016V123.79C135.798 123.829 135.837 123.875 135.876 123.938C135.891 123.961 135.899 123.984 135.914 124.016H135.751ZM132.709 123.119V127.46C132.329 127.453 131.964 127.382 131.607 127.266C129.721 126.627 128.976 124.468 128.696 123.127H132.709V123.119ZM129.317 116.066C128.968 116.495 128.634 117.017 128.332 117.602V113.923H131.925C130.87 114.523 129.977 115.256 129.317 116.066ZM130.598 132.441C129.876 132.16 129.115 131.918 128.339 131.731V130.173L130.598 132.441ZM132.344 135.005C132.903 135.348 133.47 135.745 134.036 136.189L128.339 141.91V133.306C129.806 133.711 131.18 134.295 132.344 135.005ZM134.944 134.21C133.563 132.815 132.251 131.201 131.04 129.424H139.71L134.944 134.21ZM138.103 127.889V113.923H139.127C142.721 114.406 146.213 116.76 148.712 120.392L141.246 127.889H138.103ZM149.551 121.717C150.319 123.065 150.893 124.483 151.212 125.839C151.367 126.478 151.483 127.164 151.569 127.889H143.412L149.551 121.717ZM150.661 120.602L151.693 119.566V122.574C151.398 121.911 151.049 121.249 150.661 120.602ZM149.799 119.293C148.177 117.025 146.089 115.139 143.862 113.923H151.693V117.391L149.799 119.293ZM123.093 98.024C122.099 102.833 121.952 107.665 122.658 112.388H113.104L107.237 106.496L127.455 86.1934C125.413 89.8953 123.954 93.87 123.093 98.024ZM123.31 125.122L114.361 134.108L114.338 134.124C114.323 134.14 114.299 134.155 114.284 134.163C113.671 134.654 113.089 135.246 112.553 135.916L103.861 144.645C96.1459 139.003 90.5346 130.258 88.4623 120.625C88.0898 118.872 87.8259 117.072 87.6862 115.279V113.923H112.149L123.31 125.122ZM92.9482 135.27C95.6336 139.385 98.9399 142.907 102.774 145.744L96.0372 152.509H87.6862V123.805C88.8659 127.866 90.6276 131.724 92.9482 135.27ZM98.2026 152.509L104.047 146.64C105.389 147.552 106.779 148.371 108.176 149.08C109.511 149.758 111.645 150.756 114.245 151.652L115.091 152.501H98.2026V152.509ZM113.709 193.628L124.397 182.896L133.276 191.812L133.291 191.836C133.306 191.859 133.322 191.875 133.338 191.89C133.827 192.506 134.416 193.098 135.092 193.628L144.118 202.692C138.522 210.439 129.876 216.074 120.361 218.155C118.622 218.536 116.837 218.801 115.06 218.942H113.709V193.628ZM134.836 213.665C138.902 210.969 142.387 207.649 145.204 203.799L151.848 210.47V218.957H123.489C127.509 217.773 131.327 215.996 134.836 213.665ZM146.105 202.521C147.028 201.149 147.859 199.723 148.573 198.281C149.333 196.753 150.443 194.306 151.398 191.337L151.848 190.885V208.288L146.105 202.521ZM151.258 185.772L144.987 179.475H151.856V180.909C151.77 182.475 151.569 184.112 151.258 185.772ZM151.848 163.132C151.638 163.124 151.429 163.124 151.227 163.124C150.606 163.124 149.985 163.147 149.38 163.186C148.984 163.21 148.581 163.249 148.169 163.295C147.572 162.461 146.943 161.651 146.291 160.903L151.848 155.323V163.132ZM151.53 133.134C151.126 135.924 149.993 138.652 148.154 141.232C146.896 140.99 145.662 140.671 144.49 140.281C141.456 139.275 138.615 137.592 136.046 135.277L141.867 129.432H151.685V129.495V131.349C151.67 131.973 151.615 132.573 151.53 133.134ZM151.693 59.6796L137.172 74.2613C136.341 74.9939 135.542 75.7421 134.781 76.4903C133.927 77.332 133.097 78.2205 132.329 79.1245L106.15 105.412L91.3882 90.589C92.5058 87.5027 93.8253 84.6658 95.2999 82.1563C106.321 63.475 121.176 55.3775 131.692 51.8704C140.074 49.0802 147.028 48.6594 150.436 48.6594C151.002 48.6594 151.429 48.675 151.693 48.6828V59.6796ZM112.708 54.341C105.537 57.2636 98.6916 60.9732 92.3429 65.3766L109.782 47.8644H135.837C127.928 49.1348 120.159 51.3093 112.708 54.341ZM87.6939 67.6991V47.8644H107.446L87.6939 67.6991ZM129.76 50.9274C123.458 53.1953 117.582 56.3907 112.258 60.4511C105.102 65.9144 98.9555 72.952 93.9883 81.3769C92.5758 83.7695 91.3029 86.4661 90.2008 89.3965L87.6862 86.8714V71.253C99.9799 61.4019 114.509 54.3877 129.76 50.9274ZM89.5488 91.2202C88.8193 93.3557 88.1984 95.5768 87.6862 97.8292V89.3575L89.5488 91.2202ZM90.7596 92.4361L110.628 112.388H87.6939V108.522C88.0354 103.098 89.091 97.5409 90.7596 92.4361ZM94.2909 154.263L77.7596 170.863L75.0509 168.143C71.4032 163.981 68.1977 159.18 65.7685 154.263H94.2909ZM67.5613 160.622L61.2282 154.263H64.061C65.0855 156.414 66.2652 158.549 67.5613 160.622ZM65.2563 96.1769C61.9888 102.677 59.8234 109.605 58.8144 116.768C57.5571 125.715 58.1315 135.059 60.4987 144.536C61.1428 147.124 62.0741 149.797 63.2616 152.509H59.4819L48.9034 141.886C50.6885 125.38 56.4395 109.426 65.5822 95.5379C65.4658 95.7483 65.3572 95.9587 65.2563 96.1769ZM57.3088 152.509H48.2825C48.3058 149.649 48.4455 146.742 48.7016 143.866L57.3088 152.509ZM49.0276 154.263H59.0551L73.9177 169.187C74.6395 170.014 75.3847 170.816 76.1298 171.58C76.9602 172.437 77.845 173.263 78.7453 174.035L104.73 200.128L89.9369 214.983C87.1273 213.907 84.5274 212.66 82.2223 211.273C63.704 200.144 55.6711 185.156 52.1941 174.542C48.7637 164.083 48.9655 155.743 49.0276 154.263ZM50.7428 175.017C53.009 181.93 56.3542 188.367 60.6927 194.15C66.11 201.367 73.0873 207.571 81.4384 212.59C83.6426 213.915 86.1029 215.115 88.7495 216.167L85.9787 218.949H71.3333C60.6539 205.622 53.3816 189.864 50.1762 173.178C50.347 173.801 50.541 174.409 50.7428 175.017ZM84.442 220.493L78.2252 226.735C76.2617 224.732 74.3679 222.628 72.5906 220.493H84.442ZM86.9488 220.493H108.284C109.379 220.563 110.465 220.602 111.529 220.617C111.668 220.617 111.808 220.617 111.948 220.617C113.003 220.617 114.066 220.578 115.099 220.493H151.84V241.481C148.914 242.837 146.027 243.873 143.249 244.583C137.21 246.11 131.172 246.889 125.297 246.889C112.382 246.889 102.238 243.125 96.0062 239.969C86.4832 235.145 80.8098 229.331 79.5369 227.943L86.9488 220.493ZM141.223 257.512C131.661 256.46 122.309 254.099 113.422 250.49C108.106 248.308 102.937 245.674 98.0241 242.626C103.721 245.198 109.72 246.936 115.89 247.801C118.933 248.23 122.061 248.448 125.196 248.448C131.227 248.448 137.436 247.653 143.644 246.079C146.307 245.401 149.062 244.427 151.856 243.18V246.851L141.223 257.512ZM151.848 249.025V258.136C148.969 258.112 146.058 257.972 143.202 257.707L151.848 249.025ZM111.288 251.589L111.404 251.636C111.792 251.799 112.188 251.963 112.576 252.127L112.708 252.181L112.817 252.228C120.462 255.346 128.456 257.559 136.613 258.806H109.115L89.4868 239.096C96.2235 244.107 103.542 248.308 111.288 251.589ZM138.281 260.466L124.529 274.276L110.776 260.466H138.281ZM140.455 260.466H152.096C152.151 260.505 152.213 260.528 152.283 260.528H194.069L152.453 302.318L125.615 275.367L140.455 260.466ZM193.308 137.195V124.437C195.28 124.125 197.298 123.961 199.316 123.961C207.03 123.961 214.574 126.198 221.132 130.43C222.63 131.396 224.089 132.487 225.448 133.656L226.402 134.615L208.637 152.454H193.301V139.751V139.728C193.308 139.704 193.308 139.673 193.308 139.65C193.409 138.886 193.402 138.052 193.308 137.195ZM213.27 90.9085L193.301 110.961V87.7832H197.158C202.591 88.1261 208.156 89.2094 213.27 90.9085ZM207.791 87.7832H216.39L214.489 89.6927C212.316 88.9445 210.073 88.3054 207.791 87.7832ZM199.339 107.446L219.456 127.647C213.27 124.234 206.332 122.434 199.316 122.434C197.298 122.434 195.272 122.589 193.301 122.886V113.51L199.339 107.446ZM159.252 121.911C158.825 121.911 158.391 121.818 157.972 121.646L159.128 120.485L160.323 121.685C160.238 121.732 160.153 121.763 160.075 121.787C159.819 121.865 159.539 121.911 159.252 121.911ZM159.477 123.439L159.128 123.79L158.763 123.423C158.919 123.439 159.074 123.447 159.229 123.447C159.314 123.447 159.4 123.447 159.477 123.439ZM157.972 113.705C159.206 112.738 161.068 111.951 162.489 111.811C162.683 111.795 162.877 111.78 163.086 111.78C164.949 111.78 167.184 112.598 168.954 113.931L163.575 119.332L157.972 113.705ZM161.425 120.509C161.418 120.532 161.41 120.563 161.402 120.587L161.286 120.47L161.441 120.314C161.449 120.376 161.441 120.438 161.425 120.509ZM163.086 110.244C162.83 110.244 162.574 110.26 162.326 110.283C161.775 110.338 161.177 110.47 160.548 110.665L163.141 108.062L165.686 110.618C164.794 110.377 163.909 110.244 163.086 110.244ZM156.629 112.442C157.095 111.312 157.591 110.205 158.127 109.145C158.779 107.844 159.532 106.542 160.37 105.28L162.07 106.987L156.629 112.442ZM156.924 114.827L159.765 117.679L156.707 120.75C156.45 120.477 156.233 120.166 156.062 119.83C155.178 118.03 156.179 115.973 156.924 114.827ZM170.048 115.006L170.77 115.731C172.966 118.622 173.781 122.925 172.966 127.266H162.582L160.207 124.881L170.048 115.006ZM195.311 162.828C195.256 162.274 195.125 161.666 194.931 161.035L197.523 163.638L194.962 166.21C195.295 165.026 195.412 163.864 195.311 162.828ZM193.697 157.614C194.744 158.05 195.769 158.518 196.747 159.017C197.911 159.601 199.059 160.264 200.169 160.981L198.609 162.547L193.697 157.614ZM193.79 162.984C193.984 164.955 193.145 167.496 191.655 169.499L186.277 164.098L191.911 158.44C192.866 159.679 193.65 161.557 193.79 162.984ZM153.625 240.623V212.247L169.963 228.652L167.239 231.388C163.148 235.004 158.445 238.192 153.625 240.623ZM159.726 238.932L153.625 245.058V242.338C155.682 241.333 157.731 240.195 159.726 238.932ZM153.625 210.073V194.345H166.183H166.206C166.23 194.353 166.261 194.353 166.284 194.353C166.656 194.392 167.037 194.415 167.433 194.415C167.859 194.415 168.31 194.392 168.752 194.337H181.17C182.668 203.822 180.502 213.993 175.217 222.254C174.255 223.758 173.168 225.223 172.004 226.595L171.049 227.554L153.625 210.073ZM153.625 163.225V155.502L159.05 160.949C158.468 161.511 157.925 162.087 157.421 162.664C157.157 162.968 156.893 163.28 156.637 163.615C155.636 163.436 154.627 163.311 153.625 163.225ZM155.597 165.018C154.813 166.163 154.153 167.356 153.625 168.564V164.784C154.277 164.846 154.937 164.924 155.597 165.018ZM170.095 136.821L170.459 136.454L176.342 142.362V152.384C176.009 152.4 175.675 152.408 175.341 152.408C174.394 152.408 173.486 152.345 172.648 152.221C169.815 151.808 167.052 150.623 164.444 148.714C164.693 147.42 165.019 146.157 165.415 144.949C166.369 142.035 167.953 139.291 170.095 136.821ZM169.738 134.443L164.119 128.801H172.609C172.206 130.243 171.624 131.599 170.925 132.737C170.584 133.298 170.18 133.875 169.738 134.443ZM167.898 152.47H163.948C163.994 151.792 164.064 151.106 164.157 150.413C165.368 151.239 166.625 151.932 167.898 152.47ZM163.956 144.474C163.614 145.51 163.319 146.578 163.086 147.646C162.419 147.077 161.767 146.461 161.138 145.814L164.918 142.019C164.553 142.822 164.227 143.64 163.956 144.474ZM162.861 159.734C163.133 161.02 163.505 162.259 163.979 163.42L161.449 160.879C161.899 160.482 162.372 160.1 162.861 159.734ZM160.339 159.773L154.813 154.224H162.326C162.318 154.933 162.341 155.626 162.388 156.289C162.427 156.866 162.489 157.45 162.566 158.019C161.798 158.572 161.045 159.165 160.339 159.773ZM159.927 144.466C159.501 143.959 159.082 143.437 158.686 142.892C160.067 142.627 161.394 142.245 162.636 141.746L159.927 144.466ZM160.044 146.913C160.603 147.498 161.185 148.051 161.759 148.558C162.077 148.838 162.403 149.103 162.753 149.384C162.582 150.42 162.458 151.457 162.395 152.478H154.51L160.044 146.913ZM160.145 162.056L164.01 165.937C163.079 165.485 162.124 165.104 161.161 164.776C160.246 164.472 159.299 164.207 158.344 163.981C158.903 163.319 159.508 162.672 160.145 162.056ZM163.886 154.224H169.699C168.729 154.567 167.774 154.972 166.874 155.424C165.904 155.915 164.941 156.46 164.018 157.045C163.925 156.125 163.878 155.182 163.886 154.224ZM167.557 156.796C170.436 155.346 173.649 154.52 177.126 154.341V162.189L170.002 169.343C169.055 168.47 168.193 167.527 167.51 166.608C165.88 164.41 164.778 161.76 164.25 158.736C165.329 158.011 166.439 157.357 167.557 156.796ZM176.816 185.149C176.622 186.7 175.853 188.586 174.945 189.7C173.688 191.235 171.305 192.436 168.837 192.786V185.149H176.816ZM168.83 179.342V178.844H169.357C169.163 179 168.993 179.163 168.83 179.342ZM169.466 181.182C169.497 181.088 169.528 181.002 169.567 180.94C169.908 180.317 170.475 179.833 171.173 179.545V181.182H169.466ZM169.652 182.717V182.943C169.606 182.904 169.559 182.857 169.52 182.795C169.505 182.772 169.497 182.748 169.481 182.717H169.652ZM172.718 183.613V179.272C173.098 179.28 173.471 179.35 173.836 179.467C175.737 180.106 176.482 182.273 176.769 183.606H172.718V183.613ZM176.133 190.666C176.482 190.238 176.824 189.708 177.126 189.123V192.81H173.502C174.565 192.21 175.473 191.477 176.133 190.666ZM174.627 174.113C175.427 174.425 176.265 174.682 177.134 174.892V176.63L174.627 174.113ZM172.873 171.533C172.314 171.19 171.748 170.785 171.173 170.341L177.126 164.363V173.31C175.566 172.905 174.099 172.289 172.873 171.533ZM170.296 172.359C171.725 173.801 173.075 175.461 174.317 177.308H165.368L170.296 172.359ZM167.293 178.844V192.81H166.261C162.644 192.327 159.004 189.864 156.505 186.209L163.839 178.844H167.293ZM155.674 184.86C154.945 183.559 154.394 182.187 154.083 180.886C153.928 180.247 153.812 179.561 153.726 178.836H161.674L155.674 184.86ZM154.557 185.983L153.625 186.918V184.213C153.897 184.813 154.207 185.406 154.557 185.983ZM155.41 187.307C157.064 189.638 159.198 191.571 161.487 192.81H153.625V189.1L155.41 187.307ZM183.933 160.84C183.886 160.755 183.855 160.669 183.832 160.591C183.63 159.913 183.692 159.165 183.987 158.463L185.144 159.625L183.933 160.84ZM185.144 161.799L185.299 161.955C185.276 161.955 185.26 161.963 185.237 161.963C185.198 161.963 185.151 161.955 185.097 161.947C185.074 161.939 185.043 161.931 185.019 161.924L185.144 161.799ZM178.663 160.646V154.302C180.518 154.309 182.458 154.489 184.445 154.839L178.663 160.646ZM182.187 159.991L181.837 159.64L182.21 159.266C182.179 159.508 182.171 159.749 182.187 159.991ZM182.963 152.47C183.723 152.135 184.476 151.738 185.221 151.278L186.409 152.47H182.963ZM179.905 151.893C179.268 152.049 178.585 152.166 177.864 152.252V143.897L184.104 150.163C182.73 150.966 181.286 151.558 179.905 151.893ZM178.663 185.554C179.067 186.544 179.439 187.549 179.765 188.539C180.215 189.911 180.596 191.345 180.891 192.818H178.663V185.554ZM181.216 188.056C180.735 186.598 179.905 184.338 178.663 181.805V180.652L190.771 192.81H182.451C182.14 191.181 181.721 189.583 181.216 188.056ZM178.663 178.173V175.188C179.641 175.336 180.619 175.414 181.589 175.414C183.312 175.414 184.957 175.181 186.479 174.721L180.852 180.371L178.663 178.173ZM181.604 173.887C180.627 173.887 179.641 173.801 178.663 173.637V162.82L180.743 160.731L190.576 170.606L189.847 171.338C187.107 173.443 183.855 173.887 181.604 173.887ZM187.938 160.256L184.88 157.185C185.159 156.92 185.47 156.702 185.803 156.538C186.269 156.305 186.789 156.188 187.348 156.188C188.652 156.188 189.917 156.819 190.794 157.396L187.938 160.256ZM186.517 150.405C188.737 148.776 190.584 146.695 191.78 144.474V152.47H188.582L186.517 150.405ZM185.423 149.306L177.864 141.715V138.652H191.772V139.689C191.298 143.281 188.985 146.781 185.423 149.306ZM178.298 133.22C178.306 132.838 178.376 132.464 178.492 132.105C179.129 130.204 181.279 129.448 182.613 129.167V133.22H178.298ZM181.954 136.291C181.915 136.337 181.868 136.384 181.806 136.423C181.783 136.439 181.76 136.446 181.729 136.462V136.291H181.954ZM180.192 134.763V136.478C180.099 136.446 180.013 136.415 179.951 136.376C179.33 136.033 178.849 135.472 178.562 134.763H180.192ZM178.36 137.117H177.864V136.595C178.019 136.782 178.182 136.953 178.36 137.117ZM184.15 137.117V129.12C185.695 129.315 187.573 130.087 188.683 130.999C190.212 132.254 191.407 134.646 191.756 137.117H184.15ZM189.637 129.799C189.211 129.448 188.69 129.105 188.101 128.801H191.772V132.433C191.174 131.365 190.445 130.461 189.637 129.799ZM183.84 127.258C185.074 126.728 186.354 126.245 187.573 125.839C188.923 125.387 190.336 125.013 191.78 124.725V127.266H183.84V127.258ZM187.092 124.382C185.485 124.92 182.986 125.847 180.223 127.266H179.602L191.764 115.053V123.158C190.173 123.47 188.597 123.883 187.092 124.382ZM177.072 127.258H174.518C175 124.452 174.86 121.584 174.13 119.09L179.672 124.655L177.072 127.258ZM174.185 128.801H175.535L173.572 130.773C173.804 130.141 174.014 129.479 174.185 128.801ZM176.335 131.342V140.18L171.538 135.363L172.928 133.968C173.967 133.056 175.116 132.176 176.335 131.342ZM168.744 135.62L168.705 135.667L167.402 136.976C166.936 137.405 166.47 137.795 166.02 138.13C163.707 139.86 160.913 140.99 157.708 141.497C157.04 140.484 156.435 139.439 155.915 138.395C154.541 135.652 153.726 132.596 153.501 129.323V128.809H161.961L168.744 135.62ZM154.541 139.081C154.984 139.961 155.473 140.842 156 141.692C155.278 141.754 154.533 141.785 153.796 141.785C153.695 141.785 153.594 141.785 153.493 141.785V136.657C153.804 137.491 154.153 138.301 154.541 139.081ZM153.827 143.344C154.487 143.344 155.131 143.32 155.76 143.274C156.156 143.242 156.559 143.204 156.97 143.157C157.553 143.991 158.181 144.801 158.833 145.573L153.501 150.935V143.344C153.602 143.344 153.719 143.344 153.827 143.344ZM153.757 173.598C154.176 170.738 155.364 167.956 157.281 165.322C158.453 165.563 159.602 165.875 160.688 166.234C163.746 167.255 166.602 168.954 169.179 171.292L163.195 177.3H153.625V174.861C153.656 174.417 153.703 173.988 153.757 173.598ZM153.625 247.24L168.279 232.526C169.109 231.793 169.908 231.045 170.669 230.297C171.523 229.455 172.353 228.567 173.122 227.663L199.3 201.375L214.248 216.385C213.146 219.37 211.85 222.129 210.399 224.569C199.292 243.25 184.337 251.347 173.735 254.855C165.291 257.645 158.282 258.065 154.852 258.065C154.316 258.065 153.897 258.058 153.618 258.042V247.24H153.625ZM177.988 220.594C180.014 216.892 181.473 212.909 182.319 208.748C183.304 203.931 183.436 199.091 182.714 194.353H192.299L198.213 200.292L177.988 220.594ZM181.938 181.462L190.887 172.476L190.902 172.461C190.926 172.445 190.941 172.43 190.965 172.414C191.578 171.923 192.16 171.331 192.695 170.66L201.465 161.854C209.405 167.488 215.172 176.318 217.291 186.099C217.671 187.845 217.935 189.653 218.074 191.446V192.81H193.246L181.938 181.462ZM202.56 160.755L209.064 154.224H218.067V182.959C215.474 174.051 209.871 166.023 202.56 160.755ZM206.898 154.224L201.271 159.874C200.022 159.048 198.733 158.3 197.437 157.653C196.04 156.951 193.805 155.915 191.073 154.995L190.313 154.231H206.898V154.224ZM191.772 112.489L180.743 123.564L171.903 114.687L171.888 114.671C171.872 114.648 171.856 114.632 171.841 114.609C171.352 113.993 170.77 113.409 170.102 112.879L161.247 103.986C166.866 96.2549 175.543 90.6357 185.082 88.5548C186.82 88.1729 188.621 87.9157 190.421 87.7676H191.764V112.489H191.772ZM170.568 93.0517C166.486 95.7405 162.985 99.0528 160.16 102.895L153.493 96.2003V87.7754H181.946C177.918 88.96 174.092 90.7292 170.568 93.0517ZM159.26 104.173C158.321 105.56 157.483 106.994 156.753 108.444C156.024 109.894 154.968 112.216 154.029 115.037L153.486 115.583V98.3826L159.26 104.173ZM154.068 120.883L160.416 127.258H153.493V125.286C153.587 123.86 153.781 122.379 154.068 120.883ZM168.511 258.868C177.313 257.559 185.928 255.127 194.147 251.636C201.077 248.69 207.682 245.011 213.821 240.686L195.714 258.868H168.511ZM218.067 238.776V258.868H198.058L218.067 238.776ZM177.266 255.221C183.017 253 188.403 249.999 193.316 246.282C200.519 240.818 206.712 233.781 211.718 225.356C213.1 223.025 214.357 220.415 215.436 217.586L218.059 220.22V235.129C206.192 244.707 192.136 251.62 177.266 255.221ZM216.103 215.77C216.871 213.549 217.531 211.242 218.067 208.888V217.741L216.103 215.77ZM214.892 214.554L194.768 194.345H218.059V198.211C217.717 203.721 216.623 209.363 214.892 214.554ZM210.81 152.47L227.497 135.714L230.221 138.449C233.907 142.658 237.144 147.498 239.596 152.47H210.81ZM237.734 146.001L244.175 152.47H241.296C240.256 150.288 239.061 148.113 237.734 146.001ZM240.186 210.595C243.446 204.087 245.603 197.151 246.597 189.973C247.831 181.002 247.249 171.642 244.851 162.134C244.206 159.57 243.275 156.905 242.103 154.224H245.929L256.523 164.862C254.723 181.291 249.042 197.127 240.062 210.868C240.101 210.774 240.14 210.688 240.186 210.595ZM248.087 154.224H257.137C257.113 157.107 256.966 160.022 256.71 162.875L248.087 154.224ZM256.733 152.47H246.349L231.354 137.413C230.624 136.579 229.879 135.776 229.134 135.012C228.296 134.155 227.411 133.321 226.511 132.55L200.433 106.363L215.164 91.5709C218.175 92.6854 220.954 93.9947 223.414 95.4677C242.018 106.597 250.082 121.584 253.574 132.199C256.989 142.627 256.795 150.989 256.733 152.47ZM245.021 112.582C239.581 105.366 232.572 99.1619 224.183 94.1428C221.839 92.74 219.2 91.4696 216.344 90.3785L218.928 87.7832H234.342C236.042 89.9109 237.679 92.1398 239.224 94.4156C246.775 105.607 252.014 117.944 254.816 131.131C252.542 124.436 249.251 118.194 245.021 112.582ZM220.465 86.2401L227.085 79.5921C229.173 81.712 231.191 83.9488 233.092 86.2401H220.465ZM217.919 86.2401H197.228C196.126 86.17 195.031 86.131 193.968 86.1154C193.828 86.1154 193.681 86.1154 193.541 86.1154C192.486 86.1154 191.415 86.1544 190.375 86.2401H153.501V65.3221C156.45 63.9426 159.361 62.8827 162.163 62.1579C168.263 60.5914 174.371 59.7965 180.308 59.7965C190.545 59.7965 200.278 62.08 209.219 66.5847C218.757 71.3855 224.346 77.1527 225.603 78.5244L217.919 86.2401ZM164.444 49.0413C174.169 50.1324 183.661 52.5795 192.672 56.3127C192.672 56.3127 192.936 56.4218 192.998 56.4452C193.099 56.4842 193.192 56.531 193.293 56.5699L193.495 56.6556C198.602 58.8378 203.576 61.4487 208.295 64.4336C202.304 61.6201 195.963 59.7341 189.42 58.8456C186.471 58.4403 183.436 58.2378 180.402 58.2378C174.309 58.2378 168.038 59.0561 161.767 60.6694C159.082 61.3552 156.303 62.3527 153.493 63.6309V60.0458L164.444 49.0413ZM153.493 57.8714V48.3866C156.489 48.41 159.508 48.5581 162.481 48.8386L153.493 57.8714ZM199.673 57.4739L199.587 57.435C199.059 57.1778 198.532 56.9206 198.004 56.6712L197.895 56.6166C197.36 56.3672 196.809 56.1101 196.258 55.8607L196.095 55.7906C195.575 55.5568 195.055 55.3307 194.535 55.1047L194.147 54.9333C193.821 54.793 193.487 54.6605 193.161 54.5202L192.975 54.4423C192.975 54.4423 192.75 54.3487 192.703 54.3254L192.649 54.302C192.23 54.1305 191.803 53.9668 191.384 53.7954C191.384 53.7954 191.05 53.6629 190.972 53.6317C190.569 53.4758 190.157 53.32 189.754 53.1719C189.754 53.1719 189.358 53.0238 189.273 52.9926C188.9 52.8523 188.52 52.7199 188.139 52.5874L188 52.5406C187.845 52.486 187.697 52.4315 187.542 52.377C187.208 52.2601 186.867 52.1431 186.533 52.034L186.51 52.0262C186.261 51.9405 186.021 51.8626 185.772 51.7768C185.485 51.6833 185.206 51.5898 184.919 51.5041C184.6 51.4028 184.274 51.3014 183.956 51.2001C183.739 51.13 183.514 51.0676 183.296 50.9975C182.893 50.8728 182.489 50.7559 182.086 50.639L181.667 50.5221C181.17 50.3818 180.65 50.2415 180.13 50.1012L180.021 50.07C176.723 49.1893 173.354 48.4646 169.978 47.9112H196.289L215.063 66.7639C210.212 63.249 205.043 60.1237 199.673 57.4739ZM167.215 46.2667L180.921 32.5033L194.628 46.2667H167.215ZM154.332 3.45654C192.905 3.90078 229.336 19.0904 256.981 46.2667H196.964L154.332 3.45654ZM179.843 31.4122L165.058 46.259H153.377C153.323 46.22 153.261 46.1966 153.191 46.1966H111.443L153.004 4.46195L179.843 31.4122ZM109.099 46.2044H48.2515C76.1142 18.8489 112.817 3.68255 151.677 3.44874L109.099 46.2044ZM86.1649 47.8644V69.2345L80.4372 74.9862C79.467 75.898 78.4891 76.8332 77.5423 77.7841C76.5954 78.7349 75.6563 79.7091 74.7638 80.6833L48.2126 107.345V47.8566H86.1649V47.8644ZM65.2019 92.6231C60.8091 99.0061 57.107 105.888 54.1966 113.097C51.5267 119.714 49.5165 126.611 48.2126 133.61V109.683L65.2019 92.6231ZM54.1966 193.425C57.4951 201.593 61.7948 209.317 66.9948 216.409L48.2126 197.548V172.889C49.501 179.896 51.519 186.801 54.1966 193.425ZM67.1811 218.949H48.2048V199.894L67.1811 218.949ZM68.71 220.493L76.7506 228.567C76.7584 228.629 76.7894 228.691 76.836 228.738L106.779 258.806H48.2048V220.493H68.71ZM108.432 260.466L151.188 303.401C112.421 303.042 75.827 287.806 48.073 260.466H108.432ZM196.405 260.528H257.043C229.22 287.899 192.556 303.112 153.711 303.401L196.405 260.528ZM219.603 258.868V237.233L257.556 199.123V258.868H219.603ZM239.798 214.608C244.113 208.444 247.777 201.804 250.71 194.844C253.885 187.3 256.182 179.413 257.556 171.362V196.784L239.798 214.608ZM250.718 111.741C247.645 104.438 243.764 97.4941 239.169 91.0722L257.563 109.543V135.238C256.19 127.188 253.892 119.293 250.718 111.741ZM238.223 87.7832H257.556V107.197L238.223 87.7832ZM236.686 86.2401L228.482 78.0023C228.474 77.94 228.443 77.8775 228.397 77.8308L198.625 47.9346H257.563V86.2479H236.686V86.2401ZM46.5595 158.884V195.888L4.46269 153.616L31.4407 126.525L46.5595 141.707V147.599C46.4586 149.47 46.4121 151.379 46.4121 153.257C46.4121 155.12 46.4586 157.014 46.5595 158.884ZM3.22869 152.509C3.46152 113.081 18.8365 75.9604 46.5518 47.8878V109.005L3.22869 152.509ZM46.5595 111.343V139.525L32.5272 125.434L46.5595 111.343ZM46.5595 198.242V258.954C18.9529 230.991 3.57795 194.01 3.23646 154.738L46.5595 198.242ZM160.075 304.889C177.817 304.024 195.039 300.089 211.369 293.152C229.352 285.515 245.503 274.58 259.372 260.653C273.241 246.726 284.13 230.507 291.736 212.45C299.451 194.127 303.44 174.682 303.595 154.645V304.882H160.075V304.889Z" fill="white" fill-opacity="0.2"/>
</svg>
