<svg width="403" height="401" viewBox="0 0 403 401" fill="none" xmlns="http://www.w3.org/2000/svg">
<path opacity="0.2" d="M199.031 233.545C195.956 220.445 189.286 208.011 179.023 197.799C149.711 168.632 102.185 168.632 72.8732 197.799C43.5624 226.964 43.5624 274.249 72.8732 303.415C102.185 332.581 149.711 332.581 179.023 303.415C189.258 293.23 195.919 280.837 199.006 267.777C191.944 287.297 173.17 301.252 151.123 301.252C123.027 301.252 100.247 278.588 100.247 250.626C100.247 222.663 123.027 199.999 151.123 199.999C173.197 199.999 191.989 213.988 199.031 233.545ZM141.177 201.986C118.395 206.573 101.247 226.608 101.247 250.626C101.247 278.031 123.575 300.252 151.123 300.252C178.671 300.252 201 278.031 201 250.626C201 226.608 183.851 206.573 161.069 201.986C170.317 205.854 176.812 214.952 176.812 225.562C176.812 239.683 165.308 251.126 151.123 251.126C136.938 251.126 125.435 239.683 125.435 225.562C125.435 214.952 131.93 205.854 141.177 201.986ZM179.728 304.123C169.792 314.011 157.79 320.59 145.105 323.862C205.287 314.682 251.376 262.945 251.376 200.499C251.376 131.571 195.22 75.6892 125.941 75.6892C56.663 75.6892 0.506036 131.571 0.506033 200.499C0.50603 262.956 46.6127 314.701 106.81 323.867C94.1179 320.597 82.1092 314.016 72.1678 304.123C42.4642 274.567 42.4642 226.646 72.1678 197.09C101.87 167.535 150.026 167.535 179.728 197.09C209.432 226.646 209.432 274.567 179.728 304.123ZM252.376 200.499C252.376 269.985 195.767 326.309 125.941 326.309C64.9564 326.309 14.053 283.345 2.14051 226.172C14.8035 324.503 99.2305 400.5 201.5 400.5C312.512 400.5 402.5 310.955 402.5 200.5C402.5 90.0454 312.512 0.500014 201.5 0.500009C99.2318 0.500004 14.8056 76.4955 2.14098 174.824C14.0544 117.653 64.9572 74.6892 125.941 74.6892C195.767 74.6892 252.376 131.014 252.376 200.499ZM151.123 250.126C164.761 250.126 175.812 239.126 175.812 225.562C175.812 211.999 164.76 200.999 151.123 200.999C137.486 200.999 126.435 211.999 126.435 225.562C126.435 239.126 137.486 250.126 151.123 250.126Z" stroke="#F9F9F9"/>
</svg>
