<svg width="24.000000" height="24.000000" viewBox="0 0 24 24" fill="none" xmlns="http://www.w3.org/2000/svg" xmlns:xlink="http://www.w3.org/1999/xlink">
	<desc>
			Created with Pixso.
	</desc>
	<defs>
		<clipPath id="clip21_1876">
			<rect id="search" rx="0.000000" width="23.000000" height="23.000000" transform="translate(0.500000 0.500000)" fill="white" fill-opacity="0"/>
		</clipPath>
	</defs>
	<rect id="search" rx="0.000000" width="23.000000" height="23.000000" transform="translate(0.500000 0.500000)" fill="#FFFFFF" fill-opacity="0"/>
	<g clip-path="url(#clip21_1876)">
		<path id="Vector" d="M10 3.26C11.33 3.26 12.63 3.65 13.74 4.39C14.85 5.13 15.71 6.18 16.22 7.41C16.74 8.64 16.87 10 16.61 11.31C16.35 12.61 15.71 13.81 14.77 14.76C13.83 15.7 12.62 16.34 11.32 16.6C10.01 16.86 8.66 16.73 7.42 16.22C6.19 15.71 5.14 14.85 4.4 13.74C3.66 12.63 3.26 11.33 3.26 10C3.27 8.21 3.98 6.5 5.24 5.24C6.5 3.98 8.21 3.27 10 3.26ZM10 2C8.41 2 6.87 2.46 5.55 3.34C4.24 4.22 3.21 5.47 2.6 6.93C2 8.4 1.84 10 2.15 11.56C2.46 13.11 3.22 14.53 4.34 15.65C5.46 16.77 6.88 17.53 8.43 17.84C9.99 18.15 11.59 17.99 13.06 17.39C14.52 16.78 15.77 15.75 16.65 14.44C17.53 13.12 18 11.58 18 10C18 7.87 17.15 5.84 15.65 4.34C14.15 2.84 12.12 2 10 2Z" fill="#FFFFFF" fill-opacity="1.000000" fill-rule="nonzero"/>
		<path id="Vector" d="M23.33 22.19L18.41 17.24L17.47 18.18L22.38 23.13C22.44 23.19 22.52 23.24 22.6 23.27C22.68 23.31 22.77 23.33 22.85 23.33C22.94 23.33 23.03 23.31 23.11 23.28C23.19 23.24 23.26 23.19 23.33 23.13C23.39 23.07 23.44 23 23.47 22.92C23.5 22.84 23.52 22.75 23.52 22.66C23.52 22.57 23.51 22.49 23.47 22.41C23.44 22.33 23.39 22.25 23.33 22.19Z" fill="#FFFFFF" fill-opacity="1.000000" fill-rule="nonzero"/>
	</g>
</svg>
