<svg width="167" height="176" viewBox="0 0 167 176" fill="none" xmlns="http://www.w3.org/2000/svg">
<path d="M103.162 169.257C103.106 169.257 103.069 169.257 103.014 169.238L56.9402 160.692C56.7361 160.653 56.5506 160.535 56.4207 160.359L31.4634 125.726L1.9601 69.6411C1.84877 69.426 1.83019 69.1913 1.88586 68.9566L11.7018 32.7593C11.7574 32.5442 11.8873 32.3682 12.0543 32.2509L47.9037 7.96286C48.0521 7.86508 48.2191 7.80646 48.3676 7.82601L112.162 9.17535C112.236 9.17535 112.31 9.19489 112.384 9.21444L151.221 21.5736C151.499 21.6518 151.703 21.8865 151.796 22.1798L163.319 64.9087C163.375 65.1238 163.356 65.3584 163.264 65.554L142.147 109.163L116.299 154.414L103.83 168.944C103.626 169.159 103.403 169.257 103.162 169.257ZM57.5525 159.01L102.847 167.399L114.908 153.378L140.626 108.322L161.575 65.0651L150.275 23.1576L111.995 10.9744L48.5716 9.62509L13.2048 33.5806L3.57442 69.1131L32.8551 124.768L57.5525 159.01Z" fill="white"/>
<path d="M44.9162 60.6651C44.7307 60.6651 44.5451 60.6065 44.3967 60.4696L11.9615 33.7176C11.5904 33.4047 11.5348 32.8571 11.8131 32.466C12.11 32.0749 12.6296 32.0162 13.0007 32.3096L45.1389 58.8269L100.787 49.0882L111.308 9.84027C111.438 9.37093 111.902 9.09716 112.347 9.23405C112.792 9.37094 113.052 9.85982 112.922 10.3292L102.271 50.1247C102.179 50.4571 101.919 50.7114 101.603 50.77L45.0647 60.6651C45.009 60.6651 44.9533 60.6651 44.9162 60.6651Z" fill="white"/>
<path d="M141.349 109.671C141.09 109.671 140.83 109.534 140.663 109.3L100.768 50.3984C100.49 50.0073 100.583 49.4402 100.973 49.1664C101.344 48.8731 101.882 48.9709 102.142 49.3816L142.036 108.283C142.314 108.694 142.222 109.241 141.832 109.515C141.683 109.632 141.516 109.671 141.349 109.671Z" fill="white"/>
<path d="M115.539 154.864C115.39 154.864 115.242 154.825 115.112 154.747L70.5229 127.31C70.3559 127.213 70.2446 127.056 70.1704 126.88L44.1369 60.098C43.9514 59.6482 44.1741 59.1202 44.6008 58.9442C45.0276 58.7487 45.5286 58.9834 45.6956 59.4331L71.6177 125.922L115.965 153.202C116.374 153.456 116.504 154.004 116.262 154.414C116.114 154.708 115.817 154.864 115.539 154.864Z" fill="white"/>
<path d="M70.9496 127.447H70.9311L32.0943 126.098C31.6304 126.078 31.2593 125.668 31.2779 125.179C31.2964 124.69 31.6675 124.318 32.15 124.318L70.9868 125.668C71.4507 125.687 71.8217 126.098 71.8032 126.587C71.7661 127.056 71.395 127.447 70.9496 127.447Z" fill="white"/>
<path d="M121.402 45.1576H121.384L58.5545 41.794C58.3875 41.794 58.2391 41.6571 58.1834 41.4811L47.9408 8.88201C47.8665 8.64734 47.9964 8.39316 48.2005 8.31494C48.4232 8.23672 48.6644 8.35402 48.7386 8.58869L58.8885 40.8945L121.291 44.2385L150.72 22.0625C150.906 21.9256 151.165 21.9647 151.314 22.1602C151.444 22.3558 151.407 22.6492 151.221 22.786L121.681 45.0403C121.569 45.1185 121.495 45.1576 121.402 45.1576Z" fill="white"/>
<path d="M22.0929 90.5264C21.9816 90.5264 21.8702 90.4874 21.796 90.3896L2.3869 69.5238C2.2199 69.3478 2.2199 69.074 2.3869 68.898C2.5539 68.722 2.81364 68.722 2.98064 68.898L22.0557 89.4118L58.2391 41.0509C58.3875 40.8554 58.6473 40.8162 58.8329 40.9727C59.0184 41.1291 59.0556 41.4029 58.9071 41.5985L22.4269 90.3505C22.3527 90.4482 22.2413 90.5069 22.1114 90.5264C22.0929 90.5264 22.0929 90.5264 22.0929 90.5264Z" fill="white"/>
<path d="M57.0702 160.262C56.9032 160.262 56.7547 160.164 56.6805 159.988L45.5843 132.102L21.7218 90.3113C21.6105 90.0962 21.6662 89.8224 21.8703 89.7051C22.0744 89.5878 22.3342 89.6464 22.4455 89.8615L46.345 131.71L57.4598 159.655C57.5526 159.89 57.4413 160.144 57.2372 160.242C57.1815 160.262 57.1258 160.262 57.0702 160.262Z" fill="white"/>
<path d="M125.559 119.117C125.503 119.117 125.466 119.117 125.41 119.078L92.771 105.819C92.6597 105.78 92.5669 105.682 92.5298 105.565C92.4926 105.447 92.4927 105.31 92.5483 105.213L121.031 44.5122C121.142 44.2971 121.384 44.1994 121.588 44.3167C121.792 44.434 121.885 44.6882 121.773 44.9034L93.4946 105.174L125.41 118.139L162.132 64.9087C162.262 64.7132 162.54 64.6545 162.725 64.8109C162.911 64.9478 162.948 65.2411 162.818 65.4367L125.911 118.941C125.818 119.058 125.689 119.117 125.559 119.117Z" fill="white"/>
<path d="M103.162 168.807C103.106 168.807 103.032 168.788 102.977 168.768C102.772 168.67 102.68 168.397 102.772 168.182L125.169 118.491C125.262 118.276 125.522 118.178 125.726 118.276C125.93 118.374 126.023 118.647 125.93 118.862L103.533 168.553C103.478 168.729 103.311 168.807 103.162 168.807Z" fill="white"/>
<path d="M45.9739 132.395C45.8255 132.395 45.677 132.317 45.6028 132.16C45.4914 131.945 45.5657 131.671 45.7698 131.554L92.6968 105.017C92.9009 104.9 93.1607 104.978 93.272 105.193C93.3833 105.408 93.3091 105.682 93.105 105.799L46.178 132.336C46.1223 132.375 46.0481 132.395 45.9739 132.395Z" fill="white"/>
</svg>
