<svg width="167" height="176" viewBox="0 0 167 176" fill="none" xmlns="http://www.w3.org/2000/svg">
<path d="M59.5 152.872C59.4443 152.872 59.37 152.872 59.3144 152.853C59.036 152.775 58.7949 152.559 58.7021 152.266L44.5442 108.54L17.9541 68.6271C17.7871 68.3728 17.75 68.0404 17.8799 67.7666C17.9912 67.4733 18.2509 67.2777 18.5293 67.2386L158.067 46.7835C158.438 46.7248 158.772 46.9204 158.939 47.2724C159.106 47.6048 159.032 48.035 158.791 48.2892L60.1123 152.618C59.9453 152.794 59.7226 152.872 59.5 152.872ZM20.125 68.803L45.9915 107.64C46.0471 107.719 46.0842 107.777 46.1028 107.875L59.8525 150.369L155.785 48.9346L20.125 68.803Z" fill="white"/>
<path d="M59.5 152.872C59.3144 152.872 59.1474 152.814 58.999 152.696C58.7578 152.501 58.6279 152.188 58.665 151.856L66.1244 95.907L18.251 68.8812C17.9726 68.7248 17.7871 68.4119 17.8056 68.0599C17.8056 67.7275 18.0098 67.4146 18.2881 67.2777L52.0964 50.8902L78.668 2.39235C78.6865 2.35324 78.705 2.33371 78.7236 2.2946C78.7607 2.23593 78.7978 2.19685 78.8535 2.13818C78.9648 2.0404 79.0761 1.98168 79.2246 1.96213C79.2431 1.96213 79.2431 1.96213 79.2616 1.96213C79.4286 1.94257 79.5956 1.96215 79.7441 2.04037C79.8554 2.09903 79.9297 2.19682 80.0039 2.2946L107.336 43.4395L158.141 46.7053C158.438 46.7248 158.698 46.9008 158.828 47.1746C158.958 47.4484 158.958 47.7809 158.809 48.0351L132.256 95.9853L146.655 139.575C146.767 139.888 146.693 140.22 146.488 140.474C146.47 140.513 146.433 140.533 146.396 140.572C146.303 140.65 146.192 140.709 146.08 140.748C146.025 140.767 145.969 140.767 145.913 140.767C145.876 140.767 145.839 140.767 145.802 140.767L93.902 136.798L59.7598 152.716C59.7413 152.853 59.6113 152.872 59.5 152.872ZM67.7201 96.8262L60.5577 150.526L93.5124 135.155C93.6423 135.096 93.7536 135.077 93.9206 135.077L142.072 138.753L67.7201 96.8262ZM67.9614 94.9488L143.965 137.834L79.8554 5.77549L67.9614 94.9488ZM85.719 13.9302L141.144 128.076L130.624 96.2395C130.549 95.9853 130.568 95.7311 130.698 95.4964L156.75 48.4457L106.909 45.2386C106.65 45.219 106.409 45.0821 106.26 44.867L85.719 13.9302ZM20.5519 68.1773L66.3841 94.0493L77.9628 7.28124L53.4323 52.0635C53.3396 52.22 53.2096 52.3569 53.0612 52.4351L20.5519 68.1773Z" fill="white"/>
<path d="M88.4096 174.735C88.1313 174.735 87.8715 174.599 87.7045 174.344L70.1509 147.182C69.8911 146.771 69.9839 146.223 70.3736 145.95C70.7632 145.676 71.2828 145.774 71.5426 146.184L87.8714 171.47L108.709 26.1133L98.0956 31.315C97.6873 31.5106 97.1678 31.3346 96.9823 30.8848C96.7782 30.435 96.9637 29.907 97.3905 29.7115L109.433 23.8253C109.711 23.6884 110.045 23.7275 110.287 23.923C110.528 24.1186 110.658 24.451 110.621 24.7639L89.226 174.012C89.1703 174.364 88.9106 174.657 88.5766 174.755C88.5394 174.735 88.4653 174.735 88.4096 174.735Z" fill="white"/>
<path d="M10.1237 130.403C9.901 130.403 9.69687 130.325 9.52987 130.149C9.25154 129.875 9.19586 129.425 9.39997 129.073L31.5182 88.0653C31.7408 87.635 32.2604 87.4982 32.6686 87.7329C33.0768 87.9675 33.2252 88.5151 32.984 88.9453L12.406 127.098L44.9153 107.367C61.8009 97.0218 65.7532 94.8902 66.9222 94.5969V94.5577C68.3324 94.0884 87.4446 82.5115 100.842 74.3177L71.4312 61.1373L23.2423 39.0395L30.7759 62.3497C30.9243 62.8191 30.6832 63.3275 30.2564 63.484C29.8296 63.6404 29.3286 63.3862 29.1801 62.9364L21.0342 37.7293C20.9229 37.3968 21.0158 37.0253 21.257 36.7907C21.4982 36.556 21.8508 36.4973 22.1662 36.6342L72.0992 59.5337L103.05 73.3986C103.347 73.5355 103.551 73.8288 103.569 74.1613C103.588 74.4937 103.421 74.8262 103.143 74.9827C74.1588 92.7391 68.5551 95.868 67.182 96.2395V96.2982C65.9944 96.6502 53.4137 104.218 45.7502 108.911L10.5504 130.266C10.402 130.364 10.2536 130.403 10.1237 130.403Z" fill="white"/>
<path d="M53.3209 133.767C53.3024 133.767 53.2839 133.767 53.2653 133.767L10.0679 130.403C9.60405 130.364 9.25152 129.934 9.28863 129.445C9.32574 128.956 9.71539 128.604 10.1978 128.623L53.3951 131.987C53.859 132.026 54.2116 132.456 54.1745 132.945C54.1374 133.415 53.7663 133.767 53.3209 133.767Z" fill="white"/>
<path d="M59.2216 40.5844C59.2031 40.5844 59.1846 40.5844 59.166 40.5844L21.7394 38.316C21.2755 38.2964 20.923 37.8662 20.9415 37.3773C20.9601 36.8884 21.3498 36.4973 21.8323 36.5364L59.2588 38.8049C59.7227 38.8244 60.0752 39.2546 60.0567 39.7435C60.0381 40.2324 59.667 40.5844 59.2216 40.5844Z" fill="white"/>
<path d="M115.575 45.8057C115.204 45.8057 114.87 45.5514 114.758 45.1799L108.988 24.8812C108.858 24.4119 109.099 23.9035 109.544 23.7666C109.99 23.6101 110.454 23.8839 110.602 24.3532L116.373 44.6519C116.503 45.1212 116.261 45.6297 115.816 45.7666C115.723 45.8057 115.649 45.8057 115.575 45.8057Z" fill="white"/>
<path d="M137.693 115.815C137.378 115.815 137.081 115.619 136.932 115.306C136.728 114.856 136.914 114.328 137.341 114.113L147.361 109.107L102.215 74.9239C101.844 74.6306 101.751 74.0831 102.029 73.6919C102.308 73.2813 102.827 73.203 103.198 73.4964L149.513 108.559C149.754 108.735 149.884 109.048 149.866 109.361C149.847 109.674 149.661 109.948 149.383 110.085L138.083 115.736C137.934 115.795 137.823 115.815 137.693 115.815Z" fill="white"/>
<path d="M148.993 110.163C148.715 110.163 148.455 110.026 148.288 109.772L134.928 88.867C134.669 88.4563 134.761 87.9088 135.151 87.6351C135.522 87.3613 136.06 87.459 136.32 87.8697L149.68 108.775C149.94 109.185 149.847 109.733 149.457 110.007C149.327 110.104 149.16 110.163 148.993 110.163Z" fill="white"/>
<path d="M88.4096 174.735C88.2612 174.735 88.1126 174.696 87.9827 174.618C87.5745 174.364 87.4447 173.836 87.6673 173.406L107.726 136.641C107.967 136.211 108.468 136.074 108.876 136.309C109.285 136.563 109.414 137.091 109.192 137.521L89.1332 174.286C88.9847 174.579 88.7065 174.735 88.4096 174.735Z" fill="white"/>
<path d="M41.4453 57.4999C41.334 57.4999 41.2413 57.4608 41.1485 57.3826L21.4981 37.7488C21.3311 37.5728 21.3127 37.299 21.4797 37.123C21.6467 36.947 21.9065 36.9274 22.0735 37.1034L41.7237 56.7372C41.8907 56.9132 41.9093 57.187 41.7423 57.363C41.6681 57.4608 41.5567 57.4999 41.4453 57.4999Z" fill="white"/>
<path d="M60.5205 62.4279C60.3906 62.4279 60.2793 62.3693 60.1865 62.2519L52.356 51.8874C52.2075 51.6919 52.2447 51.4182 52.4303 51.2617C52.6158 51.1053 52.8756 51.1443 53.0241 51.3399L60.8545 61.7044C61.0029 61.8999 60.9658 62.1737 60.7803 62.3302C60.7061 62.3888 60.6133 62.4279 60.5205 62.4279Z" fill="white"/>
<path d="M78.1112 81.3186C77.9256 81.3186 77.7772 81.2013 77.703 81.0057L71.3199 60.4724C71.2457 60.2377 71.3756 59.9835 71.5797 59.9053C71.8024 59.827 72.0436 59.9444 72.1178 60.1791L78.3896 80.3213L102.586 73.7506C102.809 73.6724 103.05 73.8289 103.106 74.0635C103.161 74.2982 103.031 74.5524 102.809 74.6111L78.2411 81.2795C78.1854 81.3186 78.1483 81.3186 78.1112 81.3186Z" fill="white"/>
<path d="M90.3393 69.1159C90.2094 69.1159 90.0981 69.0572 90.0239 68.9595C89.8755 68.7639 89.894 68.4901 90.0795 68.3337L105.128 55.0555C105.314 54.899 105.573 54.9186 105.722 55.1141C105.87 55.3097 105.852 55.5834 105.666 55.7399L90.6176 69.0181C90.5248 69.0768 90.4321 69.1159 90.3393 69.1159Z" fill="white"/>
<path d="M102.066 49.9906C101.955 49.9906 101.862 49.9514 101.77 49.8732C101.603 49.6972 101.603 49.4235 101.751 49.2475L106.687 43.7915C106.854 43.6155 107.114 43.6155 107.281 43.7719C107.448 43.9479 107.448 44.2217 107.299 44.3977L102.345 49.8537C102.289 49.9515 102.178 49.9906 102.066 49.9906Z" fill="white"/>
<path d="M102.066 37.4359C101.992 37.4359 101.899 37.4164 101.825 37.3577C101.621 37.2208 101.584 36.947 101.695 36.7319L109.433 24.3728C109.563 24.1577 109.823 24.1186 110.027 24.2359C110.231 24.3728 110.268 24.6466 110.157 24.8617L102.419 37.2208C102.345 37.3577 102.196 37.4359 102.066 37.4359Z" fill="white"/>
<path d="M85.2737 95.8679H67.0521C66.8851 95.8679 66.7366 95.7701 66.6624 95.6137C66.5882 95.4572 66.6068 95.2813 66.7181 95.1444L77.7772 80.595C77.9256 80.3995 78.1854 80.3799 78.371 80.5168C78.5565 80.6732 78.575 80.947 78.4452 81.1426L67.9242 94.9684H85.0695L102.363 74.1612C102.512 73.9852 102.79 73.9657 102.957 74.1222C103.124 74.2786 103.143 74.5719 102.994 74.7479L85.5705 95.7114C85.4963 95.8288 85.385 95.8679 85.2737 95.8679Z" fill="white"/>
<path d="M97.2605 112.51C97.1306 112.51 97.0007 112.451 96.9265 112.334L84.9211 95.7115C84.7727 95.5159 84.8098 95.2422 84.9953 95.0857C85.1809 94.9293 85.4407 94.9683 85.5891 95.1639L97.5945 111.786C97.7429 111.982 97.7059 112.255 97.5203 112.412C97.4461 112.471 97.3533 112.51 97.2605 112.51Z" fill="white"/>
<path d="M99.9882 93.5604C99.8027 93.5604 99.6171 93.4235 99.58 93.2279C99.5243 92.9933 99.6541 92.7391 99.8954 92.7L120.548 87.3809C120.77 87.3026 120.993 87.459 121.049 87.7133C121.104 87.9479 120.975 88.2022 120.733 88.2413L100.081 93.5604C100.044 93.5604 100.025 93.5604 99.9882 93.5604Z" fill="white"/>
<path d="M131.44 96.4155H124.611C124.37 96.4155 124.185 96.2199 124.185 95.9657C124.185 95.7115 124.37 95.516 124.611 95.516H131.44C131.681 95.516 131.867 95.7115 131.867 95.9657C131.848 96.2199 131.662 96.4155 131.44 96.4155Z" fill="white"/>
<path d="M148.993 109.713C148.975 109.713 148.956 109.713 148.938 109.713L135.077 107.621C134.854 107.582 134.687 107.367 134.724 107.112C134.761 106.878 134.965 106.702 135.207 106.741L149.068 108.833C149.29 108.872 149.457 109.087 149.42 109.342C149.383 109.557 149.216 109.713 148.993 109.713Z" fill="white"/>
<path d="M45.3235 108.599C45.175 108.599 45.0266 108.501 44.9524 108.364C44.8596 108.188 44.8967 107.953 45.0451 107.816L62.0792 92.4457C62.2648 92.2893 62.5244 92.3088 62.6729 92.4848C62.8213 92.6803 62.8029 92.9541 62.6359 93.1106L46.9935 107.23L66.013 101.989C66.2357 101.911 66.4768 102.067 66.5325 102.302C66.5881 102.536 66.4583 102.791 66.2356 102.849L45.4348 108.579C45.3792 108.579 45.3606 108.599 45.3235 108.599Z" fill="white"/>
<path d="M10.1236 129.953C9.9752 129.953 9.82674 129.875 9.75251 129.719C9.65974 129.523 9.71542 129.288 9.88242 129.151L42.4288 103.827C42.6144 103.69 42.8742 103.729 43.0226 103.925C43.1525 104.12 43.1154 104.394 42.9299 104.551L12.6842 128.056L47.4759 114.856C47.6985 114.759 47.9398 114.896 48.0141 115.13C48.0883 115.365 47.9769 115.619 47.7543 115.697L10.2534 129.934C10.2163 129.934 10.1608 129.953 10.1236 129.953Z" fill="white"/>
<path d="M93.8463 136.407C93.6607 136.407 93.4937 136.27 93.438 136.074L89.3002 120.175C89.2445 119.941 89.3743 119.687 89.597 119.628C89.8382 119.569 90.061 119.706 90.1166 119.941L94.2545 135.84C94.3101 136.074 94.1803 136.328 93.9576 136.387C93.9205 136.407 93.8834 136.407 93.8463 136.407Z" fill="white"/>
<path d="M88.4096 174.305C88.2054 174.305 88.0198 174.149 87.9827 173.934L83.3624 140.748C83.3253 140.513 83.4923 140.279 83.715 140.239C83.9562 140.22 84.1603 140.376 84.1974 140.611L88.8177 173.797C88.8548 174.031 88.6878 174.266 88.4652 174.305C88.4466 174.305 88.4281 174.305 88.4096 174.305Z" fill="white"/>
</svg>
