<svg width="167" height="176" viewBox="0 0 167 176" fill="none" xmlns="http://www.w3.org/2000/svg">
<path d="M77.9543 164.638C77.8058 164.638 77.6388 164.599 77.509 164.501L12.8614 122.672C12.6202 122.516 12.4717 122.261 12.4532 121.968L5.56909 19.7707C5.53198 19.2818 5.8845 18.8712 6.34839 18.8125L84.4302 11.7334L159.172 21.0027C159.617 21.0614 159.951 21.4916 159.914 21.9609L151.119 126.349C151.1 126.661 150.915 126.935 150.655 127.072L78.3254 164.541C78.1955 164.599 78.0656 164.638 77.9543 164.638ZM14.1232 121.401L77.9914 162.722L149.467 125.723L158.151 22.7041L84.3931 13.5325L7.31331 20.5334L14.1232 121.401Z" fill="white"/>
<path d="M78.7522 116.747H78.7336C78.4924 116.747 78.2512 116.61 78.1027 116.414L5.77317 20.2987C5.47628 19.9076 5.55051 19.3601 5.90307 19.0472C6.27418 18.7343 6.79371 18.8125 7.09059 19.1841L78.7893 114.478L158.448 21.3352C158.764 20.9636 159.302 20.9441 159.636 21.2765C159.988 21.6089 160.007 22.1761 159.692 22.5281L79.3645 116.453C79.2161 116.629 78.9934 116.747 78.7522 116.747Z" fill="white"/>
<path d="M77.9543 164.638C77.9357 164.638 77.9357 164.638 77.9543 164.638C77.4718 164.638 77.1007 164.228 77.1007 163.739L77.8986 115.847C77.8986 115.358 78.2141 114.928 78.7522 114.967C79.2161 114.967 79.5871 115.378 79.5871 115.867L78.7893 163.758C78.7893 164.247 78.3996 164.638 77.9543 164.638Z" fill="white"/>
<path d="M131.765 136.322C131.598 136.322 131.45 136.224 131.376 136.068L107.643 81.7814C107.55 81.5663 107.625 81.3316 107.81 81.2143C107.996 81.0969 108.237 81.1556 108.367 81.3512L141.229 130.905C141.359 131.1 141.322 131.374 141.117 131.531C140.932 131.668 140.653 131.628 140.524 131.413L110.371 85.9467L132.118 135.696C132.211 135.911 132.118 136.185 131.914 136.283C131.895 136.322 131.84 136.322 131.765 136.322Z" fill="white"/>
<path d="M148.094 127.874C147.983 127.874 147.872 127.835 147.779 127.737L107.736 81.8987C107.588 81.7227 107.588 81.4685 107.736 81.2925C107.884 81.1165 108.126 81.0969 108.311 81.2534L151.323 116.766C151.508 116.923 151.546 117.197 151.397 117.392C151.249 117.588 150.989 117.627 150.803 117.47L111.892 85.3405L148.41 127.15C148.577 127.326 148.558 127.62 148.391 127.776C148.298 127.835 148.187 127.874 148.094 127.874Z" fill="white"/>
<path d="M151.954 106.852C151.88 106.852 151.824 106.832 151.75 106.793L107.847 81.977C107.662 81.8596 107.569 81.6249 107.662 81.4098C107.754 81.1947 107.977 81.097 108.181 81.1556L152.9 96.4089C153.123 96.4872 153.234 96.7414 153.178 96.9761C153.104 97.2107 152.863 97.328 152.64 97.2694L112.393 83.5414L152.158 106.011C152.362 106.128 152.436 106.402 152.325 106.617C152.251 106.773 152.102 106.852 151.954 106.852Z" fill="white"/>
<path d="M153.475 88.6454C153.457 88.6454 153.438 88.6454 153.42 88.6454L107.977 82.0356C107.755 81.9965 107.606 81.8009 107.606 81.5663C107.625 81.3316 107.792 81.1556 108.014 81.136L154.181 79.0632C154.403 79.0827 154.607 79.2392 154.626 79.4934C154.626 79.7476 154.459 79.9432 154.218 79.9627L112.727 81.8205L153.531 87.7458C153.754 87.7849 153.921 88 153.884 88.2543C153.865 88.4889 153.698 88.6454 153.475 88.6454Z" fill="white"/>
<path d="M107.606 82.0356C107.42 82.0356 107.253 81.9183 107.198 81.7227C107.142 81.5076 107.235 81.273 107.439 81.1752L155.646 60.2507C155.869 60.153 156.11 60.2703 156.203 60.4854C156.296 60.7201 156.185 60.9743 155.98 61.0721L112.134 80.0996L154.886 70.4196C155.127 70.3805 155.331 70.5174 155.387 70.7521C155.442 70.9867 155.294 71.2214 155.071 71.2801L107.736 81.9965C107.662 82.0356 107.625 82.0356 107.606 82.0356Z" fill="white"/>
<path d="M108.033 82.0356C107.903 82.0356 107.773 81.9574 107.68 81.8401C107.55 81.6445 107.587 81.3903 107.773 81.2338L157.242 40.0498C157.428 39.8934 157.688 39.9325 157.836 40.1281C157.984 40.3236 157.947 40.5974 157.762 40.7538L113.173 77.8703L156.351 51.0205C156.556 50.8836 156.815 50.9618 156.927 51.177C157.038 51.3921 156.982 51.6658 156.778 51.7832L108.237 81.977C108.181 82.0161 108.107 82.0356 108.033 82.0356Z" fill="white"/>
<path d="M108.033 82.0356C107.922 82.0356 107.81 81.9965 107.736 81.8987C107.569 81.7227 107.587 81.4294 107.754 81.273L157.966 31.3281C158.133 31.1521 158.411 31.1716 158.56 31.3476C158.727 31.5236 158.708 31.8169 158.541 31.9734L108.33 81.9183C108.256 81.9965 108.144 82.0356 108.033 82.0356Z" fill="white"/>
<path d="M113.136 145.963C113.099 145.963 113.043 145.963 113.006 145.943C112.783 145.865 112.653 145.611 112.727 145.376L122.042 114.42C122.098 114.205 122.321 114.068 122.506 114.107C122.71 114.146 122.859 114.322 122.859 114.537V140.683C122.859 140.937 122.673 141.133 122.432 141.133C122.191 141.133 122.005 140.937 122.005 140.683V117.412L113.525 145.63C113.488 145.845 113.321 145.963 113.136 145.963Z" fill="white"/>
<path d="M90.702 157.579C90.6092 157.579 90.5164 157.54 90.4422 157.481C90.2566 157.325 90.2195 157.051 90.3679 156.855L122.117 114.283C122.246 114.107 122.488 114.048 122.673 114.185C122.859 114.302 122.914 114.556 122.822 114.772L104.953 150.167C104.841 150.382 104.582 150.46 104.377 150.343C104.173 150.226 104.099 149.952 104.21 149.737L119.834 118.761L91.036 157.403C90.9618 157.52 90.8319 157.579 90.702 157.579Z" fill="white"/>
<path d="M78.0285 159.808C77.9171 159.808 77.8058 159.769 77.7316 159.671C77.5646 159.495 77.5832 159.221 77.7502 159.045L117.478 118.976L78.214 149.365C78.0285 149.502 77.7687 149.463 77.6203 149.268C77.4904 149.072 77.5275 148.798 77.7131 148.642L122.209 114.185C122.395 114.048 122.636 114.068 122.784 114.263C122.933 114.439 122.914 114.713 122.747 114.869L78.3254 159.671C78.2326 159.769 78.1213 159.808 78.0285 159.808Z" fill="white"/>
<path d="M78.3625 139.236C78.214 139.236 78.0656 139.157 77.9914 139.001C77.8801 138.786 77.9729 138.512 78.177 138.395L118.09 116.453L78.4924 129.419C78.2697 129.497 78.0285 129.36 77.9543 129.125C77.88 128.891 78.01 128.636 78.2326 128.558L122.321 114.107C122.525 114.048 122.747 114.146 122.84 114.361C122.914 114.576 122.84 114.811 122.655 114.928L78.5666 139.157C78.4924 139.216 78.4367 139.236 78.3625 139.236Z" fill="white"/>
<path d="M78.7522 120.228C78.5481 120.228 78.3625 120.052 78.3254 119.837C78.3068 119.582 78.4738 119.367 78.6965 119.348L117.904 114.654L82.4447 111.936C82.2592 111.916 82.1107 111.799 82.0736 111.623C82.0179 111.447 82.0921 111.252 82.2406 111.134L111.224 89.0756C111.41 88.9192 111.67 88.9778 111.818 89.1734C111.948 89.3689 111.911 89.6427 111.725 89.7992L83.6694 111.134L122.488 114.126C122.71 114.146 122.877 114.322 122.877 114.556C122.877 114.791 122.729 114.987 122.506 115.006L78.8078 120.228C78.7707 120.228 78.7707 120.228 78.7522 120.228Z" fill="white"/>
<path d="M82.4818 111.936C82.3148 111.936 82.1478 111.819 82.0922 111.643C82.018 111.428 82.1107 111.193 82.3148 111.095L114.082 95.3725C114.286 95.2552 114.546 95.3725 114.639 95.5876C114.731 95.8027 114.639 96.0765 114.435 96.1743L86.4713 110L117.125 102.139C117.348 102.061 117.589 102.217 117.626 102.471C117.682 102.706 117.552 102.96 117.311 102.999L82.5746 111.897C82.5375 111.936 82.5004 111.936 82.4818 111.936Z" fill="white"/>
<path d="M82.4818 111.936C82.2592 111.936 82.0736 111.76 82.0551 111.525C82.0365 111.271 82.2035 111.056 82.4447 111.037L119.556 107.575C119.778 107.536 120.001 107.732 120.02 107.986C120.038 108.24 119.871 108.455 119.63 108.475L82.519 111.936C82.5004 111.936 82.4818 111.936 82.4818 111.936Z" fill="white"/>
</svg>
