<svg width="167" height="176" viewBox="0 0 167 176" fill="none" xmlns="http://www.w3.org/2000/svg">
<path d="M83.0983 34.9654C82.6345 34.9654 82.2634 34.5742 82.2634 34.0658V8.7218C82.2634 8.23292 82.6345 7.82227 83.0983 7.82227C83.5622 7.82227 83.9519 8.21336 83.9519 8.7218V34.0658C83.9519 34.5547 83.5622 34.9654 83.0983 34.9654Z" fill="white"/>
<path d="M83.0983 138.317C82.6345 138.317 82.2634 137.925 82.2634 137.417V119.172C82.2634 118.683 82.6345 118.272 83.0983 118.272C83.5622 118.272 83.9519 118.663 83.9519 119.172V137.417C83.9519 137.925 83.5622 138.317 83.0983 138.317Z" fill="white"/>
<path d="M34.5571 167.063C34.3901 167.063 34.2045 167.004 34.056 166.887C33.6849 166.594 33.5922 166.046 33.8705 165.636L48.0098 145.141C48.2882 144.75 48.8078 144.652 49.1974 144.946C49.5685 145.239 49.6613 145.787 49.3829 146.197L35.2436 166.692C35.0766 166.926 34.8168 167.063 34.5571 167.063Z" fill="white"/>
<path d="M131.64 167.063C131.38 167.063 131.12 166.926 130.953 166.692L116.814 146.197C116.536 145.806 116.628 145.239 116.999 144.946C117.371 144.652 117.909 144.75 118.187 145.141L132.326 165.636C132.605 166.027 132.512 166.594 132.141 166.887C131.992 167.004 131.807 167.063 131.64 167.063Z" fill="white"/>
<path d="M138.765 77.5965C138.412 77.5965 138.078 77.3618 137.967 76.9903C137.819 76.5209 138.06 76.0125 138.505 75.8756L161.384 68.0339C161.83 67.8774 162.312 68.1316 162.442 68.6009C162.59 69.0703 162.349 69.5787 161.904 69.7156L139.025 77.5574C138.932 77.577 138.858 77.5965 138.765 77.5965Z" fill="white"/>
<path d="M45.5047 109.531C45.1522 109.531 44.8182 109.296 44.7068 108.925C44.5584 108.455 44.7997 107.947 45.245 107.81L61.7038 102.178C62.1491 102.021 62.6316 102.276 62.7615 102.745C62.9099 103.214 62.6686 103.723 62.2233 103.86L45.7645 109.492C45.6903 109.511 45.5975 109.531 45.5047 109.531Z" fill="white"/>
<path d="M70.0353 77.7138C69.7755 77.7138 69.5157 77.5769 69.3487 77.3422L59.1803 62.5778C58.902 62.1867 58.9947 61.6196 59.3658 61.3262C59.7369 61.0329 60.2751 61.1307 60.5534 61.5218L70.7218 76.2863C71.0002 76.6774 70.9074 77.2445 70.5363 77.5378C70.3879 77.6551 70.2023 77.7138 70.0353 77.7138Z" fill="white"/>
<path d="M96.1615 77.7138C95.9945 77.7138 95.8089 77.6551 95.6605 77.5378C95.2894 77.2445 95.1967 76.6969 95.475 76.2863L105.643 61.5218C105.922 61.1307 106.441 61.0329 106.831 61.3262C107.202 61.6196 107.295 62.1671 107.016 62.5778L96.8481 77.3422C96.6811 77.5769 96.4213 77.7138 96.1615 77.7138Z" fill="white"/>
<path d="M120.692 109.531C120.599 109.531 120.525 109.511 120.432 109.492L103.973 103.86C103.528 103.703 103.287 103.214 103.435 102.745C103.584 102.276 104.066 102.021 104.493 102.178L120.952 107.81C121.397 107.966 121.638 108.455 121.49 108.925C121.378 109.296 121.044 109.531 120.692 109.531Z" fill="white"/>
<path d="M27.4316 77.5965C27.3388 77.5965 27.2647 77.577 27.1719 77.5574L4.2929 69.7156C3.84757 69.5592 3.60628 69.0703 3.75472 68.6009C3.90317 68.1316 4.36707 67.8774 4.8124 68.0339L27.6914 75.8756C28.1368 76.032 28.3779 76.5209 28.2295 76.9903C28.1182 77.3618 27.8027 77.5965 27.4316 77.5965Z" fill="white"/>
<path d="M83.0983 120.071C82.9313 120.071 82.7458 120.012 82.5974 119.895L61.4626 103.723C61.1657 103.488 61.0358 103.097 61.1472 102.725L69.2188 76.5405C69.3301 76.1689 69.6641 75.9342 70.0167 75.9342H96.1429C96.514 75.9342 96.8295 76.1885 96.9408 76.5405L105.012 102.725C105.124 103.097 104.994 103.488 104.697 103.723L83.5622 119.895C83.4509 120.012 83.2839 120.071 83.0983 120.071ZM62.947 102.667L83.0983 118.076L103.25 102.667L95.5491 77.7138H70.6476L62.947 102.667Z" fill="white"/>
<path d="M131.64 167.063H34.5571C34.186 167.063 33.8705 166.809 33.7591 166.457L3.75473 69.168C3.6434 68.7965 3.77337 68.4054 4.07026 68.1707L82.5974 8.03736C82.8943 7.80269 83.3025 7.80269 83.5993 8.03736L162.145 68.1707C162.442 68.4054 162.572 68.7965 162.46 69.168L132.456 166.457C132.326 166.809 132.011 167.063 131.64 167.063ZM35.1878 165.284H131.027L160.642 69.2071L83.0983 9.83649L5.55468 69.2071L35.1878 165.284Z" fill="white"/>
<path d="M117.5 146.569C117.445 146.569 117.37 146.569 117.315 146.549L83.0984 138.356L48.8819 146.549C48.6407 146.608 48.3995 146.549 48.1954 146.393C47.9912 146.236 47.8799 146.002 47.8428 145.748L44.6699 108.925L26.7081 77.1663C26.5782 76.9512 26.5596 76.6774 26.6338 76.4427C26.708 76.1885 26.875 75.9929 27.0977 75.8952L59.3473 61.3262L82.449 33.4987C82.7644 33.1076 83.3953 33.1076 83.7293 33.4987L106.831 61.3262L139.081 75.8952C139.303 75.9929 139.47 76.1885 139.544 76.4427C139.619 76.6969 139.6 76.9512 139.47 77.1663L121.508 108.925L118.335 145.748C118.317 146.002 118.187 146.236 117.983 146.393C117.853 146.51 117.686 146.569 117.5 146.569ZM83.0984 136.537C83.154 136.537 83.2283 136.537 83.284 136.556L116.74 144.574L119.838 108.553C119.857 108.416 119.894 108.299 119.95 108.181L137.522 77.1076L105.977 62.8712C105.866 62.8125 105.755 62.7343 105.681 62.6365L83.0798 35.4151L60.4791 62.6365C60.4049 62.7343 60.2936 62.8125 60.1823 62.8712L28.6378 77.1076L46.2099 108.181C46.2841 108.299 46.3212 108.416 46.3212 108.553L49.4201 144.574L82.8757 136.556C82.9685 136.537 83.0427 136.537 83.0984 136.537Z" fill="white"/>
<path d="M46.581 149.17C46.3954 149.17 46.2285 149.033 46.1728 148.837L27.0235 76.8143C26.9678 76.5796 27.0976 76.3254 27.3203 76.2667C27.543 76.1885 27.7842 76.3449 27.8399 76.5796L46.9893 148.603C47.0449 148.837 46.915 149.092 46.6923 149.15C46.6552 149.17 46.6181 149.17 46.581 149.17Z" fill="white"/>
<path d="M41.9793 155.877C41.7752 155.877 41.6081 155.721 41.571 155.525L27.0421 76.8142C27.005 76.5796 27.1534 76.3449 27.3761 76.2863C27.6359 76.2276 27.8213 76.4036 27.877 76.6382L42.406 155.349C42.4432 155.584 42.2947 155.819 42.0721 155.877C42.0164 155.877 41.9979 155.877 41.9793 155.877Z" fill="white"/>
<path d="M37.0064 163.054C36.8023 163.054 36.6166 162.898 36.5795 162.663L27.0049 76.7556C26.9863 76.5014 27.1348 76.2862 27.376 76.2667C27.5987 76.208 27.8214 76.4232 27.8399 76.6578L37.4145 162.565C37.4331 162.82 37.2846 163.035 37.0434 163.054C37.0434 163.054 37.0249 163.054 37.0064 163.054Z" fill="white"/>
<path d="M29.6584 150.715C29.4357 150.715 29.2502 150.519 29.2316 150.284L27.0049 76.7165C27.0049 76.4623 27.1719 76.2667 27.4131 76.2667C27.4131 76.2667 27.4131 76.2667 27.4317 76.2667C27.6543 76.2667 27.84 76.4623 27.8585 76.6969L30.0851 150.265C30.1037 150.519 29.9181 150.715 29.6584 150.715C29.6769 150.715 29.6769 150.715 29.6584 150.715Z" fill="white"/>
<path d="M23.498 130.709C23.4794 130.709 23.4795 130.709 23.4609 130.709C23.2197 130.69 23.0527 130.475 23.0712 130.24L27.0236 76.6969C27.0421 76.4427 27.2462 76.2472 27.4689 76.2863C27.7101 76.3058 27.8771 76.5209 27.8586 76.7556L23.9062 130.299C23.9062 130.533 23.7206 130.709 23.498 130.709Z" fill="white"/>
<path d="M19.6941 118.37C19.6755 118.37 19.6384 118.37 19.6199 118.37C19.3972 118.331 19.2488 118.096 19.2859 117.842L25.9473 82.4071L17.0778 108.299C17.0036 108.533 16.7623 108.651 16.5396 108.572C16.3169 108.494 16.2056 108.24 16.2798 108.005L27.0421 76.56C27.1163 76.3449 27.3389 76.2276 27.543 76.2863C27.7657 76.345 27.8956 76.5796 27.84 76.7947L20.0838 118.018C20.0652 118.213 19.8796 118.37 19.6941 118.37Z" fill="white"/>
<path d="M14.1088 100.281C14.0346 100.281 13.9604 100.261 13.8862 100.222C13.6821 100.085 13.6264 99.8311 13.7377 99.616L25.5576 79.1023L11.9193 92.1458C11.7523 92.3022 11.4739 92.3023 11.3255 92.1067C11.1771 91.9307 11.1771 91.6374 11.3627 91.4809L27.1534 76.3644C27.3204 76.208 27.5431 76.208 27.7101 76.3449C27.8771 76.4818 27.9142 76.736 27.8028 76.912L14.48 100.046C14.3872 100.203 14.2573 100.281 14.1088 100.281Z" fill="white"/>
<path d="M9.61839 85.6925C9.45139 85.6925 9.3029 85.5947 9.22868 85.4382C9.1359 85.2036 9.22876 84.9493 9.43288 84.8515L25.3349 77.2249L7.16904 77.792C7.16904 77.792 7.16902 77.792 7.15047 77.792C6.9278 77.792 6.74228 77.5965 6.72372 77.3618C6.72372 77.1076 6.89067 76.912 7.13189 76.912L27.3946 76.2667C27.5616 76.2471 27.7657 76.4036 27.8214 76.6187C27.8585 76.8338 27.7657 77.0294 27.5801 77.1271L9.76686 85.6729C9.72975 85.6925 9.67405 85.6925 9.61839 85.6925Z" fill="white"/>
<path d="M47.4717 131.785C47.3047 131.785 47.1377 131.668 47.082 131.492L27.0606 76.8729C26.9679 76.6383 27.0791 76.384 27.3018 76.3058C27.5244 76.208 27.7657 76.3254 27.8399 76.5601L47.8613 131.179C47.9541 131.413 47.8428 131.668 47.6201 131.746C47.5644 131.765 47.5089 131.785 47.4717 131.785Z" fill="white"/>
</svg>
