<svg width="167" height="176" viewBox="0 0 167 176" fill="none" xmlns="http://www.w3.org/2000/svg">
<path d="M63.8542 129.491C63.634 129.491 63.3954 129.393 63.2486 129.217C63.0283 128.963 62.9549 128.591 63.0834 128.278L89.6749 59.8142C89.7484 59.6382 89.8585 59.5013 90.0053 59.4035L126.562 34.4506C126.819 34.2746 127.149 34.2551 127.424 34.4311C127.7 34.5875 127.865 34.9004 127.846 35.2328L126.268 106.728C126.268 107.1 126.03 107.432 125.699 107.549L64.1478 129.471C64.0377 129.491 63.9459 129.491 63.8542 129.491ZM91.1064 60.7333L65.3223 127.144L124.598 106.044L126.121 36.8364L91.1064 60.7333Z" fill="white"/>
<path d="M62.5879 175.427H62.5696C62.1108 175.407 61.7437 174.996 61.7621 174.508L63.01 128.982L31.3167 96.8719C31.1699 96.7155 31.0781 96.52 31.0598 96.3048L25.5176 29.0337C25.4992 28.7208 25.6277 28.408 25.8663 28.232C26.1048 28.056 26.4168 28.0168 26.6921 28.1537L90.776 59.3448C91.1981 59.5404 91.3816 60.088 91.1798 60.5182C90.9963 60.968 90.4824 61.1635 90.0787 60.9484L27.316 30.3831L32.6931 95.8159L64.4231 127.965C64.5882 128.141 64.6984 128.376 64.68 128.63L63.4137 174.547C63.4137 175.036 63.0467 175.427 62.5879 175.427Z" fill="white"/>
<path d="M123.46 167.663C123.46 167.663 123.442 167.663 123.424 167.663C122.965 167.643 122.598 167.233 122.616 166.744L124.561 106.65C124.58 106.278 124.8 105.965 125.112 105.848L160.09 92.4133C160.531 92.2373 161.008 92.4915 161.155 92.9413C161.32 93.4106 161.081 93.9191 160.659 94.0755L126.213 107.295L124.286 166.783C124.286 167.291 123.919 167.663 123.46 167.663Z" fill="white"/>
<path d="M136.747 19.2755C136.747 19.2755 136.729 19.2755 136.71 19.2755L87.069 17.3591C86.9773 17.3591 86.8671 17.3395 86.7754 17.2808L56.5502 3.67016C56.1281 3.47461 55.9263 2.96617 56.1098 2.49683C56.2933 2.04706 56.7888 1.83194 57.2109 2.0275L87.2892 15.5599L136.765 17.4568C137.224 17.4764 137.591 17.8871 137.573 18.3759C137.573 18.8844 137.206 19.2755 136.747 19.2755Z" fill="white"/>
<path d="M142.766 73.5617C142.454 73.5617 142.142 73.3662 142.014 73.0337L126.378 35.8586L87.0323 17.3982L26.5086 29.8159C26.1232 29.8746 25.7194 29.6595 25.5726 29.2684L20.6727 16.127C20.5076 15.6773 20.7094 15.1493 21.1315 14.9733C21.5536 14.7973 22.0491 15.0124 22.2143 15.4622L26.8756 27.9386L86.9589 15.5991C87.1241 15.5599 87.2892 15.5795 87.4544 15.6577L127.333 34.3724C127.516 34.4506 127.681 34.6266 127.755 34.8222L143.519 72.3102C143.702 72.7599 143.519 73.2879 143.097 73.4835C143.005 73.5422 142.876 73.5617 142.766 73.5617Z" fill="white"/>
<path d="M62.5879 175.427C62.331 175.427 62.0924 175.309 61.9273 175.075L27.7565 127.77L13.7175 126.46C13.3137 126.42 13.0018 126.088 12.9651 125.677L7.42285 72.4471C7.42285 72.4275 7.42285 72.408 7.42285 72.3884C7.42285 72.3102 7.42286 72.2319 7.45956 72.1342L20.636 15.5991C20.7095 15.3057 20.9113 15.0711 21.1682 14.9733L56.6236 2.04706C56.7337 2.00795 56.8438 1.98839 56.954 2.00795L96.8321 4.92172L137.004 17.5546C137.316 17.6524 137.554 17.9457 137.591 18.2977L143.574 72.3102L161.008 92.6675C161.155 92.8435 161.228 93.0586 161.228 93.2933L160.164 134.321C160.164 134.575 160.054 134.81 159.87 134.966L123.993 167.448C123.864 167.565 123.717 167.624 123.552 167.663L62.6797 175.427C62.6613 175.427 62.6246 175.427 62.5879 175.427ZM29.0778 126.675L62.9733 173.588L123.13 165.923L158.53 133.871L159.558 93.5866L142.161 73.2879C142.051 73.1511 141.977 72.9751 141.94 72.7991L135.995 19.08L96.5385 6.66217L57.009 3.76794L22.1409 16.4791L9.18461 72.0559L32.4545 95.5813C32.6564 95.7768 32.7481 96.0506 32.7114 96.344L29.0778 126.675ZM14.5433 124.758L27.4629 125.971L31.0047 96.5786L9.33142 74.6764L14.5433 124.758Z" fill="white"/>
<path d="M63.2119 152.332C63.0651 152.332 62.9366 152.253 62.8448 152.116L31.5186 96.4613C31.4085 96.2657 31.4635 95.992 31.647 95.8551C31.8306 95.7182 32.0691 95.7573 32.2159 95.9528L63.8542 140.481C64.001 140.676 63.9643 140.95 63.7808 141.107C63.5973 141.263 63.3403 141.224 63.1935 141.028L36.235 103.071L63.5789 151.647C63.689 151.862 63.634 152.136 63.4321 152.253C63.3587 152.312 63.2853 152.332 63.2119 152.332Z" fill="white"/>
<path d="M54.2746 163.478C54.1095 163.478 53.9443 163.361 53.8892 163.185L31.5002 96.3831C31.4268 96.168 31.5186 95.9137 31.7204 95.816C31.9223 95.7182 32.1609 95.816 32.2526 96.0311L63.3036 161.953C63.4137 162.168 63.322 162.442 63.1201 162.54C62.9182 162.657 62.6613 162.559 62.5512 162.344L34.5833 102.954L54.6784 162.891C54.7518 163.126 54.6417 163.38 54.4214 163.459C54.3847 163.478 54.3297 163.478 54.2746 163.478Z" fill="white"/>
<path d="M43.0801 147.971C42.8966 147.971 42.7131 147.834 42.6764 147.619L32.5463 101.194L34.1612 134.556C34.1796 134.81 33.996 135.005 33.7575 135.025C33.5189 135.005 33.3354 134.849 33.317 134.595L31.4635 96.2266C31.4452 95.9919 31.6103 95.7964 31.8306 95.7573C32.0141 95.7377 32.2526 95.8746 32.2894 96.0897L43.4839 147.384C43.5389 147.619 43.3921 147.873 43.1719 147.912C43.1535 147.971 43.1168 147.971 43.0801 147.971Z" fill="white"/>
<path d="M63.8542 129.06C63.7257 129.06 63.6156 129.002 63.5238 128.904C63.377 128.728 63.3954 128.454 63.5606 128.298L125.956 68.5946C126.121 68.4382 126.397 68.4382 126.543 68.6337C126.69 68.8097 126.69 69.1031 126.507 69.2595L69.9102 123.428L125.718 80.5626C125.901 80.4062 126.158 80.4648 126.305 80.6604C126.433 80.8559 126.397 81.1297 126.213 81.2862L64.0744 129.002C64.0193 129.021 63.9459 129.06 63.8542 129.06Z" fill="white"/>
<path d="M64.8085 128.552C64.6617 128.552 64.5148 128.454 64.4414 128.298C64.3497 128.083 64.4231 127.828 64.6066 127.711L125.552 91.1226C125.754 91.0053 126.011 91.0835 126.121 91.2986C126.231 91.5137 126.158 91.7875 125.956 91.9048L73.3053 123.526L125.424 98.3582C125.644 98.2604 125.883 98.3582 125.975 98.5733C126.066 98.7884 125.975 99.0622 125.773 99.1599L64.992 128.513C64.9186 128.532 64.8635 128.552 64.8085 128.552Z" fill="white"/>
<path d="M105.861 88.8737C105.806 88.8737 105.751 88.8542 105.696 88.8346C105.476 88.7368 105.384 88.4826 105.476 88.2479L126.617 35.0177C126.709 34.8026 126.929 34.7048 127.131 34.7635C127.333 34.8417 127.461 35.0764 127.406 35.2915L116.854 78.3919C116.799 78.6266 116.578 78.7831 116.34 78.7048C116.12 78.6462 115.991 78.3919 116.046 78.1573L125.149 40.9822L106.246 88.5804C106.173 88.7564 106.026 88.8737 105.861 88.8737Z" fill="white"/>
<path d="M77.5812 115.919C77.5078 115.919 77.416 115.899 77.3426 115.841C77.1591 115.704 77.1041 115.43 77.2142 115.215L126.617 34.9395C126.745 34.7439 126.984 34.6853 127.186 34.8026C127.388 34.9199 127.443 35.1937 127.333 35.3893L94.7767 99.5511C94.6666 99.7662 94.4097 99.8444 94.2078 99.7271C94.0059 99.6097 93.9325 99.336 94.0426 99.1208L121.919 44.1893L77.9115 115.704C77.8565 115.841 77.728 115.919 77.5812 115.919Z" fill="white"/>
<path d="M63.8542 129.06C63.7808 129.06 63.7074 129.041 63.634 129.002C63.4321 128.865 63.377 128.591 63.5055 128.396L108.504 51.4444L78.6089 91.8071C78.4621 92.0026 78.2052 92.0417 78.0217 91.8853C77.8381 91.7288 77.8014 91.4551 77.9482 91.2595L112.504 44.6195C112.651 44.424 112.89 44.4044 113.073 44.5217C113.257 44.6586 113.312 44.9128 113.183 45.128L64.2212 128.865C64.1295 128.982 64.001 129.06 63.8542 129.06Z" fill="white"/>
<path d="M105.861 69.9831C105.824 69.9831 105.788 69.9831 105.733 69.9635C105.512 69.8853 105.384 69.6506 105.457 69.416L112.413 44.7368C112.468 44.5413 112.651 44.3848 112.853 44.424C113.055 44.4435 113.202 44.6195 113.22 44.8346L114.156 56.6657C114.174 56.92 114.009 57.1351 113.771 57.1546C113.514 57.1937 113.33 56.9982 113.312 56.744L112.578 47.2204L106.246 69.6506C106.21 69.8657 106.026 69.9831 105.861 69.9831Z" fill="white"/>
<path d="M118.983 48.648C118.909 48.648 118.854 48.6284 118.799 48.6088L112.633 45.2648C112.486 45.1866 112.394 45.0106 112.413 44.8346C112.431 44.6586 112.541 44.5022 112.706 44.4435L123.038 41.0213C123.258 40.9431 123.497 41.08 123.552 41.3146C123.625 41.5493 123.497 41.8035 123.277 41.8622L113.936 44.9715L119.184 47.8266C119.386 47.9439 119.478 48.1982 119.368 48.4328C119.276 48.5697 119.129 48.648 118.983 48.648Z" fill="white"/>
<path d="M85.3073 73.7964C85.1972 73.7964 85.087 73.7573 85.0136 73.6595C84.8485 73.4835 84.8485 73.2097 85.0136 73.0337L112.523 44.5413C112.688 44.3653 112.945 44.3653 113.11 44.5413C113.275 44.7173 113.275 44.9911 113.11 45.1671L85.6009 73.6595C85.5275 73.7573 85.4174 73.7964 85.3073 73.7964Z" fill="white"/>
<path d="M159.338 134.732C159.191 134.732 159.026 134.634 158.971 134.477L143.06 99.9617C142.95 99.7466 143.042 99.4728 143.243 99.3751C143.445 99.2773 143.702 99.3555 143.794 99.5706L158.163 130.723L151.043 96.7742C150.988 96.5395 151.135 96.3048 151.355 96.2462C151.575 96.1875 151.795 96.3439 151.85 96.5786L159.742 134.184C159.797 134.399 159.668 134.634 159.466 134.692C159.43 134.732 159.375 134.732 159.338 134.732Z" fill="white"/>
<path d="M159.338 134.732C159.246 134.732 159.154 134.692 159.081 134.634L126.745 106.435C126.562 106.278 126.543 106.004 126.69 105.809C126.837 105.613 127.094 105.594 127.277 105.75L156.475 131.231L135.205 103.091C135.059 102.895 135.095 102.621 135.26 102.465C135.444 102.308 135.701 102.348 135.848 102.524L159.65 134.008C159.778 134.184 159.778 134.438 159.613 134.595C159.54 134.692 159.448 134.732 159.338 134.732Z" fill="white"/>
<path d="M159.338 134.732C159.301 134.732 159.264 134.732 159.228 134.712L124.727 125.306C124.506 125.247 124.36 124.993 124.433 124.758C124.488 124.524 124.708 124.367 124.947 124.445L155.888 132.874L124.947 115.88C124.745 115.763 124.653 115.508 124.763 115.274C124.873 115.059 125.13 114.961 125.332 115.078L159.54 133.871C159.723 133.969 159.815 134.204 159.742 134.419C159.668 134.614 159.503 134.732 159.338 134.732Z" fill="white"/>
<path d="M124.231 143.61C124.048 143.61 123.864 143.473 123.827 143.277C123.772 143.043 123.919 142.788 124.139 142.749L156.071 134.673L124.543 133.969C124.305 133.969 124.121 133.754 124.139 133.519C124.139 133.265 124.378 133.05 124.561 133.089L159.356 133.871C159.558 133.871 159.742 134.047 159.76 134.262C159.778 134.477 159.65 134.692 159.448 134.751L124.341 143.629C124.286 143.61 124.268 143.61 124.231 143.61Z" fill="white"/>
<path d="M123.901 153.622C123.754 153.622 123.607 153.524 123.534 153.368C123.424 153.153 123.515 152.879 123.717 152.781L159.154 133.891C159.356 133.773 159.613 133.871 159.705 134.086C159.815 134.301 159.723 134.575 159.521 134.673L124.084 153.564C124.029 153.603 123.974 153.622 123.901 153.622Z" fill="white"/>
<path d="M138.802 35.5653C138.362 35.5653 134.6 34.1964 86.9956 16.8897C86.7937 16.8115 86.6653 16.5768 86.7203 16.3422C86.7754 16.1075 86.9773 15.9706 87.1975 16.0293L137.811 26.8239C138.032 26.8631 138.178 27.0977 138.142 27.3519C138.105 27.5866 137.885 27.7626 137.646 27.7039L93.2535 18.2391C106.779 23.1475 138.38 34.6462 138.729 34.7635L138.6 35.1742L138.839 35.5457C138.839 35.5653 138.839 35.5653 138.802 35.5653Z" fill="white"/>
<path d="M139.683 45.3039C139.61 45.3039 139.536 45.2844 139.481 45.2453L127.92 38.2639C127.718 38.1466 127.645 37.8728 127.755 37.6577C127.865 37.4426 128.122 37.3644 128.324 37.4817L139.885 44.463C140.087 44.5804 140.16 44.8542 140.05 45.0693C139.977 45.2257 139.83 45.3039 139.683 45.3039Z" fill="white"/>
<path d="M140.949 56.6657C140.839 56.6657 140.748 56.6266 140.656 56.5484L131.627 47.2008C131.462 47.0248 131.462 46.7511 131.627 46.5751C131.792 46.3991 132.049 46.3991 132.214 46.5751L141.243 55.9226C141.408 56.0986 141.408 56.3724 141.243 56.5484C141.17 56.6266 141.06 56.6657 140.949 56.6657Z" fill="white"/>
</svg>
