<svg width="167" height="176" viewBox="0 0 167 176" fill="none" xmlns="http://www.w3.org/2000/svg">
<path d="M100.48 157.286C100.258 157.286 100.035 157.188 99.8681 157.012L86.8792 142.326L10.8571 123.827C10.4674 123.729 10.189 123.338 10.2076 122.907L13.0837 62.1483L5.58728 23.8194C5.53162 23.5652 5.58728 23.2914 5.75428 23.0959C5.90272 22.8808 6.14394 22.7634 6.38516 22.7634L43.8303 21.5901L90.3862 19.5563L90.8129 19.5759L105.323 20.2799H146.35L161.12 21.1599C161.435 21.1794 161.714 21.375 161.844 21.6683C161.973 21.9617 161.936 22.3137 161.751 22.5875L135.254 59.1172V112.993C135.254 113.11 135.235 113.227 135.179 113.345L125.679 136.518C125.623 136.655 125.53 136.772 125.419 136.87L100.981 157.091C100.852 157.227 100.666 157.286 100.48 157.286ZM100.573 155.194L124.232 135.619L133.565 112.836V58.8239C133.565 58.6283 133.621 58.4328 133.732 58.2763L159.431 22.8221L146.294 22.0399H105.268L91.1098 21.3554L37.0761 83.4443L100.573 155.194ZM11.9147 122.262L84.8195 139.999L35.3318 84.0506C35.0349 83.7181 35.0349 83.1901 35.3318 82.8381L88.8275 21.3946L43.886 23.3501L7.44284 24.4843L14.7537 61.8941C14.7723 61.9723 14.7723 62.0506 14.7723 62.1092L11.9147 122.262Z" fill="white"/>
<path d="M100.48 157.286C100.054 157.286 99.7011 156.954 99.6454 156.504L90.6831 82.7599L89.9223 20.4559C89.9223 19.967 90.2934 19.5563 90.7573 19.5563C91.1284 19.5368 91.6109 19.9474 91.6109 20.4363L92.3531 82.6426L101.297 156.289C101.353 156.778 101.037 157.227 100.573 157.286C100.555 157.286 100.518 157.286 100.48 157.286Z" fill="white"/>
<path d="M43.9045 75.1919C43.8117 75.1919 43.7004 75.1723 43.6076 75.1332L13.6219 62.911C13.1951 62.735 12.9724 62.2266 13.1394 61.7572C13.3064 61.3074 13.8074 61.0728 14.2342 61.2488L44.22 73.471C44.6468 73.647 44.8694 74.1555 44.7024 74.6248C44.554 74.9768 44.2385 75.1919 43.9045 75.1919Z" fill="white"/>
<path d="M47.2259 132.646C46.8363 132.646 46.5023 132.372 46.4095 131.962L35.1277 83.6399C35.0164 83.1706 35.2947 82.6817 35.7401 82.5643C36.1854 82.447 36.6493 82.7403 36.7606 83.2097L48.0424 131.531C48.1537 132.001 47.8754 132.49 47.4301 132.607C47.3559 132.646 47.3002 132.646 47.2259 132.646Z" fill="white"/>
<path d="M63.2765 52.9181C62.9982 52.9181 62.7384 52.7812 62.5714 52.5074L44.2386 22.8808C43.9788 22.4701 44.0901 21.9226 44.4797 21.6488C44.8694 21.375 45.389 21.4923 45.6487 21.903L63.9816 51.5297C64.2414 51.9403 64.1301 52.4879 63.7404 52.7617C63.592 52.879 63.425 52.9181 63.2765 52.9181Z" fill="white"/>
<path d="M91.5181 83.5421C91.147 83.5421 90.7944 83.2879 90.7016 82.8772C90.5717 82.4079 90.8501 81.919 91.2954 81.7821L115.752 74.9181L133.843 58.1395C134.196 57.807 134.734 57.8461 135.031 58.2177C135.346 58.5892 135.309 59.1563 134.957 59.4692L116.717 76.3848C116.624 76.4826 116.494 76.5412 116.382 76.5803L91.7407 83.503C91.6665 83.5421 91.5923 83.5421 91.5181 83.5421Z" fill="white"/>
<path d="M124.9 137.066C124.491 137.066 124.12 136.753 124.065 136.303L115.325 75.8763C115.306 75.7199 115.325 75.5439 115.381 75.407L122.654 57.103L113.117 59.1368C112.671 59.215 112.208 58.9217 112.115 58.4328C112.022 57.9439 112.319 57.4746 112.783 57.3768L123.879 55.0106C124.176 54.9323 124.491 55.0692 124.695 55.3234C124.899 55.5777 124.937 55.9297 124.825 56.223L117.013 75.8372L125.734 136.029C125.809 136.518 125.493 136.968 125.029 137.046C124.992 137.066 124.955 137.066 124.9 137.066Z" fill="white"/>
<path d="M105.064 79.7483C104.952 79.7483 104.86 79.7288 104.748 79.6897C104.321 79.5137 104.099 78.9857 104.284 78.5359L111.818 58.8826L90.9243 52.9181C90.4789 52.7812 90.2007 52.2923 90.3305 51.823C90.4604 51.3537 90.9058 51.0603 91.3696 51.1972L113.172 57.4159C113.414 57.4746 113.599 57.6506 113.711 57.8852C113.822 58.1199 113.822 58.3741 113.729 58.6088L105.843 79.2008C105.713 79.5332 105.398 79.7483 105.064 79.7483Z" fill="white"/>
<path d="M112.968 59.1563C112.579 59.1563 112.226 58.863 112.152 58.4523L104.47 21.3554C104.377 20.8665 104.655 20.3972 105.119 20.2994C105.583 20.1821 106.029 20.495 106.121 20.9839L113.803 58.0808C113.896 58.5697 113.618 59.039 113.154 59.1368C113.08 59.1368 113.024 59.1563 112.968 59.1563Z" fill="white"/>
<path d="M124.046 56.7901C123.879 56.7901 123.731 56.751 123.582 56.6337C123.192 56.3599 123.081 55.8123 123.341 55.4017L145.107 20.6514C145.366 20.2408 145.886 20.1234 146.276 20.3972C146.665 20.671 146.777 21.2186 146.517 21.6292L124.751 56.3795C124.603 56.6532 124.324 56.7901 124.046 56.7901Z" fill="white"/>
<path d="M84.0402 141.172C83.9474 141.172 83.8732 141.153 83.799 141.094L41.6779 109.414C41.4923 109.277 41.4366 108.984 41.5851 108.788C41.715 108.593 41.9748 108.534 42.1789 108.691L78.9746 136.362L38.7461 96.9572C38.5791 96.7812 38.5606 96.5074 38.7276 96.3314C38.8946 96.1554 39.1543 96.1554 39.3213 96.3119L84.3557 140.41C84.5227 140.566 84.5412 140.84 84.3928 141.016C84.3 141.114 84.1701 141.172 84.0402 141.172Z" fill="white"/>
<path d="M83.5392 140.781C83.4836 140.781 83.4279 140.781 83.3907 140.742L45.4075 124.961C45.1849 124.863 45.0921 124.609 45.1663 124.394C45.2591 124.159 45.5003 124.042 45.7044 124.139L77.4159 137.3L43.7004 117.882C43.4963 117.764 43.4221 117.491 43.5334 117.275C43.6448 117.06 43.9046 116.982 44.1087 117.099L83.7433 139.921C83.9474 140.038 84.0216 140.292 83.9289 140.507C83.8546 140.683 83.6877 140.781 83.5392 140.781Z" fill="white"/>
<path d="M115.807 144.145C115.622 144.145 115.455 144.008 115.399 143.812L100.072 80.2372C100.017 80.0025 100.146 79.7679 100.351 79.7092C100.555 79.631 100.796 79.7483 100.87 79.983L121.894 138.826C121.968 139.06 121.875 139.315 121.652 139.393C121.43 139.471 121.188 139.373 121.114 139.139L102.763 87.7661L116.216 143.578C116.271 143.812 116.141 144.067 115.9 144.125C115.882 144.145 115.844 144.145 115.807 144.145Z" fill="white"/>
<path d="M108.292 150.363C108.088 150.363 107.903 150.187 107.866 149.972L100.61 85.3021L98.1053 133.565C98.0868 133.8 97.9012 133.976 97.6785 133.976H97.66C97.4187 133.956 97.2517 133.761 97.2703 133.507L100.054 80.0808C100.072 79.8461 100.239 79.6701 100.462 79.6701C100.462 79.6701 100.462 79.6701 100.48 79.6701C100.703 79.6701 100.87 79.8461 100.907 80.0612L108.719 149.855C108.756 150.09 108.589 150.324 108.348 150.344C108.329 150.363 108.311 150.363 108.292 150.363Z" fill="white"/>
<path d="M94.6169 108.573C94.5798 108.573 94.5612 108.573 94.5241 108.573C94.3014 108.515 94.153 108.28 94.2087 108.045L99.4784 82.9359L93.2995 94.3759C93.1881 94.591 92.9283 94.6692 92.7242 94.5323C92.5201 94.415 92.4459 94.1412 92.5758 93.9261L100.146 79.9439C100.239 79.7483 100.462 79.6701 100.666 79.7483C100.852 79.8266 100.963 80.0417 100.926 80.2568L95.0622 108.241C94.988 108.436 94.8024 108.573 94.6169 108.573Z" fill="white"/>
<path d="M123.007 123.455C122.84 123.455 122.673 123.338 122.617 123.162C122.19 122.184 107.736 94.767 100.109 80.3546C99.998 80.159 100.054 79.9048 100.239 79.7679C100.406 79.631 100.666 79.6701 100.796 79.8461L120.65 104.251C120.799 104.447 120.78 104.721 120.613 104.877C120.428 105.034 120.168 105.014 120.019 104.838L102.893 83.7768C123.378 122.595 123.415 122.829 123.434 122.927C123.471 123.162 123.304 123.396 123.081 123.435C123.044 123.455 123.025 123.455 123.007 123.455Z" fill="white"/>
<path d="M118.387 91.5403C118.312 91.5403 118.238 91.5208 118.182 91.4817L100.276 80.5306C100.091 80.4132 100.017 80.1981 100.091 79.983C100.165 79.7875 100.351 79.6506 100.555 79.7092L117.347 83.0141C117.57 83.0532 117.737 83.2879 117.681 83.5421C117.644 83.7768 117.44 83.9528 117.18 83.8941L102.781 81.0781L118.572 90.7386C118.776 90.8559 118.85 91.1297 118.721 91.3448C118.665 91.4621 118.535 91.5403 118.387 91.5403Z" fill="white"/>
<path d="M125.716 67.311C125.642 67.311 125.549 67.2914 125.493 67.2328C125.419 67.1741 125.345 67.135 125.363 66.8612H125.289L125.215 53.3288C125.215 53.0746 125.401 52.879 125.642 52.879C125.883 52.879 126.069 53.0746 126.069 53.3288L126.124 63.6932C127.052 60.3883 129.019 53.8568 132.953 40.8915C133.027 40.6568 133.25 40.5395 133.491 40.5981C133.713 40.6763 133.843 40.9306 133.769 41.1652C130.819 50.8843 126.403 65.551 126.143 66.8221V66.8612C126.143 66.9981 126.087 67.1154 125.994 67.1937C125.92 67.2719 125.827 67.311 125.716 67.311Z" fill="white"/>
<path d="M125.716 67.311C125.623 67.311 125.53 67.2719 125.456 67.2132L120.947 63.3999C120.762 63.2434 120.743 62.9697 120.873 62.7741C121.021 62.5786 121.281 62.559 121.467 62.6959L125.586 66.1768L149.319 21.1208C149.43 20.9057 149.69 20.8274 149.894 20.9448C150.098 21.0621 150.172 21.3359 150.061 21.551L126.087 67.0763C126.031 67.1937 125.92 67.2719 125.79 67.2915C125.772 67.311 125.753 67.311 125.716 67.311Z" fill="white"/>
<path d="M119.129 68.719C118.925 68.719 118.758 68.5821 118.721 68.367C118.665 68.1323 118.813 67.8977 119.055 67.839L125.493 66.4701L156.722 21.5314C156.871 21.3359 157.131 21.2968 157.316 21.4337C157.502 21.5706 157.539 21.8639 157.409 22.0594L126.087 67.135C126.031 67.2132 125.939 67.2914 125.827 67.311L119.24 68.719C119.184 68.719 119.147 68.719 119.129 68.719Z" fill="white"/>
</svg>
