<svg width="167" height="176" viewBox="0 0 167 176" fill="none" xmlns="http://www.w3.org/2000/svg">
<path d="M90.6577 174.978H77.7801C77.6688 174.978 77.5389 174.959 77.4462 174.9L62.0821 167.821C62.0079 167.782 61.9337 167.743 61.878 167.684L23.635 134.127C23.5608 134.068 23.4865 133.99 23.4494 133.892L18.8847 125.718L11.7037 114.024C11.6481 113.926 11.611 113.828 11.5739 113.711L3.72485 70.0431C3.7063 69.9453 3.7063 69.8671 3.72485 69.7693L5.6547 53.4991L7.26903 44.2689C7.30614 44.0733 7.39883 43.8973 7.52872 43.7604L24.8039 27.3924C24.8596 27.3533 24.9153 27.3142 24.971 27.2751L69.3002 2.22445C69.3745 2.18534 69.4673 2.14623 69.56 2.12667L81.3984 0.0146667C81.4912 -0.00488889 81.5654 -0.00488889 81.6396 0.0146667L94.2018 1.69645C94.2945 1.716 94.3874 1.73554 94.4801 1.77465L139.681 25.8084C139.737 25.8476 139.793 25.8867 139.848 25.9258L153.932 38.4022L157.959 42.3133C158.07 42.4111 158.144 42.548 158.2 42.7044L160.686 51.0546L162.319 68.2635C162.319 68.3613 162.319 68.4395 162.301 68.5373L153.821 111.872C153.802 111.97 153.765 112.068 153.709 112.166L141.704 132.23C141.667 132.288 141.611 132.367 141.556 132.406L106.356 166.628C106.3 166.687 106.226 166.726 106.17 166.765L91.0473 174.861C90.9174 174.939 90.7876 174.978 90.6577 174.978ZM77.9471 173.199H90.4535L105.298 165.259L140.331 131.193L152.188 111.364L160.612 68.3222L159.016 51.4262L156.641 43.4867L152.8 39.7711L138.828 27.3924L93.8492 3.47601L81.5469 1.83332L69.9682 3.88666L25.8616 28.8004L8.86478 44.8751L7.32464 53.7729L5.43193 69.8475L13.2253 113.222L20.3321 124.799L24.8411 132.875L62.88 166.256L77.9471 173.199Z" fill="white"/>
<path d="M105.78 166.882C105.632 166.882 105.484 166.843 105.354 166.765C104.945 166.511 104.816 165.983 105.038 165.552L109.028 158.297L113.24 115.021L110.401 97.0102L99.5272 77.6698L37.0693 32.34L25.1195 28.9178C24.6741 28.7809 24.3958 28.292 24.5257 27.8227C24.6556 27.3534 25.1195 27.0796 25.5648 27.1969L37.6445 30.6582C37.7372 30.6778 37.8299 30.7365 37.9042 30.7756L100.622 76.3009C100.715 76.3791 100.808 76.4769 100.863 76.5747L111.904 96.228C111.959 96.3258 111.997 96.4236 112.015 96.5409L114.891 114.845C114.91 114.923 114.91 115.001 114.891 115.08L110.642 158.669C110.623 158.786 110.586 158.923 110.531 159.021L106.448 166.432C106.356 166.726 106.077 166.882 105.78 166.882Z" fill="white"/>
<path d="M77.7801 174.978C77.4461 174.978 77.1306 174.763 77.0007 174.431L74.2731 167.352C74.236 167.254 74.2174 167.136 74.2174 167.039L73.4938 123.371L76.9451 105.048C76.9637 104.95 77.0008 104.872 77.0379 104.793L84.3488 90.7916C84.3859 90.7133 84.4601 90.6156 84.5343 90.5569L99.6385 76.3987L143.485 42.8218L152.596 37.972C153.004 37.7569 153.524 37.9329 153.728 38.3631C153.932 38.7933 153.765 39.3409 153.357 39.556L144.357 44.3471L100.678 77.8067L85.759 91.8085L78.5966 105.556L75.1823 123.547L75.906 166.863L78.5595 173.785C78.7265 174.235 78.5223 174.763 78.0956 174.939C77.9842 174.959 77.8729 174.978 77.7801 174.978Z" fill="white"/>
<path d="M90.6577 174.978C90.5278 174.978 90.3979 174.939 90.2681 174.88C89.8598 174.646 89.6928 174.118 89.8969 173.688L93.3298 166.687L95.3894 123.215L92.5689 106.26L77.7431 106.104C77.6317 106.104 77.5204 106.084 77.4276 106.025L59.2617 97.8511L13.5779 64.0396C13.5222 64.0005 13.4666 63.9418 13.411 63.8831L5.80313 54.1836C5.58047 53.9098 5.54338 53.5187 5.71038 53.1862L13.3181 38.324C13.4294 38.1089 13.6151 37.9525 13.8377 37.8938C14.0604 37.8351 14.3016 37.8742 14.5057 37.9916L23.6165 43.9169L70.1538 76.3009L85.592 90.5373C85.6662 90.596 85.7034 90.6742 85.7591 90.7525L93.5895 104.246L110.735 95.9347L152.745 61.0085L159.443 50.4094C159.703 49.9987 160.222 49.9009 160.612 50.1551C161.002 50.4289 161.113 50.9765 160.853 51.3871L154.081 62.1036C154.025 62.1818 153.969 62.26 153.895 62.2991L111.7 97.3818C111.644 97.4209 111.588 97.46 111.533 97.4991L94.2018 105.888L97.0593 123C97.0779 123.058 97.0779 123.136 97.0779 123.195L94.9997 166.96C94.9997 167.097 94.9626 167.215 94.9069 167.332L91.3813 174.509C91.2515 174.802 90.9546 174.978 90.6577 174.978ZM77.9471 104.304L91.7711 104.461L84.423 91.7889L69.1704 77.7089L22.7444 45.4031L14.4129 39.9862L7.51033 53.4991L14.6727 62.6316L60.0967 96.2867L77.9471 104.304Z" fill="white"/>
<path d="M74.3288 124.212C74.2174 124.212 74.1061 124.192 74.0134 124.153L55.4578 116.057C55.3836 116.038 55.328 115.999 55.2723 115.94L10.7018 80.7791C10.6276 80.7205 10.5534 80.6423 10.5163 80.564L3.87338 70.356C3.61361 69.9454 3.70637 69.3978 4.09604 69.124C4.48571 68.8502 5.00527 68.948 5.26505 69.3587L11.8337 79.4494L56.2001 114.454L74.5144 122.432L96.0945 122.276L113.667 114.219L154.173 78.5498L160.761 67.8725C161.02 67.4618 161.54 67.3445 161.93 67.6182C162.319 67.892 162.431 68.4396 162.171 68.8502L155.509 79.6449C155.454 79.7231 155.398 79.7818 155.342 79.8405L114.65 115.666C114.594 115.725 114.52 115.764 114.446 115.803L96.5954 123.977C96.4841 124.016 96.3728 124.056 96.2615 124.056L74.3288 124.212C74.3473 124.212 74.3473 124.212 74.3288 124.212Z" fill="white"/>
<path d="M62.4161 167.88C62.0635 167.88 61.7481 167.645 61.6182 167.293L59.2802 160.429C59.2616 160.351 59.2432 160.292 59.2246 160.214L54.9383 115.295C54.9383 115.197 54.9382 115.099 54.9567 115.021L58.7977 96.8147C58.8163 96.7364 58.8349 96.6582 58.872 96.58L68.9847 76.5942C69.0404 76.4965 69.1147 76.3987 69.2075 76.3205L83.2169 64.3916L129.031 29.9933C129.086 29.9542 129.142 29.9151 129.198 29.8956L138.976 25.7693C139.403 25.5933 139.904 25.8084 140.071 26.2582C140.238 26.708 140.034 27.236 139.607 27.412L129.921 31.4991L84.2189 65.7996L70.395 77.5916L60.4121 97.3036L56.6268 115.256L60.8945 159.92L63.214 166.667C63.381 167.136 63.1398 167.645 62.7131 167.801C62.6017 167.86 62.5089 167.88 62.4161 167.88Z" fill="white"/>
<path d="M75.0524 167.88C74.9411 167.88 74.8298 167.86 74.7184 167.801L59.7255 160.937C59.6513 160.898 59.5956 160.859 59.5214 160.82L19.3116 126.363C19.1631 126.226 19.0517 126.05 19.0146 125.855L10.3678 80.2316C10.3492 80.1142 10.3492 80.0165 10.3678 79.8991L13.2439 63.1205C13.2624 63.0423 13.2809 62.9445 13.318 62.8662L22.4289 44.2298C22.4846 44.132 22.5402 44.0342 22.6144 43.9756L36.8466 30.8147L79.9697 5.80311L69.5043 3.84756C69.0404 3.76934 68.7435 3.30001 68.8178 2.81112C68.892 2.32223 69.3373 2.00935 69.8012 2.08757L82.4561 4.45381L93.8678 1.67689C94.3502 1.55956 94.777 1.87247 94.8883 2.3418C94.9996 2.83069 94.7028 3.30003 94.2575 3.41736L84.9426 5.68579L129.866 29.9347C129.921 29.9738 129.977 29.9934 130.014 30.052L144.469 42.8218C144.543 42.9 144.617 42.9783 144.673 43.076L154.118 61.1649C154.173 61.2823 154.21 61.3996 154.21 61.5169L155.602 79.0582C155.602 79.1365 155.602 79.2147 155.602 79.2929L148.848 120.086C148.811 120.262 148.737 120.418 148.625 120.555L141.296 128.592L110.419 159.197C110.364 159.256 110.289 159.295 110.215 159.334L94.5357 167.684C94.4244 167.743 94.2945 167.782 94.1646 167.782L75.0524 167.88ZM60.5049 159.373L75.2195 166.1L93.9605 166.022L109.362 157.828L140.127 127.341L147.252 119.519L153.951 79.0974L152.596 61.8689L143.318 44.0734L129.049 31.4796L82.5489 6.38979L37.8671 32.2618L23.8947 45.188L14.9139 63.5507L12.0749 80.036L20.6289 125.17L60.5049 159.373Z" fill="white"/>
<path d="M75.0524 167.449C75.0153 167.449 74.9782 167.449 74.9225 167.43C74.7184 167.352 74.5886 167.136 74.6257 166.902L83.6994 123.234C83.755 123 83.9591 122.863 84.2003 122.902C84.4229 122.96 84.5715 123.195 84.5158 123.43L76.5368 161.856L91.2885 123.039C91.3813 122.804 91.6225 122.706 91.8452 122.784C92.0678 122.882 92.1606 123.136 92.0864 123.371L75.4421 167.176C75.3864 167.332 75.2194 167.449 75.0524 167.449Z" fill="white"/>
<path d="M75.0524 167.449C74.9596 167.449 74.8669 167.41 74.7927 167.352C74.6257 167.215 74.57 166.96 74.6813 166.765L95.5193 130.568C95.6306 130.352 95.8904 130.294 96.0945 130.411C96.2986 130.548 96.3542 130.822 96.2429 131.017L77.3533 163.832L94.9069 144.765C95.0739 144.589 95.3337 144.589 95.5007 144.765C95.6677 144.941 95.6677 145.215 95.5007 145.391L75.3494 167.293C75.2752 167.391 75.1637 167.449 75.0524 167.449Z" fill="white"/>
<path d="M75.0524 167.449C74.8854 167.449 74.737 167.352 74.6628 167.195C74.57 167 74.6442 166.745 74.8297 166.628L94.5543 153.917C94.7584 153.8 95.0182 153.858 95.1295 154.073C95.2594 154.288 95.1852 154.562 94.9811 154.68L78.1512 165.513L94.3317 160.214C94.5543 160.136 94.7955 160.272 94.8697 160.507C94.9439 160.742 94.8141 160.996 94.5915 161.074L75.1823 167.43C75.1452 167.43 75.0895 167.449 75.0524 167.449Z" fill="white"/>
</svg>
