<svg width="167" height="176" viewBox="0 0 167 176" fill="none" xmlns="http://www.w3.org/2000/svg">
<path d="M73.6209 169.8C73.491 169.8 73.3612 169.761 73.2313 169.703L34.8213 149.208C34.7099 149.15 34.5985 149.052 34.5243 148.935L5.72617 106.89C5.59628 106.695 5.54058 106.44 5.57769 106.206L11.1258 76.3053C11.1814 76.0511 11.3299 75.8165 11.5525 75.6991C11.7752 75.5622 12.035 75.5622 12.2762 75.66L54.7313 93.6511C54.8983 93.7098 55.0283 93.8271 55.121 93.9835L86.9252 144.789C87.0922 145.063 87.1108 145.434 86.9623 145.708L74.3632 169.351C74.1962 169.644 73.9178 169.8 73.6209 169.8ZM35.7861 147.722L73.2869 167.747L85.2367 145.317L53.8593 95.196L12.5916 77.7134L7.30334 106.186L35.7861 147.722Z" fill="white"/>
<path d="M78.5382 36.2165C78.464 36.2165 78.3712 36.1969 78.297 36.1773L35.4151 22.684C35.1182 22.5862 34.8956 22.332 34.8399 22.0191C34.7657 21.7062 34.8769 21.3738 35.0996 21.1587L49.3874 7.66535C49.5358 7.52846 49.7214 7.45025 49.9255 7.43069L96.2216 5.86621C96.2958 5.86621 96.37 5.86623 96.4443 5.88579L136.988 16.2307C137.434 16.348 137.712 16.8173 137.619 17.2866L134.205 32.7942C134.112 33.1854 133.797 33.4591 133.425 33.4786L78.5938 36.1773C78.5567 36.2164 78.5382 36.2165 78.5382 36.2165ZM37.3263 21.4325L78.631 34.4173L132.683 31.7578L135.763 17.756L96.1474 7.64577L50.278 9.21025L37.3263 21.4325Z" fill="white"/>
<path d="M73.6209 169.8C73.2127 169.8 72.8601 169.488 72.7859 169.057C72.7116 168.568 73.0271 168.119 73.491 168.04L120.548 160.179L137.897 138.609L86.3315 146.158C85.8862 146.216 85.4408 145.884 85.3851 145.395C85.3295 144.906 85.6448 144.456 86.1087 144.398L139.864 136.536C140.217 136.478 140.551 136.673 140.718 136.986C140.885 137.319 140.848 137.71 140.625 137.984L121.643 161.587C121.513 161.744 121.327 161.861 121.123 161.9L73.7694 169.8C73.7137 169.8 73.658 169.8 73.6209 169.8Z" fill="white"/>
<path d="M11.9609 77.3613C11.8496 77.3613 11.7197 77.3418 11.6083 77.2831C11.1816 77.0876 10.9959 76.54 11.2001 76.1098L34.877 21.4716C35.0625 21.0218 35.5821 20.8262 35.9904 21.0413C36.4171 21.2369 36.6026 21.7845 36.3985 22.2147L12.7216 76.8529C12.5917 77.1658 12.2949 77.3613 11.9609 77.3613Z" fill="white"/>
<path d="M54.4159 95.3524C54.3046 95.3524 54.1933 95.3328 54.0819 95.2742C53.6552 95.0786 53.451 94.5506 53.6365 94.1008L77.7403 34.9649C77.9258 34.5151 78.4268 34.3 78.8536 34.4955C79.2803 34.6911 79.4844 35.2191 79.2989 35.6689L55.1952 94.8049C55.0653 95.1373 54.7499 95.3524 54.4159 95.3524Z" fill="white"/>
<path d="M139.976 138.296C139.864 138.296 139.753 138.277 139.642 138.218C139.215 138.023 139.011 137.495 139.196 137.045L161.11 82.5826V61.8733L136.06 17.5604C135.819 17.1302 135.949 16.5827 136.357 16.348C136.747 16.0938 137.285 16.2307 137.508 16.6609L162.688 61.1889C162.762 61.3258 162.799 61.4822 162.799 61.6387V82.7782C162.799 82.8956 162.78 83.0129 162.725 83.1302L140.755 137.768C140.607 138.081 140.31 138.296 139.976 138.296Z" fill="white"/>
<path d="M161.945 83.6582C161.667 83.6582 161.389 83.5017 161.222 83.228L132.628 33.0875C132.386 32.6573 132.516 32.1098 132.925 31.8751C133.314 31.6209 133.852 31.7578 134.075 32.188L162.669 82.3284C162.91 82.7586 162.78 83.3062 162.372 83.5409C162.242 83.6191 162.094 83.6582 161.945 83.6582Z" fill="white"/>
<path d="M120.993 161.45C120.956 161.45 120.901 161.45 120.863 161.431C120.659 161.352 120.548 161.137 120.585 160.922L124.463 139.528C124.5 139.294 124.723 139.118 124.964 139.176C125.187 139.216 125.335 139.45 125.298 139.704L121.958 158.087L131.607 138.375C131.718 138.16 131.978 138.062 132.182 138.179C132.386 138.296 132.479 138.57 132.368 138.785L121.383 161.216C121.29 161.372 121.142 161.45 120.993 161.45Z" fill="white"/>
<path d="M120.993 161.45C120.845 161.45 120.696 161.372 120.622 161.216L110.658 141.856C110.546 141.64 110.621 141.367 110.825 141.249C111.029 141.132 111.289 141.21 111.4 141.425L120.27 158.654L117.969 140.624C117.932 140.389 118.099 140.154 118.34 140.115C118.563 140.076 118.785 140.252 118.822 140.506L121.439 160.942C121.457 161.157 121.346 161.352 121.142 161.431C121.067 161.45 121.03 161.45 120.993 161.45Z" fill="white"/>
<path d="M120.993 161.45C120.919 161.45 120.826 161.431 120.771 161.372L95.7021 144.222C95.498 144.085 95.4423 143.811 95.5722 143.616C95.7021 143.4 95.9618 143.361 96.1474 143.479L117.987 158.419L103.607 142.99C103.44 142.814 103.44 142.54 103.607 142.364C103.774 142.188 104.033 142.188 104.2 142.364L121.29 160.688C121.439 160.844 121.457 161.098 121.309 161.274C121.234 161.392 121.105 161.45 120.993 161.45Z" fill="white"/>
<path d="M120.993 161.45C120.956 161.45 120.919 161.45 120.882 161.431L83.1771 151.203C82.9545 151.144 82.806 150.89 82.8802 150.656C82.9358 150.421 83.1771 150.264 83.3998 150.343L116.837 159.416L88.6139 145.297C88.4098 145.2 88.317 144.926 88.4098 144.711C88.5026 144.496 88.7623 144.398 88.9665 144.496L121.16 160.609C121.364 160.707 121.457 160.942 121.383 161.157C121.327 161.333 121.16 161.45 120.993 161.45Z" fill="white"/>
<path d="M77.0166 163.015C76.794 163.015 76.6084 162.819 76.5899 162.584C76.5899 162.33 76.7568 162.135 76.9981 162.115L115.093 160.766L80.301 156.737C80.0783 156.718 79.9113 156.483 79.9299 156.248C79.9484 156.014 80.1525 155.818 80.3937 155.857L121.03 160.57C121.253 160.59 121.42 160.805 121.401 161.04C121.401 161.274 121.216 161.45 120.993 161.47L77.0166 163.015Z" fill="white"/>
<path d="M49.1276 92.6538C49.0534 92.6538 48.9977 92.6342 48.9235 92.5951C48.7194 92.4778 48.6452 92.204 48.7566 91.9889L74.2519 42.6502L43.4496 89.8964C43.3197 90.092 43.0599 90.1506 42.8558 90.0137C42.6702 89.8769 42.6146 89.6031 42.7445 89.388L78.1671 35.0431C78.297 34.8476 78.5382 34.7889 78.7423 34.9062C78.9278 35.0235 79.0021 35.2974 78.8908 35.4929L49.4987 92.38C49.4245 92.5756 49.276 92.6538 49.1276 92.6538Z" fill="white"/>
<path d="M37.8643 87.8822C37.7715 87.8822 37.6789 87.8431 37.6046 87.7844C37.4191 87.628 37.4005 87.3542 37.5489 87.1586L72.1736 42.7871L32.4647 85.34C32.2977 85.516 32.0379 85.516 31.8709 85.34C31.7039 85.164 31.7039 84.8902 31.8709 84.7142L78.2412 35.004C78.4082 34.828 78.6494 34.828 78.8164 34.9844C78.9834 35.1409 79.002 35.4147 78.8536 35.5907L38.1798 87.7062C38.1056 87.8235 37.9757 87.8822 37.8643 87.8822Z" fill="white"/>
<path d="M25.8032 82.7782C25.6919 82.7782 25.562 82.7195 25.4878 82.6217C25.3394 82.4262 25.358 82.1525 25.5435 81.996L70.5408 41.868L19.7171 80.0013C19.5315 80.1382 19.2717 80.0991 19.1233 79.9036C18.9934 79.708 19.0305 79.4342 19.216 79.2778L78.2784 34.9649C78.4639 34.828 78.7237 34.8671 78.8536 35.0627C79.0021 35.2582 78.965 35.5125 78.798 35.6689L26.063 82.6804C25.9888 82.7391 25.896 82.7782 25.8032 82.7782Z" fill="white"/>
<path d="M12.536 77.1463C12.3876 77.1463 12.2577 77.068 12.1649 76.9311C12.0536 76.716 12.1093 76.4422 12.3134 76.3249L67.2378 41.8876L15.208 69.8129C15.0039 69.9303 14.7442 69.8325 14.6328 69.6174C14.5215 69.4022 14.6142 69.1285 14.8183 69.0111L78.3341 34.9062C78.5382 34.8085 78.7794 34.8867 78.8907 35.0822C79.0021 35.2973 78.9278 35.5516 78.7422 35.6885L12.7401 77.068C12.6844 77.1267 12.6103 77.1463 12.536 77.1463Z" fill="white"/>
<path d="M18.5109 61.8342C18.3439 61.8342 18.1955 61.7365 18.1213 61.5605C18.0285 61.3258 18.1399 61.0716 18.344 60.9738L69.5202 38.7587L21.8324 54.4422C21.6098 54.5204 21.3685 54.3836 21.3128 54.1489C21.2386 53.9142 21.3685 53.66 21.5912 53.6013L78.4269 34.9062C78.631 34.828 78.8721 34.9454 78.9464 35.18C79.0206 35.3952 78.9278 35.6493 78.7051 35.7471L18.678 61.8147C18.6223 61.8147 18.5666 61.8342 18.5109 61.8342Z" fill="white"/>
<path d="M24.523 47.9498C24.3188 47.9498 24.1518 47.8129 24.1147 47.5978C24.059 47.3631 24.2074 47.1285 24.4301 47.0698L70.2623 36.7445L27.2691 41.7507C27.0094 41.7702 26.8238 41.5943 26.8053 41.3596C26.7867 41.1054 26.9537 40.8903 27.1764 40.8707L78.4824 34.9062C78.7237 34.8671 78.9092 35.0431 78.9463 35.2778C78.9834 35.5125 78.835 35.7276 78.6123 35.7863L24.5971 47.9693C24.5786 47.9302 24.5601 47.9498 24.523 47.9498Z" fill="white"/>
<path d="M78.5382 35.7667C78.5197 35.7667 78.5197 35.7667 78.5382 35.7667L30.0525 35.1996C29.8113 35.1996 29.6257 35.0041 29.6443 34.7498C29.6443 34.4956 29.8299 34.3392 30.0711 34.3196L72.4705 34.8085L32.8915 28.5116C32.6688 28.4725 32.5018 28.2574 32.5389 28.0031C32.576 27.7685 32.7802 27.5925 33.0214 27.6316L78.6124 34.8867C78.8351 34.9258 78.9835 35.1214 78.965 35.356C78.9279 35.5907 78.7423 35.7667 78.5382 35.7667Z" fill="white"/>
</svg>
