<svg width="90" height="90" viewBox="0 0 90 90" fill="none" xmlns="http://www.w3.org/2000/svg">
<path d="M47.66 53.75C47.47 53.75 47.3 53.64 47.23 53.45C47.21 53.4 47.19 53.35 47.17 53.3C47.04 52.98 46.91 52.68 46.78 52.39C46.2 51.12 45.51 49.9 44.71 48.76C44.57 48.55 44.62 48.27 44.82 48.13C45.03 47.99 45.31 48.04 45.45 48.24C46.28 49.43 47.01 50.69 47.6 52.01C47.74 52.31 47.88 52.63 48 52.95C48.02 53 48.05 53.07 48.08 53.15C48.17 53.39 48.04 53.65 47.81 53.73C47.77 53.74 47.71 53.75 47.66 53.75Z" fill="white"/>
<path d="M25.88 85.79C12.71 85.79 2 75.08 2 61.91C2 49.5 11.3 39.28 23.64 38.14C23.65 38.14 23.66 38.14 23.67 38.14C23.7 38.14 23.73 38.13 23.76 38.13C24.01 38.13 24.21 38.33 24.21 38.59C24.21 38.83 24.02 39.03 23.79 39.04C23.78 39.04 23.78 39.04 23.77 39.04C23.76 39.04 23.74 39.04 23.73 39.04C11.86 40.13 2.90002 49.96 2.90002 61.91C2.90002 74.58 13.2 84.88 25.87 84.88C33.35 84.88 40.39 81.21 44.69 75.08C44.71 75.06 44.73 75.03 44.75 75.01C45 74.76 45.53 74.95 45.53 75.33C45.53 75.42 45.5 75.5 45.46 75.57C45.45 75.59 45.43 75.62 45.41 75.64C40.95 81.99 33.65 85.79 25.88 85.79Z" fill="white"/>
<path d="M64.28 85.79C56.51 85.79 49.21 81.99 44.74 75.63C44.73 75.61 44.71 75.6 44.7 75.58C44.65 75.51 44.62 75.42 44.62 75.32C44.62 74.94 45.15 74.75 45.39 75C45.41 75.02 45.43 75.05 45.45 75.07C49.75 81.21 56.78 84.87 64.27 84.87C76.93 84.87 87.24 74.57 87.24 61.9C87.24 49.95 78.28 40.11 66.39 39.03C66.38 39.03 66.37 39.03 66.35 39.03C66.16 39.03 65.99 38.91 65.92 38.73C65.84 38.49 65.96 38.23 66.2 38.15C66.27 38.13 66.37 38.12 66.45 38.13C66.48 38.13 66.5 38.13 66.52 38.14C78.86 39.29 88.16 49.5 88.16 61.91C88.16 75.08 77.45 85.79 64.28 85.79Z" fill="white"/>
<path d="M42.5 53.68C42.46 53.68 42.42 53.67 42.38 53.66C42.15 53.58 42 53.38 42.08 53.15C42.1 53.09 42.13 53.03 42.15 52.97C42.26 52.67 42.41 52.34 42.56 52C43.16 50.69 43.88 49.42 44.71 48.24C44.86 48.03 45.14 47.99 45.34 48.13C45.54 48.27 45.59 48.56 45.45 48.76C44.65 49.9 43.96 51.12 43.38 52.38C43.23 52.7 43.1 53.01 42.97 53.33C42.9 53.53 42.7 53.68 42.5 53.68Z" fill="white"/>
<path d="M66.38 39.09C66.31 39.09 66.25 39.08 66.19 39.05C65.96 38.94 65.87 38.68 65.97 38.45L65.98 38.44C65.99 38.38 66.01 38.35 66.03 38.32C67.37 35.35 68.05 32.18 68.05 28.88C68.05 16.21 57.75 5.91 45.08 5.91C32.41 5.91 22.11 16.21 22.11 28.88C22.11 32.17 22.79 35.34 24.13 38.31C24.14 38.33 24.15 38.35 24.16 38.37C24.26 38.54 24.23 38.77 24.08 38.91C23.9 39.09 23.61 39.09 23.44 38.91C23.41 38.88 23.38 38.84 23.36 38.8C23.35 38.78 23.31 38.71 23.3 38.69C21.9 35.59 21.2 32.29 21.2 28.88C21.2 15.71 31.91 5 45.08 5C58.25 5 68.96 15.71 68.96 28.88C68.96 32.33 68.24 35.65 66.83 38.76C66.83 38.77 66.82 38.78 66.82 38.79C66.81 38.81 66.81 38.83 66.8 38.84C66.71 38.99 66.55 39.09 66.38 39.09ZM24.19 38.43C24.2 38.47 24.21 38.52 24.21 38.56C24.21 38.51 24.2 38.47 24.19 38.43Z" fill="white"/>
<path d="M48.75 52.46C48.63 52.46 48.52 52.42 48.43 52.33C48.25 52.15 48.25 51.86 48.43 51.69C48.61 51.51 48.9 51.51 49.08 51.69C49.26 51.87 49.26 52.15 49.08 52.33C48.98 52.42 48.86 52.46 48.75 52.46Z" fill="white"/>
<path d="M45.08 52.74C44.35 52.74 43.63 52.71 42.93 52.64C42.69 52.62 42.45 52.6 42.2 52.57C41.95 52.54 41.77 52.32 41.8 52.07C41.83 51.82 42.05 51.65 42.3 51.67C42.53 51.7 42.76 51.72 43 51.74C44.36 51.87 45.8 51.87 47.15 51.74C47.4 51.72 47.62 51.9 47.65 52.15C47.67 52.4 47.49 52.62 47.24 52.65C46.54 52.71 45.81 52.74 45.08 52.74Z" fill="white"/>
<path d="M45.08 59.08C44.98 59.08 44.89 59.05 44.8 58.99C44.6 58.84 44.56 58.55 44.72 58.35C45.4 57.47 45.97 56.51 46.42 55.51C46.76 54.74 47.03 53.96 47.22 53.19C47.25 53.09 47.27 52.99 47.29 52.89C47.35 52.61 47.41 52.34 47.45 52.06C47.58 51.29 47.65 50.49 47.65 49.68C47.65 49.36 47.64 49.05 47.62 48.73C47.58 48.07 47.49 47.43 47.37 46.82C47.29 46.43 47.2 46.05 47.09 45.68C46.6 43.99 45.8 42.42 44.72 41.01C43.09 38.89 40.92 37.27 38.43 36.33C36.82 35.72 35.13 35.42 33.4 35.42C29.98 35.42 26.66 36.65 24.07 38.9C24.06 38.91 24.04 38.93 24.03 38.94C23.85 39.12 23.56 39.12 23.38 38.94C23.2 38.76 23.2 38.48 23.38 38.3C23.4 38.28 23.45 38.24 23.48 38.22C26.3 35.81 29.79 34.52 33.41 34.52C35.25 34.52 37.05 34.85 38.76 35.49C41.41 36.49 43.72 38.21 45.45 40.47C46.6 41.97 47.45 43.64 47.97 45.44C48.09 45.84 48.19 46.24 48.27 46.65C48.4 47.3 48.49 47.98 48.54 48.68C48.56 49.01 48.57 49.35 48.57 49.69C48.57 50.55 48.5 51.4 48.36 52.21C48.32 52.5 48.25 52.8 48.19 53.09C48.17 53.2 48.14 53.31 48.11 53.42C47.91 54.23 47.62 55.07 47.26 55.88C46.78 56.95 46.17 57.97 45.45 58.9C45.35 59.01 45.22 59.08 45.08 59.08Z" fill="white"/>
<path d="M45.08 75.79C44.83 75.79 44.62 75.59 44.62 75.33V58.77C43.93 57.86 43.35 56.87 42.89 55.83C42.54 55.05 42.26 54.23 42.05 53.4C42.03 53.35 42.01 53.26 41.99 53.17C41.91 52.87 41.84 52.53 41.79 52.19C41.65 51.39 41.58 50.54 41.58 49.68C41.58 49.34 41.59 49 41.61 48.67C41.66 47.96 41.75 47.28 41.88 46.64C41.97 46.23 42.06 45.82 42.18 45.42C42.7 43.62 43.55 41.95 44.7 40.45C46.41 38.22 48.69 36.51 51.3 35.5C53.04 34.83 54.87 34.5 56.74 34.5C60.36 34.5 63.87 35.8 66.62 38.16C66.67 38.19 66.73 38.25 66.76 38.3C66.93 38.49 66.91 38.77 66.72 38.94C66.53 39.11 66.24 39.09 66.08 38.9C63.45 36.64 60.15 35.42 56.74 35.42C54.98 35.42 53.26 35.74 51.62 36.36C49.17 37.3 47.02 38.91 45.42 41.01C44.34 42.42 43.54 43.99 43.05 45.68C42.94 46.06 42.85 46.44 42.77 46.82C42.65 47.42 42.56 48.07 42.51 48.73C42.49 49.04 42.48 49.36 42.48 49.68C42.48 50.49 42.55 51.28 42.68 52.05C42.73 52.37 42.8 52.68 42.87 52.98C42.88 53.05 42.89 53.1 42.91 53.15C43.12 53.97 43.38 54.74 43.71 55.47C44.16 56.49 44.73 57.45 45.42 58.35C45.48 58.43 45.51 58.53 45.51 58.63V75.34C45.53 75.58 45.33 75.79 45.08 75.79Z" fill="white"/>
<path d="M45.09 75.79C44.84 75.79 44.63 75.59 44.63 75.33C44.63 75.12 44.77 74.94 44.96 74.89C49.84 73.3 53.5 69.2 54.52 64.18C54.71 63.26 54.81 62.3 54.81 61.33C54.81 59.7 54.54 58.11 54 56.58C53.37 54.78 52.39 53.15 51.09 51.72C50.72 51.31 50.32 50.92 49.89 50.55C49.7 50.38 49.68 50.1 49.85 49.91C50.02 49.72 50.31 49.7 50.49 49.87C50.94 50.26 51.37 50.68 51.76 51.11C53.14 52.62 54.18 54.36 54.85 56.28C55.42 57.9 55.71 59.6 55.71 61.33C55.71 62.36 55.61 63.38 55.4 64.37C54.32 69.69 50.44 74.05 45.27 75.75C45.22 75.78 45.16 75.79 45.09 75.79Z" fill="white"/>
<path d="M45.08 47.79C45.03 47.79 44.99 47.78 44.94 47.77C44.58 47.65 44.22 47.55 43.85 47.46C43.35 47.34 42.83 47.25 42.28 47.18C40.93 47.02 39.51 47.05 38.22 47.26C37.98 47.31 37.74 47.14 37.7 46.89C37.66 46.64 37.82 46.41 38.07 46.37C39.45 46.13 40.96 46.1 42.4 46.28C42.98 46.35 43.54 46.45 44.07 46.58C44.46 46.67 44.84 46.78 45.22 46.9C45.46 46.98 45.59 47.23 45.51 47.47C45.45 47.67 45.27 47.79 45.08 47.79Z" fill="white"/>
<path d="M45.09 75.79C45.02 75.79 44.96 75.78 44.91 75.75C39.73 74.06 35.85 69.7 34.76 64.37C34.56 63.38 34.46 62.36 34.46 61.33C34.46 59.61 34.75 57.91 35.31 56.3C35.99 54.37 37.04 52.63 38.41 51.12C38.8 50.69 39.21 50.3 39.61 49.93C40.29 49.33 41.05 48.78 41.84 48.3C42.05 48.17 42.34 48.24 42.46 48.46C42.59 48.68 42.52 48.96 42.3 49.08C41.55 49.53 40.84 50.04 40.2 50.61C39.82 50.95 39.43 51.33 39.06 51.73C37.77 53.15 36.79 54.79 36.15 56.6C35.62 58.12 35.35 59.71 35.35 61.33C35.35 62.3 35.45 63.26 35.64 64.18C36.66 69.2 40.33 73.31 45.21 74.89C45.29 74.91 45.35 74.96 45.41 75.02C45.49 75.1 45.54 75.21 45.54 75.33C45.54 75.59 45.34 75.79 45.09 75.79Z" fill="white"/>
<path d="M45.08 47.79C44.89 47.79 44.71 47.67 44.65 47.47C44.57 47.23 44.71 46.97 44.95 46.9C45.33 46.78 45.7101 46.67 46.1001 46.58C46.6301 46.45 47.19 46.35 47.77 46.28C49.17 46.11 50.63 46.13 52 46.35C52.25 46.39 52.42 46.62 52.38 46.87C52.34 47.12 52.1 47.29 51.86 47.25C50.57 47.05 49.2 47.02 47.88 47.18C47.34 47.25 46.81 47.34 46.32 47.46C45.95 47.55 45.5901 47.65 45.2301 47.77C45.1701 47.78 45.13 47.79 45.08 47.79Z" fill="white"/>
<path d="M38.04 57.09C37.23 57.09 36.44 57.03 35.67 56.91C32.87 56.47 30.25 55.25 28.09 53.38C24.77 50.49 22.86 46.31 22.86 41.92C22.86 40.77 22.99 39.63 23.24 38.52C23.24 38.51 23.24 38.5 23.25 38.49C23.27 38.41 23.31 38.33 23.37 38.28L23.59 38.5H23.71L24.15 38.62C24.15 38.63 24.14 38.65 24.14 38.66C24.14 38.68 24.14 38.7 24.13 38.72C23.89 39.76 23.77 40.83 23.77 41.92C23.77 46.05 25.56 49.98 28.68 52.69C30.71 54.45 33.17 55.59 35.8 56.01C37.63 56.3 39.62 56.22 41.45 55.77C42.01 55.63 42.57 55.46 43.15 55.24C43.38 55.15 43.65 55.27 43.74 55.5C43.83 55.73 43.71 56 43.48 56.09C42.86 56.33 42.27 56.51 41.67 56.66C40.5 56.94 39.27 57.09 38.04 57.09Z" fill="white"/>
<path d="M52.03 57.09C50.83 57.09 49.65 56.95 48.5 56.67C47.9 56.53 47.29 56.34 46.68 56.12C46.44 56.03 46.32 55.77 46.41 55.53C46.5 55.29 46.76 55.17 47 55.26C47.57 55.47 48.15 55.65 48.71 55.78C50.56 56.23 52.57 56.29 54.34 55.99C56.97 55.56 59.42 54.4 61.44 52.64C64.52 49.93 66.29 46.02 66.29 41.92C66.29 40.85 66.17 39.78 65.93 38.74C65.93 38.73 65.93 38.73 65.93 38.72C65.92 38.7 65.92 38.67 65.91 38.65C65.82 38.42 65.94 38.16 66.17 38.07C66.41 37.98 66.67 38.11 66.76 38.34C66.77 38.36 66.79 38.43 66.8 38.48C66.8 38.5 66.81 38.52 66.81 38.54C67.06 39.64 67.19 40.78 67.19 41.92C67.19 46.28 65.31 50.44 62.03 53.33C59.88 55.21 57.27 56.44 54.48 56.9C53.71 57.02 52.88 57.09 52.03 57.09Z" fill="white"/>
<path d="M47.59 53.56C47.47 53.56 47.34 53.51 47.26 53.41C47.09 53.23 47.1 52.94 47.29 52.77C47.34 52.73 47.38 52.69 47.43 52.65C47.79 52.34 48.11 52.02 48.42 51.69C48.93 51.15 49.39 50.57 49.81 49.96C50.52 48.93 51.08 47.81 51.5 46.64C51.54 46.54 51.61 46.45 51.7 46.4L66.14 38.19C66.35 38.07 66.64 38.14 66.76 38.36C66.88 38.58 66.81 38.86 66.59 38.98L52.3 47.11C51.87 48.3 51.28 49.43 50.57 50.48C50.12 51.13 49.63 51.75 49.09 52.32C48.75 52.68 48.41 53.01 48.05 53.33L47.91 53.45C47.81 53.52 47.7 53.56 47.59 53.56Z" fill="white"/>
<path d="M42.5 53.61C42.43 53.61 42.35 53.59 42.28 53.53C42.27 53.52 42.19 53.45 42.18 53.44C41.76 53.08 41.36 52.7 40.97 52.29C40.47 51.76 39.99 51.16 39.54 50.53C38.81 49.48 38.22 48.33 37.78 47.12L23.47 38.98C23.25 38.86 23.18 38.58 23.3 38.36C23.42 38.14 23.7 38.06 23.92 38.19L38.37 46.41C38.47 46.46 38.54 46.55 38.57 46.65C38.99 47.84 39.57 48.97 40.28 50C40.7 50.6 41.15 51.16 41.62 51.66C41.99 52.05 42.36 52.41 42.74 52.73C42.93 52.89 43 53.21 42.85 53.4C42.76 53.54 42.63 53.61 42.5 53.61Z" fill="white"/>
<path d="M6.67999 75.56C6.60999 75.56 6.52999 75.52 6.48999 75.46C6.41999 75.35 6.44999 75.21 6.55999 75.15L35.62 56.27C35.72 56.2 35.87 56.23 35.93 56.34C36 56.45 35.97 56.59 35.86 56.65L6.79998 75.53C6.76998 75.55 6.71999 75.56 6.67999 75.56Z" fill="white"/>
<path d="M45.08 40.96C44.95 40.96 44.85 40.86 44.85 40.73V5.44C44.85 5.31 44.95 5.20999 45.08 5.20999C45.21 5.20999 45.31 5.31 45.31 5.44V40.73C45.31 40.86 45.21 40.96 45.08 40.96Z" fill="white"/>
<path d="M83.48 75.56C83.44 75.56 83.39 75.55 83.36 75.52L54.29 56.63C54.18 56.56 54.15 56.42 54.22 56.32C54.29 56.21 54.43 56.19 54.53 56.25L83.6 75.15C83.71 75.22 83.74 75.36 83.67 75.46C83.63 75.53 83.56 75.56 83.48 75.56Z" fill="white"/>
</svg>
