<svg width="90" height="90" viewBox="0 0 90 90" fill="none" xmlns="http://www.w3.org/2000/svg">
<path d="M43.214 85.4573C43.184 85.4573 43.154 85.4573 43.134 85.4473L24.334 81.8873C24.274 81.8773 24.214 81.8573 24.174 81.8173L8.94399 71.8173C8.89399 71.7873 8.85399 71.7373 8.81399 71.6873L3.29403 63.5773C3.21403 63.4573 3.19403 63.3173 3.23403 63.1773L8.634 46.7373L10.094 33.5173L2.05398 18.6373C1.99398 18.5273 1.98401 18.3873 2.02401 18.2673C2.06401 18.1473 2.16402 18.0473 2.28402 17.9973L15.624 12.5373L28.074 4.07726C28.194 3.99726 28.354 3.97726 28.484 4.02726L40.844 8.56725C40.914 8.59725 40.984 8.63726 41.034 8.69726L45.264 13.7573L71.714 12.7273C71.774 12.7273 71.844 12.7373 71.894 12.7573L88.334 19.1973C88.454 19.2473 88.544 19.3373 88.594 19.4573C88.644 19.5773 88.634 19.7073 88.574 19.8273L80.414 36.0973L72.464 50.6773L71.894 65.5173C71.894 65.5973 71.864 65.6773 71.814 65.7473L66.814 73.2773C66.784 73.3273 66.744 73.3673 66.694 73.3973L55.944 80.9873C55.904 81.0073 55.874 81.0273 55.834 81.0473L43.364 85.4173C43.324 85.4473 43.264 85.4573 43.214 85.4573ZM24.594 81.0073L43.184 84.5373L55.484 80.2273L66.114 72.7273L70.994 65.3773L71.564 50.5573C71.564 50.4873 71.584 50.4173 71.624 50.3573L79.614 35.6973L87.544 19.8873L71.654 13.6673L45.074 14.6973C44.944 14.7073 44.794 14.6473 44.704 14.5373L40.414 9.39725L28.384 4.97726L16.044 13.3573L3.09402 18.6673L10.964 33.2273C11.004 33.3073 11.024 33.3973 11.014 33.4973L9.514 46.9473L4.16403 63.2673L9.50399 71.1173L24.594 81.0073Z" fill="white"/>
<path d="M43.214 85.4573C42.974 85.4573 42.774 85.2673 42.764 85.0273L42.144 73.7773C42.144 73.7373 42.144 73.7073 42.154 73.6673L46.024 52.8273L43.614 32.1172C43.594 31.9272 43.694 31.7373 43.864 31.6573L57.364 25.1073L73.874 19.0573C73.924 19.0373 73.984 19.0373 74.034 19.0273L88.174 19.1973C88.424 19.1973 88.624 19.4073 88.624 19.6573C88.624 19.9073 88.414 20.1073 88.164 20.1073C88.164 20.1073 88.164 20.1073 88.154 20.1073L74.094 19.9373L57.704 25.9473L44.544 32.3372L46.924 52.7973C46.924 52.8373 46.924 52.8873 46.924 52.9373L43.054 73.7973L43.674 84.9973C43.684 85.2473 43.494 85.4672 43.244 85.4772C43.234 85.4573 43.224 85.4573 43.214 85.4573Z" fill="white"/>
<path d="M44.0639 32.5072C44.0539 32.5072 44.044 32.5072 44.034 32.5072L28.2539 31.4272C28.1739 31.4172 28.084 31.3872 28.024 31.3472L16.274 22.9373L2.33396 18.8672C2.09396 18.7972 1.95397 18.5472 2.02397 18.3072C2.09397 18.0672 2.34396 17.9272 2.58396 17.9972L16.594 22.0972C16.644 22.1072 16.694 22.1372 16.734 22.1672L28.4439 30.5473L44.094 31.6172C44.344 31.6372 44.534 31.8472 44.514 32.1073C44.504 32.3273 44.3039 32.5072 44.0639 32.5072Z" fill="white"/>
<path d="M66.444 73.4973C66.224 73.4973 66.034 73.3372 65.994 73.1172L62.804 54.0773C62.794 54.0173 62.794 53.9473 62.814 53.8873L67.904 35.0473L73.424 19.8172L57.304 16.6873L37.734 15.0572C37.624 15.0472 37.514 14.9972 37.444 14.9172L28.004 4.78725C27.834 4.60725 27.844 4.31725 28.024 4.14725C28.204 3.97725 28.494 3.98725 28.664 4.16725L37.984 14.1672L57.424 15.7872L74.114 19.0273C74.244 19.0573 74.354 19.1373 74.424 19.2473C74.494 19.3673 74.504 19.4973 74.454 19.6273L68.764 35.3172L63.714 54.0273L66.884 72.9772C66.924 73.2272 66.754 73.4573 66.514 73.4973C66.494 73.4973 66.464 73.4973 66.444 73.4973Z" fill="white"/>
<path d="M55.694 81.0872C55.684 81.0872 55.684 81.0872 55.674 81.0872C55.424 81.0772 55.224 80.8673 55.244 80.6073L55.944 64.6673L56.594 44.9673L57.094 25.9673L42.884 26.6373C42.804 26.6373 42.724 26.6273 42.654 26.5873L28.874 19.5773L15.604 13.3773C15.374 13.2673 15.274 12.9973 15.384 12.7773C15.494 12.5473 15.764 12.4473 15.984 12.5573L29.264 18.7673L42.954 25.7373L57.534 25.0473C57.664 25.0573 57.784 25.0872 57.874 25.1772C57.964 25.2672 58.014 25.3873 58.014 25.5173L57.494 45.0072L56.844 64.7173L56.144 80.6573C56.134 80.8973 55.934 81.0872 55.694 81.0872Z" fill="white"/>
<path d="M24.424 81.8873C24.174 81.8873 23.974 81.6873 23.964 81.4473L23.694 71.0873C23.694 71.0273 23.704 70.9673 23.724 70.9173L31.054 51.8473L27.834 31.0473C27.804 30.8273 27.934 30.6173 28.144 30.5473L42.654 25.7873L57.134 15.8673C57.184 15.8373 57.234 15.8073 57.294 15.7973L71.634 12.7673C71.884 12.7073 72.124 12.8773 72.174 13.1173C72.224 13.3673 72.064 13.6073 71.824 13.6573L57.574 16.6673L43.114 26.5773C43.074 26.5973 43.044 26.6173 42.994 26.6373L28.784 31.2973L31.954 51.8273C31.964 51.9073 31.954 51.9873 31.924 52.0573L24.584 71.1573L24.854 81.4273C24.864 81.6773 24.664 81.8873 24.414 81.8973C24.424 81.8873 24.424 81.8873 24.424 81.8873Z" fill="white"/>
<path d="M9.18396 71.8873C9.11396 71.8873 9.044 71.8673 8.974 71.8373C8.754 71.7173 8.664 71.4473 8.784 71.2273L15.764 57.8472L23.094 43.3673L16.044 22.6673C16.004 22.5473 16.014 22.4173 16.074 22.2973C16.134 22.1873 16.244 22.1073 16.364 22.0773L29.464 19.0373L37.534 14.1973C37.744 14.0673 38.034 14.1373 38.164 14.3573C38.294 14.5773 38.224 14.8573 38.004 14.9873L29.874 19.8573C29.834 19.8773 29.794 19.8973 29.744 19.9073L17.064 22.8573L24.014 43.2473C24.054 43.3673 24.044 43.4872 23.994 43.5972L16.574 58.2573L9.58398 71.6473C9.50398 71.7973 9.34396 71.8873 9.18396 71.8873Z" fill="white"/>
<path d="M42.604 74.1973C42.584 74.1973 42.564 74.1973 42.534 74.1973L24.084 71.5273C23.954 71.5073 23.834 71.4273 23.764 71.3173L15.784 58.2973L8.68394 47.1373C8.55394 46.9273 8.61396 46.6473 8.82396 46.5073C9.03396 46.3673 9.31396 46.4373 9.45396 46.6473L16.5539 57.8173L24.424 70.6673L42.4939 73.2873L56.0639 64.3773L62.864 53.7673C62.914 53.6873 62.994 53.6273 63.084 53.5873L71.854 50.1573C72.084 50.0673 72.3539 50.1773 72.4439 50.4173C72.534 50.6473 72.4239 50.9173 72.1839 51.0073L63.5539 54.3873L56.774 64.9573C56.744 65.0073 56.694 65.0573 56.644 65.0873L42.844 74.1373C42.774 74.1773 42.684 74.1973 42.604 74.1973Z" fill="white"/>
<path d="M46.484 53.2872C46.474 53.2872 46.464 53.2872 46.454 53.2872L31.4939 52.3372C31.3739 52.3272 31.2639 52.2773 31.1839 52.1873L23.144 43.3773L10.294 33.7872C10.094 33.6372 10.054 33.3472 10.204 33.1472C10.354 32.9472 10.634 32.9072 10.844 33.0572L23.754 42.6972L31.734 51.4272L46.344 52.3573L56.774 44.6073L68.044 34.7973C68.134 34.7173 68.254 34.6772 68.3739 34.6873L80.044 35.4373C80.294 35.4573 80.484 35.6672 80.464 35.9172C80.444 36.1672 80.224 36.3572 79.984 36.3372L68.504 35.5972L57.344 45.3072L46.754 53.1772C46.674 53.2572 46.574 53.2872 46.484 53.2872Z" fill="white"/>
<path d="M33.4439 83.3672C33.3739 83.3672 33.304 83.3372 33.264 83.2773L25.1339 72.7072L29.364 82.2272C29.414 82.3473 29.3639 82.4772 29.2439 82.5273C29.1339 82.5773 28.9939 82.5273 28.9439 82.4073L23.9439 71.1472C23.8939 71.0372 23.934 70.9173 24.034 70.8573C24.134 70.7973 24.264 70.8273 24.334 70.9173L33.6239 82.9873C33.7039 83.0873 33.684 83.2272 33.584 83.3073C33.534 83.3573 33.4939 83.3672 33.4439 83.3672Z" fill="white"/>
<path d="M41.074 84.8172C41.024 84.8172 40.974 84.7972 40.934 84.7673L27.284 73.8572L37.124 83.6472C37.214 83.7372 37.214 83.8772 37.124 83.9672C37.034 84.0573 36.8939 84.0573 36.8039 83.9672L23.9939 71.2272C23.9039 71.1472 23.904 71.0072 23.984 70.9172C24.064 70.8272 24.204 70.8172 24.294 70.8872L41.214 84.4072C41.314 84.4873 41.324 84.6272 41.254 84.7272C41.204 84.7872 41.134 84.8172 41.074 84.8172Z" fill="white"/>
<path d="M43.124 83.5072C43.084 83.5072 43.034 83.4972 43.004 83.4672L24.024 71.2572C23.924 71.1872 23.894 71.0572 23.944 70.9572C24.004 70.8472 24.134 70.8072 24.244 70.8672L43.044 79.8372C43.154 79.8872 43.204 80.0272 43.154 80.1372C43.104 80.2472 42.964 80.2972 42.854 80.2472L27.294 72.8272L43.254 83.0872C43.364 83.1572 43.394 83.2972 43.324 83.3972C43.274 83.4672 43.194 83.5072 43.124 83.5072Z" fill="white"/>
<path d="M42.764 76.9472C42.744 76.9472 42.724 76.9473 42.694 76.9372L24.074 71.2872C23.954 71.2472 23.884 71.1272 23.924 71.0072C23.964 70.8872 24.084 70.8172 24.204 70.8572L42.824 76.5072C42.944 76.5472 43.014 76.6672 42.974 76.7872C42.954 76.8772 42.864 76.9472 42.764 76.9472Z" fill="white"/>
<path d="M39.084 73.4673C39.054 73.4673 39.034 73.4672 39.004 73.4572C38.884 73.4172 38.824 73.2873 38.864 73.1673L45.064 56.0672L36.344 72.9272C36.284 73.0372 36.144 73.0872 36.034 73.0273C35.924 72.9673 35.874 72.8273 35.934 72.7173L46.264 52.7373C46.314 52.6273 46.444 52.5872 46.554 52.6372C46.664 52.6872 46.714 52.8072 46.674 52.9272L39.274 73.3273C39.264 73.4073 39.174 73.4673 39.084 73.4673Z" fill="white"/>
<path d="M33.154 72.6072C33.114 72.6072 33.064 72.5972 33.024 72.5672C32.924 72.4972 32.894 72.3572 32.964 72.2472L44.164 55.8172L29.964 72.0372C29.884 72.1372 29.734 72.1472 29.644 72.0572C29.554 71.9772 29.5439 71.8273 29.6239 71.7373L46.3039 52.6772C46.3839 52.5872 46.514 52.5772 46.614 52.6472C46.704 52.7172 46.734 52.8572 46.664 52.9572L33.334 72.4972C33.294 72.5672 33.224 72.6072 33.154 72.6072Z" fill="white"/>
<path d="M26.4339 71.6273C26.3739 71.6273 26.314 71.6073 26.264 71.5573C26.184 71.4673 26.184 71.3173 26.274 71.2373L43.284 55.4873L25.194 68.8873C25.094 68.9573 24.9439 68.9372 24.8739 68.8372C24.7939 68.7373 24.824 68.5973 24.924 68.5173L46.344 52.6573C46.444 52.5873 46.574 52.6072 46.654 52.6972C46.734 52.7872 46.724 52.9272 46.634 53.0072L26.584 71.5773C26.544 71.6073 26.4839 71.6273 26.4339 71.6273Z" fill="white"/>
<path d="M26.594 64.9172C26.514 64.9172 26.444 64.8772 26.394 64.8072C26.334 64.6972 26.364 64.5572 26.474 64.4972L43.724 54.2072L28.364 60.5173C28.244 60.5573 28.1139 60.5072 28.0639 60.3972C28.0139 60.2772 28.0739 60.1472 28.1839 60.0972L46.384 52.6172C46.494 52.5772 46.624 52.6172 46.674 52.7272C46.724 52.8372 46.694 52.9672 46.584 53.0272L26.704 64.8872C26.674 64.9072 26.634 64.9172 26.594 64.9172Z" fill="white"/>
<path d="M29.484 57.3973C29.384 57.3973 29.294 57.3273 29.264 57.2273C29.234 57.1073 29.304 56.9773 29.424 56.9473L43.574 53.3373L30.584 54.5773C30.464 54.6073 30.344 54.4973 30.334 54.3673C30.324 54.2373 30.414 54.1273 30.534 54.1173L46.444 52.5972C46.564 52.5872 46.674 52.6673 46.694 52.7873C46.714 52.9072 46.644 53.0173 46.524 53.0473L29.534 57.3873C29.524 57.3973 29.504 57.3973 29.484 57.3973Z" fill="white"/>
<path d="M63.254 54.2272C63.184 54.2272 63.114 54.1973 63.074 54.1373C63.004 54.0473 63.014 53.9073 63.104 53.8273L76.264 42.3372C76.354 42.2572 76.504 42.2673 76.584 42.3573C76.664 42.4473 76.654 42.5972 76.564 42.6772L66.034 51.8773L73.954 46.6073C74.054 46.5373 74.204 46.5673 74.274 46.6673C74.344 46.7673 74.314 46.9173 74.214 46.9873L63.394 54.1873C63.344 54.2073 63.294 54.2272 63.254 54.2272Z" fill="white"/>
<path d="M63.254 54.2272C63.204 54.2272 63.154 54.2073 63.114 54.1772C63.024 54.0973 63.004 53.9673 63.074 53.8673L75.984 35.5273C76.054 35.4173 76.194 35.3973 76.304 35.4673C76.404 35.5373 76.434 35.6772 76.364 35.7872L65.414 51.3472L79.864 35.7473C79.954 35.6573 80.094 35.6473 80.184 35.7373C80.274 35.8173 80.284 35.9673 80.194 36.0573L63.434 54.1473C63.374 54.1973 63.314 54.2272 63.254 54.2272Z" fill="white"/>
<path d="M63.254 54.2272C63.224 54.2272 63.184 54.2172 63.154 54.2072C63.044 54.1572 62.994 54.0173 63.044 53.9073L71.814 35.2973C71.864 35.1873 72.004 35.1373 72.114 35.1873C72.224 35.2373 72.274 35.3773 72.224 35.4873L63.454 54.0972C63.424 54.1772 63.334 54.2272 63.254 54.2272Z" fill="white"/>
</svg>
