<svg width="90" height="90" viewBox="0 0 90 90" fill="none" xmlns="http://www.w3.org/2000/svg">
<path d="M34.4123 66.217C34.2936 66.217 34.1651 66.167 34.086 66.077C33.9673 65.947 33.9277 65.757 33.9969 65.597L48.3277 30.587C48.3673 30.497 48.4266 30.427 48.5057 30.377L68.2068 17.617C68.3453 17.527 68.5233 17.517 68.6717 17.607C68.82 17.687 68.909 17.847 68.8991 18.017L68.0486 54.577C68.0486 54.767 67.92 54.937 67.742 54.997L34.5706 66.207C34.5112 66.217 34.4618 66.217 34.4123 66.217ZM49.0991 31.057L35.2035 65.017L67.1486 54.227L67.9695 18.837L49.0991 31.057Z" fill="white"/>
<path d="M33.7299 89.707H33.72C33.4728 89.697 33.275 89.487 33.2849 89.237L33.9574 65.957L16.8772 49.537C16.798 49.457 16.7486 49.357 16.7387 49.247L13.7519 14.847C13.742 14.687 13.8112 14.527 13.9398 14.437C14.0684 14.347 14.2365 14.327 14.3849 14.397L48.9211 30.347C49.1486 30.447 49.2475 30.727 49.1387 30.947C49.0398 31.177 48.7629 31.277 48.5453 31.167L14.7211 15.537L17.6189 48.997L34.7189 65.437C34.8079 65.527 34.8673 65.647 34.8574 65.777L34.175 89.257C34.175 89.507 33.9772 89.707 33.7299 89.707Z" fill="white"/>
<path d="M66.5354 85.737C66.5354 85.737 66.5255 85.737 66.5156 85.737C66.2684 85.727 66.0706 85.517 66.0805 85.267L67.1288 54.537C67.1387 54.347 67.2574 54.187 67.4255 54.127L86.2761 47.257C86.5134 47.167 86.7706 47.297 86.8497 47.527C86.9387 47.767 86.8101 48.027 86.5827 48.107L68.0189 54.867L66.9805 85.287C66.9805 85.547 66.7826 85.737 66.5354 85.737Z" fill="white"/>
<path d="M73.6958 9.85703C73.6958 9.85703 73.686 9.85703 73.6761 9.85703L46.9233 8.87704C46.8739 8.87704 46.8145 8.86704 46.7651 8.83704L30.4761 1.87703C30.2486 1.77703 30.1398 1.51703 30.2387 1.27703C30.3376 1.04703 30.6046 0.937033 30.8321 1.03703L47.042 7.95703L73.7057 8.92703C73.953 8.93703 74.1508 9.14703 74.1409 9.39703C74.1409 9.65703 73.9431 9.85703 73.6958 9.85703Z" fill="white"/>
<path d="M76.9398 37.617C76.7717 37.617 76.6035 37.517 76.5343 37.347L68.1079 18.337L46.9035 8.89703L14.286 15.247C14.0783 15.277 13.8607 15.167 13.7816 14.967L11.1409 8.24703C11.0519 8.01703 11.1607 7.74703 11.3882 7.65703C11.6156 7.56703 11.8827 7.67703 11.9717 7.90703L14.4838 14.287L46.864 7.97703C46.953 7.95703 47.042 7.96703 47.131 8.00703L68.6222 17.577C68.7211 17.617 68.8101 17.707 68.8497 17.807L77.3453 36.977C77.4442 37.207 77.3453 37.477 77.1178 37.577C77.0684 37.607 76.9991 37.617 76.9398 37.617Z" fill="white"/>
<path d="M33.7299 89.707C33.5914 89.707 33.4629 89.647 33.3739 89.527L14.9585 65.337L7.39255 64.667C7.17497 64.647 7.00684 64.477 6.98706 64.267L4.00024 37.047C4.00024 37.037 4.00024 37.027 4.00024 37.017C4.00024 36.977 4.00025 36.937 4.02003 36.887L11.1211 7.97704C11.1607 7.82704 11.2695 7.70704 11.4079 7.65704L30.5156 1.04704C30.575 1.02704 30.6343 1.01704 30.6936 1.02704L52.1849 2.51703L73.8343 8.97704C74.0024 9.02704 74.131 9.17703 74.1508 9.35703L77.375 36.977L86.7706 47.387C86.8497 47.477 86.8893 47.587 86.8893 47.707L86.3156 68.687C86.3156 68.817 86.2563 68.937 86.1574 69.017L66.8222 85.627C66.753 85.687 66.6739 85.717 66.5849 85.737L33.7794 89.707C33.7695 89.707 33.7497 89.707 33.7299 89.707ZM15.6706 64.777L33.9376 88.767L66.3574 84.847L85.4354 68.457L85.9893 47.857L76.6134 37.477C76.5541 37.407 76.5145 37.317 76.4948 37.227L73.2904 9.75704L52.0266 3.40703L30.7233 1.92703L11.9321 8.42703L4.94969 36.847L17.4904 48.877C17.5991 48.977 17.6486 49.117 17.6288 49.267L15.6706 64.777ZM7.83761 63.797L14.8002 64.417L16.709 49.387L5.02882 38.187L7.83761 63.797Z" fill="white"/>
<path d="M34.0662 77.897C33.9871 77.897 33.9178 77.857 33.8684 77.787L16.986 49.327C16.9266 49.227 16.9563 49.087 17.0552 49.017C17.1541 48.947 17.2827 48.967 17.3618 49.067L34.4123 71.837C34.4915 71.937 34.4717 72.077 34.3728 72.157C34.2739 72.237 34.1354 72.217 34.0563 72.117L19.5277 52.707L34.264 77.547C34.3233 77.657 34.2937 77.797 34.1849 77.857C34.1453 77.887 34.1057 77.897 34.0662 77.897Z" fill="white"/>
<path d="M29.2497 83.597C29.1607 83.597 29.0717 83.537 29.042 83.447L16.9761 49.287C16.9365 49.177 16.986 49.047 17.0948 48.997C17.2035 48.947 17.3321 48.997 17.3816 49.107L34.1156 82.817C34.175 82.927 34.1255 83.067 34.0167 83.117C33.9079 83.177 33.7695 83.127 33.7101 83.017L18.6376 52.647L29.4673 83.297C29.5068 83.417 29.4475 83.547 29.3288 83.587C29.309 83.597 29.2794 83.597 29.2497 83.597Z" fill="white"/>
<path d="M23.2167 75.667C23.1178 75.667 23.0189 75.597 22.9991 75.487L17.5398 51.747L18.4101 68.807C18.42 68.937 18.3211 69.037 18.1926 69.047C18.064 69.037 17.9651 68.957 17.9552 68.827L16.9563 49.207C16.9464 49.087 17.0354 48.987 17.1541 48.967C17.253 48.957 17.3816 49.027 17.4014 49.137L23.4343 75.367C23.464 75.487 23.3849 75.617 23.2662 75.637C23.2563 75.667 23.2365 75.667 23.2167 75.667Z" fill="white"/>
<path d="M34.4123 65.997C34.3431 65.997 34.2838 65.967 34.2343 65.917C34.1552 65.827 34.1651 65.687 34.2541 65.607L67.8805 35.077C67.9695 34.997 68.1178 34.997 68.197 35.097C68.2761 35.187 68.2761 35.337 68.1772 35.417L37.6761 63.117L67.7519 41.197C67.8508 41.117 67.9893 41.147 68.0684 41.247C68.1376 41.347 68.1178 41.487 68.0189 41.567L34.531 65.967C34.5013 65.977 34.4618 65.997 34.4123 65.997Z" fill="white"/>
<path d="M34.9266 65.737C34.8475 65.737 34.7684 65.687 34.7288 65.607C34.6794 65.497 34.7189 65.367 34.8178 65.307L67.6629 46.597C67.7717 46.537 67.9101 46.577 67.9695 46.687C68.0288 46.797 67.9893 46.937 67.8805 46.997L39.5057 63.167L67.5937 50.297C67.7123 50.247 67.8409 50.297 67.8904 50.407C67.9398 50.517 67.8904 50.657 67.7816 50.707L35.0255 65.717C34.986 65.727 34.9563 65.737 34.9266 65.737Z" fill="white"/>
<path d="M57.0508 45.447C57.0211 45.447 56.9915 45.437 56.9618 45.427C56.8431 45.377 56.7936 45.247 56.8431 45.127L68.2365 17.907C68.286 17.797 68.4046 17.747 68.5134 17.777C68.6222 17.817 68.6915 17.937 68.6618 18.047L62.975 40.087C62.9453 40.207 62.8266 40.287 62.698 40.247C62.5794 40.217 62.5101 40.087 62.5398 39.967L67.4453 20.957L57.2585 45.297C57.2189 45.387 57.1398 45.447 57.0508 45.447Z" fill="white"/>
<path d="M41.8101 59.277C41.7706 59.277 41.7211 59.267 41.6816 59.237C41.5827 59.167 41.553 59.027 41.6123 58.917L68.2365 17.867C68.3057 17.767 68.4343 17.737 68.5431 17.797C68.6519 17.857 68.6816 17.997 68.6222 18.097L51.0772 50.907C51.0178 51.017 50.8794 51.057 50.7706 50.997C50.6618 50.937 50.6222 50.797 50.6816 50.687L65.7046 22.597L41.9882 59.167C41.9585 59.237 41.8893 59.277 41.8101 59.277Z" fill="white"/>
<path d="M34.4123 65.997C34.3728 65.997 34.3332 65.987 34.2937 65.967C34.1849 65.897 34.1552 65.757 34.2244 65.657L58.475 26.307L42.364 46.947C42.2849 47.047 42.1464 47.067 42.0475 46.987C41.9486 46.907 41.9288 46.767 42.0079 46.667L60.631 22.817C60.7101 22.717 60.8387 22.707 60.9376 22.767C61.0365 22.837 61.0662 22.967 60.997 23.077L34.6101 65.897C34.5607 65.957 34.4915 65.997 34.4123 65.997Z" fill="white"/>
<path d="M57.0508 35.787C57.031 35.787 57.0112 35.787 56.9816 35.777C56.8629 35.737 56.7936 35.617 56.8332 35.497L60.5816 22.877C60.6112 22.777 60.7101 22.697 60.8189 22.717C60.9277 22.727 61.0068 22.817 61.0167 22.927L61.5211 28.977C61.531 29.107 61.442 29.217 61.3134 29.227C61.175 29.247 61.0761 29.147 61.0662 29.017L60.6706 24.147L57.2585 35.617C57.2387 35.727 57.1398 35.787 57.0508 35.787Z" fill="white"/>
<path d="M64.1222 24.877C64.0827 24.877 64.053 24.867 64.0233 24.857L60.7002 23.147C60.6211 23.107 60.5717 23.017 60.5816 22.927C60.5915 22.837 60.6508 22.757 60.7398 22.727L66.3079 20.977C66.4266 20.937 66.5552 21.007 66.5849 21.127C66.6244 21.247 66.5552 21.377 66.4365 21.407L61.4024 22.997L64.231 24.457C64.3398 24.517 64.3893 24.647 64.3299 24.767C64.2805 24.837 64.2013 24.877 64.1222 24.877Z" fill="white"/>
<path d="M45.9739 37.737C45.9145 37.737 45.8552 37.717 45.8156 37.667C45.7266 37.577 45.7266 37.437 45.8156 37.347L60.6409 22.777C60.7299 22.687 60.8684 22.687 60.9574 22.777C61.0464 22.867 61.0464 23.007 60.9574 23.097L46.1321 37.667C46.0926 37.717 46.0332 37.737 45.9739 37.737Z" fill="white"/>
<path d="M85.8706 68.897C85.7915 68.897 85.7025 68.847 85.6728 68.767L77.0981 51.117C77.0387 51.007 77.0882 50.867 77.197 50.817C77.3057 50.767 77.4442 50.807 77.4937 50.917L85.2376 66.847L81.4002 49.487C81.3706 49.367 81.4497 49.247 81.5684 49.217C81.6871 49.187 81.8057 49.267 81.8354 49.387L86.0882 68.617C86.1178 68.727 86.0486 68.847 85.9398 68.877C85.92 68.897 85.8904 68.897 85.8706 68.897Z" fill="white"/>
<path d="M85.8706 68.897C85.8211 68.897 85.7717 68.877 85.7321 68.847L68.3057 54.427C68.2068 54.347 68.197 54.207 68.2761 54.107C68.3552 54.007 68.4937 53.997 68.5926 54.077L84.3277 67.107L72.8651 52.717C72.786 52.617 72.8057 52.477 72.8948 52.397C72.9937 52.317 73.1321 52.337 73.2112 52.427L86.0387 68.527C86.1079 68.617 86.1079 68.747 86.0189 68.827C85.9794 68.877 85.9299 68.897 85.8706 68.897Z" fill="white"/>
<path d="M85.8706 68.897C85.8508 68.897 85.831 68.897 85.8112 68.887L67.2178 64.077C67.0991 64.047 67.02 63.917 67.0596 63.797C67.0892 63.677 67.2079 63.597 67.3365 63.637L84.0112 67.947L67.3365 59.257C67.2277 59.197 67.1783 59.067 67.2376 58.947C67.297 58.837 67.4354 58.787 67.5442 58.847L85.9794 68.457C86.0783 68.507 86.1277 68.627 86.0882 68.737C86.0486 68.837 85.9596 68.897 85.8706 68.897Z" fill="white"/>
<path d="M66.9508 73.437C66.8519 73.437 66.753 73.367 66.7332 73.267C66.7035 73.147 66.7827 73.017 66.9013 72.997L84.1101 68.867L67.1189 68.507C66.9904 68.507 66.8915 68.397 66.9013 68.277C66.9013 68.147 67.0299 68.037 67.1288 68.057L85.8805 68.457C85.9893 68.457 86.0881 68.547 86.098 68.657C86.1079 68.767 86.0387 68.877 85.9299 68.907L67.0101 73.447C66.9805 73.437 66.9706 73.437 66.9508 73.437Z" fill="white"/>
<path d="M66.7728 78.557C66.6937 78.557 66.6145 78.507 66.575 78.427C66.5156 78.317 66.5651 78.177 66.6739 78.127L85.7717 68.467C85.8805 68.4071 86.0189 68.457 86.0684 68.567C86.1277 68.677 86.0783 68.817 85.9695 68.867L66.8717 78.527C66.842 78.547 66.8123 78.557 66.7728 78.557Z" fill="white"/>
<path d="M74.8035 18.187C74.5662 18.187 72.5387 17.487 46.8838 8.63703C46.775 8.59703 46.7057 8.47703 46.7354 8.35703C46.7651 8.23703 46.8739 8.16704 46.9926 8.19704L74.2695 13.717C74.3882 13.737 74.4673 13.857 74.4475 13.987C74.4277 14.107 74.309 14.197 74.1805 14.167L50.2563 9.32704C57.5453 11.837 74.5761 17.717 74.764 17.777L74.6947 17.987L74.8233 18.177C74.8233 18.187 74.8233 18.187 74.8035 18.187Z" fill="white"/>
<path d="M75.2783 23.167C75.2387 23.167 75.1991 23.157 75.1695 23.137L68.9387 19.567C68.8299 19.507 68.7904 19.367 68.8497 19.257C68.909 19.147 69.0475 19.107 69.1563 19.167L75.3871 22.737C75.4958 22.797 75.5354 22.937 75.4761 23.047C75.4365 23.127 75.3574 23.167 75.2783 23.167Z" fill="white"/>
<path d="M75.9607 28.977C75.9013 28.977 75.8519 28.957 75.8024 28.917L70.9365 24.137C70.8475 24.047 70.8475 23.907 70.9365 23.817C71.0255 23.727 71.164 23.727 71.253 23.817L76.1189 28.597C76.2079 28.687 76.2079 28.827 76.1189 28.917C76.0794 28.957 76.02 28.977 75.9607 28.977Z" fill="white"/>
</svg>
