<svg width="90" height="90" viewBox="0 0 90 90" fill="none" xmlns="http://www.w3.org/2000/svg">
<path d="M46.4366 87.0527C46.3166 87.0527 46.1965 87.0027 46.1165 86.9127C45.9765 86.7727 45.9466 86.5627 46.0366 86.3827L65.0066 49.2127C65.0466 49.1227 65.1166 49.0527 65.2066 49.0127L83.3966 39.8727C83.5266 39.8027 83.6765 39.8127 83.8065 39.8727C83.9366 39.9427 84.0265 40.0627 84.0465 40.2027L88.4466 65.9827C88.4766 66.1827 88.3766 66.3827 88.1966 66.4627L46.6366 86.9827C46.5766 87.0327 46.5066 87.0527 46.4366 87.0527ZM65.7466 49.7727L47.4666 85.5827L87.4966 65.8127L83.2566 40.9727L65.7466 49.7727Z" fill="white"/>
<path d="M26.3466 78.1727C26.2566 78.1727 26.1666 78.1427 26.0866 78.0927L2.19658 61.2727C2.04658 61.1727 1.97657 60.9927 2.00657 60.8127L11.6665 9.07273C11.6965 8.91273 11.8166 8.77274 11.9766 8.72274C12.1366 8.67274 12.3066 8.71274 12.4366 8.83274L45.7866 40.9927C45.9366 41.1327 45.9666 41.3527 45.8766 41.5327L26.7466 77.9227C26.6866 78.0427 26.5766 78.1227 26.4466 78.1527C26.4166 78.1627 26.3766 78.1727 26.3466 78.1727ZM2.95659 60.6927L26.1766 77.0427L44.8966 41.4127L12.3966 10.0727L2.95659 60.6927Z" fill="white"/>
<path d="M65.4066 49.8827C65.3366 49.8827 65.2566 49.8627 65.1866 49.8227L53.1766 43.2227L45.3766 41.7727C45.1266 41.7227 44.9666 41.4927 45.0166 41.2427C45.0666 40.9927 45.3066 40.8227 45.5466 40.8827L53.4166 42.3527C53.4666 42.3627 53.5066 42.3827 53.5566 42.4027L65.6266 49.0427C65.8466 49.1627 65.9266 49.4427 65.8066 49.6627C65.7266 49.8027 65.5666 49.8827 65.4066 49.8827Z" fill="white"/>
<path d="M46.4366 87.0527C46.3266 87.0527 46.2266 87.0127 46.1366 86.9427L35.3266 77.6627L26.3666 78.1727C26.0966 78.2027 25.9066 77.9927 25.8866 77.7427C25.8766 77.4927 26.0666 77.2727 26.3166 77.2627L35.4566 76.7427C35.5566 76.7327 35.6866 76.7727 35.7766 76.8527L46.7266 86.2527C46.9166 86.4127 46.9366 86.7027 46.7766 86.8927C46.6866 87.0027 46.5666 87.0527 46.4366 87.0527Z" fill="white"/>
<path d="M35.4866 77.6527C35.4166 77.6527 35.3466 77.6327 35.2766 77.6027C35.0566 77.4827 34.9666 77.2127 35.0866 76.9927L52.9366 42.5827C52.9866 42.4927 53.0666 42.4127 53.1666 42.3727L70.7566 34.8727C70.9866 34.7727 71.2566 34.8827 71.3566 35.1127C71.4566 35.3427 71.3466 35.6127 71.1166 35.7127L53.6766 43.1527L35.9066 77.4127C35.8066 77.5627 35.6466 77.6527 35.4866 77.6527Z" fill="white"/>
<path d="M83.6066 40.7427C83.5466 40.7427 83.4966 40.7327 83.4366 40.7127L70.7566 35.7127C70.7166 35.6927 70.6866 35.6727 70.6466 35.6527L28.5466 4.07273L20.6366 12.3227C20.5166 12.4527 20.3266 12.5027 20.1566 12.4327L11.9666 9.58273C11.7266 9.50273 11.6066 9.24273 11.6866 9.00273C11.7666 8.76273 12.0266 8.63273 12.2666 8.72273L20.1866 11.4727L28.1766 3.14273C28.3366 2.97273 28.5966 2.95273 28.7766 3.09273L71.1566 34.8727L83.7766 39.8527C84.0066 39.9427 84.1266 40.2127 84.0366 40.4427C83.9566 40.6327 83.7866 40.7427 83.6066 40.7427Z" fill="white"/>
<path d="M53.3366 43.2427C53.2266 43.2427 53.1166 43.2027 53.0266 43.1227L19.9966 12.3327C19.8166 12.1627 19.8066 11.8727 19.9766 11.6927C20.1466 11.5127 20.4366 11.4927 20.6166 11.6727L53.6466 42.4627C53.8266 42.6327 53.8366 42.9227 53.6666 43.1027C53.5766 43.2027 53.4566 43.2427 53.3366 43.2427Z" fill="white"/>
<path d="M30.1366 77.7327C30.0966 77.7327 30.0466 77.7227 30.0066 77.6927C29.9066 77.6227 29.8766 77.4827 29.9466 77.3727L50.5466 46.5427L29.4266 72.3027C29.3466 72.4027 29.2066 72.4127 29.1066 72.3327C29.0066 72.2527 28.9966 72.1127 29.0766 72.0127L53.1466 42.6427C53.2266 42.5527 53.3566 42.5327 53.4566 42.6027C53.5566 42.6727 53.5766 42.8127 53.5066 42.9127L30.3166 77.6227C30.2866 77.6927 30.2166 77.7327 30.1366 77.7327Z" fill="white"/>
<path d="M33.3266 77.5427C33.2866 77.5427 33.2466 77.5327 33.2166 77.5127C33.1066 77.4527 33.0666 77.3127 33.1366 77.2027L52.3766 44.0027L36.5566 58.7627C36.4666 58.8527 36.3166 58.8427 36.2366 58.7527C36.1466 58.6627 36.1566 58.5127 36.2466 58.4327L53.1866 42.6327C53.2666 42.5527 53.3966 42.5527 53.4866 42.6227C53.5766 42.6927 53.5966 42.8127 53.5466 42.9127L33.5466 77.4427C33.4866 77.5027 33.4066 77.5427 33.3266 77.5427Z" fill="white"/>
<path d="M41.2966 49.4827C41.2166 49.4827 41.1366 49.4427 41.0966 49.3627C41.0366 49.2527 41.0766 49.1127 41.1866 49.0527L51.8466 43.3327L43.6866 45.0227C43.5566 45.0527 43.4465 44.9727 43.4165 44.8427C43.3866 44.7227 43.4666 44.6027 43.5966 44.5727L53.2966 42.5627C53.4066 42.5427 53.5166 42.6027 53.5566 42.7027C53.5966 42.8127 53.5466 42.9327 53.4466 42.9827L41.4066 49.4427C41.3666 49.4727 41.3366 49.4827 41.2966 49.4827Z" fill="white"/>
<path d="M83.2566 68.6427C83.2066 68.6427 83.1666 68.6327 83.1266 68.6027L62.7965 54.4827C62.6965 54.4127 62.6666 54.2827 62.7266 54.1827C62.7866 54.0827 62.9166 54.0427 63.0166 54.0927L88.0966 65.8727C88.2066 65.9227 88.2566 66.0627 88.2066 66.1727C88.1566 66.2827 88.0166 66.3327 87.9066 66.2827L65.2766 55.6527L83.3866 68.2327C83.4866 68.3027 83.5166 68.4427 83.4466 68.5527C83.3966 68.6127 83.3266 68.6427 83.2566 68.6427Z" fill="white"/>
<path d="M74.0266 73.2027C73.9466 73.2027 73.8766 73.1627 73.8266 73.0927L62.7166 54.4227C62.6566 54.3227 62.6766 54.1927 62.7766 54.1227C62.8666 54.0527 62.9966 54.0627 63.0766 54.1427L78.8866 70.2727C78.9766 70.3627 78.9766 70.5027 78.8866 70.5927C78.7966 70.6827 78.6566 70.6827 78.5666 70.5927L64.0866 55.8127L74.2266 72.8527C74.2866 72.9627 74.2566 73.1027 74.1466 73.1627C74.1066 73.1927 74.0666 73.2027 74.0266 73.2027Z" fill="white"/>
<path d="M65.7965 77.2627C65.6865 77.2627 65.5866 77.1827 65.5666 77.0627L62.6866 54.3227C62.6766 54.2027 62.7465 54.1027 62.8565 54.0727C62.9765 54.0427 63.0866 54.1127 63.1266 54.2227L70.0465 74.9627C70.0865 75.0827 70.0266 75.2127 69.9066 75.2527C69.7866 75.2927 69.6565 75.2227 69.6165 75.1127L63.4265 56.5627L66.0166 77.0127C66.0366 77.1327 65.9466 77.2527 65.8166 77.2627C65.8166 77.2627 65.8065 77.2627 65.7965 77.2627Z" fill="white"/>
<path d="M57.8666 81.1827C57.8566 81.1827 57.8366 81.1827 57.8266 81.1827C57.7066 81.1627 57.6166 81.0427 57.6466 80.9127L62.7066 54.2527C62.7266 54.1327 62.8166 54.0527 62.9566 54.0727C63.0766 54.0827 63.1666 54.1827 63.1566 54.3027L62.5266 78.7727C62.5266 78.9027 62.3966 79.0127 62.2966 78.9927C62.1666 78.9927 62.0766 78.8827 62.0766 78.7627L62.6366 57.1027L58.0966 81.0027C58.0666 81.1027 57.9766 81.1827 57.8666 81.1827Z" fill="white"/>
<path d="M49.6866 85.2227C49.6566 85.2227 49.6266 85.2127 49.5966 85.2027C49.4766 85.1527 49.4266 85.0227 49.4766 84.9027L62.7166 54.2127C62.7666 54.1027 62.8866 54.0427 63.0066 54.0927C63.1166 54.1327 63.1766 54.2627 63.1466 54.3727L53.7466 83.1727C53.7066 83.2927 53.5766 83.3527 53.4566 83.3227C53.3366 83.2827 53.2766 83.1527 53.3066 83.0327L61.1666 58.9527L49.8966 85.0927C49.8566 85.1627 49.7766 85.2227 49.6866 85.2227Z" fill="white"/>
<path d="M85.6765 65.2127C85.5965 65.2127 85.5166 65.1727 85.4766 65.0927L74.8065 44.7227C74.7466 44.6127 74.7866 44.4727 74.9066 44.4127C75.0166 44.3527 75.1566 44.3927 75.2166 44.5127L84.8266 62.8527L78.8966 42.6227C78.8566 42.5027 78.9265 42.3727 79.0465 42.3427C79.1665 42.3127 79.2966 42.3727 79.3266 42.5027L85.8966 64.9327C85.9266 65.0427 85.8666 65.1627 85.7666 65.2027C85.7366 65.2027 85.7065 65.2127 85.6765 65.2127Z" fill="white"/>
<path d="M85.6765 65.2127C85.5565 65.2127 85.4666 65.1227 85.4466 65.0127L82.5465 40.7327C82.5266 40.6027 82.6166 40.4927 82.7466 40.4827C82.8966 40.4827 82.9866 40.5527 82.9966 40.6827L85.7266 63.5527L86.6065 59.2027C86.6265 59.0827 86.7566 58.9927 86.8766 59.0227C86.9966 59.0427 87.0766 59.1627 87.0566 59.2927L85.8966 65.0327C85.8766 65.1327 85.7865 65.2127 85.6765 65.2127Z" fill="white"/>
<path d="M85.6765 65.2127C85.6265 65.2127 85.5666 65.1927 85.5266 65.1527L67.0666 48.6927C66.9766 48.6127 66.9665 48.4627 67.0465 48.3727C67.1265 48.2827 67.2766 48.2727 67.3666 48.3527L83.9865 63.1727L71.1566 46.5927C71.0766 46.4927 71.0966 46.3527 71.1966 46.2727C71.2966 46.1927 71.4366 46.2127 71.5166 46.3127L85.8565 64.8427C85.9265 64.9327 85.9166 65.0727 85.8366 65.1527C85.7866 65.1927 85.7365 65.2127 85.6765 65.2127Z" fill="white"/>
<path d="M85.4066 64.9727C85.3666 64.9727 85.3266 64.9627 85.2866 64.9327L64.2766 51.5927C64.1666 51.5227 64.1366 51.3827 64.2066 51.2827C64.2766 51.1727 64.4166 51.1427 64.5166 51.2127L85.5266 64.5527C85.6366 64.6227 85.6666 64.7627 85.5966 64.8627C85.5566 64.9327 85.4866 64.9727 85.4066 64.9727Z" fill="white"/>
</svg>
