<svg width="90" height="90" viewBox="0 0 90 90" fill="none" xmlns="http://www.w3.org/2000/svg">
<path d="M55.5962 86.5519C55.5662 86.5519 55.5461 86.5519 55.5161 86.5419L30.6861 82.1719C30.5761 82.1519 30.4761 82.0919 30.4061 82.0019L16.9561 64.2919L1.05614 35.6119C0.996143 35.5019 0.986135 35.3819 1.01613 35.2619L6.30614 16.7519C6.33614 16.6419 6.40615 16.5519 6.49615 16.4919L25.8162 4.07189C25.8962 4.02189 25.9862 3.99192 26.0662 4.00192L60.4461 4.69192C60.4861 4.69192 60.5262 4.70191 60.5662 4.71191L81.4961 11.0319C81.6461 11.0719 81.7561 11.1919 81.8061 11.3419L88.0161 33.1919C88.0461 33.3019 88.0361 33.4219 87.9861 33.5219L76.6061 55.8219L62.6761 78.9619L55.9561 86.3919C55.8461 86.5019 55.7262 86.5519 55.5962 86.5519ZM31.0161 81.3119L55.4261 85.6019L61.9261 78.4319L75.7862 55.3919L87.0761 33.2719L80.9861 11.8419L60.3561 5.6119L26.1761 4.9219L7.11614 17.1719L1.92614 35.3419L17.7061 63.8019L31.0161 81.3119Z" fill="white"/>
<path d="M24.2062 31.0219C24.1062 31.0219 24.0062 30.9919 23.9262 30.9219L6.44615 17.2419C6.24615 17.0819 6.21616 16.8019 6.36616 16.6019C6.52616 16.4019 6.80617 16.3719 7.00617 16.5219L24.3262 30.0819L54.3162 25.1019L59.9862 5.03193C60.0562 4.79193 60.3061 4.65193 60.5462 4.72193C60.7862 4.79193 60.9261 5.04193 60.8561 5.28193L55.1162 25.6319C55.0662 25.8019 54.9262 25.9319 54.7562 25.9619L24.2862 31.0219C24.2562 31.0219 24.2262 31.0219 24.2062 31.0219Z" fill="white"/>
<path d="M76.1762 56.0819C76.0362 56.0819 75.8962 56.0119 75.8062 55.8919L54.3062 25.7719C54.1562 25.5719 54.2061 25.2819 54.4161 25.1419C54.6161 24.9919 54.9062 25.0419 55.0462 25.2519L76.5462 55.3719C76.6962 55.5819 76.6462 55.8619 76.4362 56.0019C76.3562 56.0619 76.2662 56.0819 76.1762 56.0819Z" fill="white"/>
<path d="M62.2662 79.1919C62.1862 79.1919 62.1062 79.1719 62.0362 79.1319L38.0062 65.1019C37.9162 65.0519 37.8562 64.9719 37.8162 64.8819L23.7862 30.7319C23.6862 30.5019 23.8062 30.2319 24.0362 30.1419C24.2662 30.0419 24.5362 30.1619 24.6262 30.3919L38.5962 64.3919L62.4962 78.3419C62.7162 78.4719 62.7862 78.7519 62.6562 78.9619C62.5762 79.1119 62.4162 79.1919 62.2662 79.1919Z" fill="white"/>
<path d="M38.2361 65.1719H38.2261L17.2961 64.4819C17.0461 64.4719 16.8461 64.2619 16.8561 64.0119C16.8661 63.7619 17.0661 63.5719 17.3261 63.5719L38.2562 64.2619C38.5062 64.2719 38.7061 64.4819 38.6961 64.7319C38.6761 64.9719 38.4761 65.1719 38.2361 65.1719Z" fill="white"/>
<path d="M65.4261 23.0919H65.4161L31.5561 21.3719C31.4661 21.3719 31.3861 21.3019 31.3561 21.2119L25.8361 4.54191C25.7961 4.42191 25.8661 4.29194 25.9761 4.25194C26.0961 4.21194 26.2261 4.27192 26.2661 4.39192L31.7361 20.9119L65.3661 22.6219L81.2261 11.2819C81.3261 11.2119 81.4661 11.2319 81.5461 11.3319C81.6161 11.4319 81.5961 11.5819 81.4961 11.6519L65.5761 23.0319C65.5161 23.0719 65.4761 23.0919 65.4261 23.0919Z" fill="white"/>
<path d="M11.9062 46.2919C11.8462 46.2919 11.7861 46.2719 11.7462 46.2219L1.28616 35.5519C1.19616 35.4619 1.19616 35.3219 1.28616 35.2319C1.37616 35.1419 1.51614 35.1419 1.60614 35.2319L11.8861 45.7219L31.3861 20.9919C31.4661 20.8919 31.6061 20.8719 31.7061 20.9519C31.8061 21.0319 31.8261 21.1719 31.7461 21.2719L12.0861 46.2019C12.0461 46.2519 11.9861 46.2819 11.9161 46.2919C11.9061 46.2919 11.9062 46.2919 11.9062 46.2919Z" fill="white"/>
<path d="M30.7562 81.9519C30.6662 81.9519 30.5862 81.9019 30.5462 81.8119L24.5662 67.5519L11.7062 46.1819C11.6462 46.0719 11.6762 45.9319 11.7862 45.8719C11.8962 45.8119 12.0362 45.8419 12.0962 45.9519L24.9761 67.3519L30.9662 81.6419C31.0162 81.7619 30.9562 81.8919 30.8462 81.9419C30.8162 81.9519 30.7862 81.9519 30.7562 81.9519Z" fill="white"/>
<path d="M67.6661 60.9119C67.6361 60.9119 67.6161 60.9119 67.5861 60.8919L49.9961 54.1119C49.9361 54.0919 49.8861 54.0419 49.8661 53.9819C49.8461 53.9219 49.8461 53.8519 49.8761 53.8019L65.2261 22.7619C65.2861 22.6519 65.4161 22.6019 65.5261 22.6619C65.6361 22.7219 65.6861 22.8519 65.6262 22.9619L50.3861 53.7819L67.5861 60.4119L87.3762 33.1919C87.4462 33.0919 87.5961 33.0619 87.6961 33.1419C87.7961 33.2119 87.8161 33.3619 87.7461 33.4619L67.8561 60.8219C67.8061 60.8819 67.7361 60.9119 67.6661 60.9119Z" fill="white"/>
<path d="M55.5961 86.3219C55.5661 86.3219 55.5261 86.3119 55.4961 86.3019C55.3861 86.2519 55.3361 86.1119 55.3861 86.0019L67.4561 60.5919C67.5061 60.4819 67.6461 60.4319 67.7561 60.4819C67.8661 60.5319 67.9161 60.6719 67.8661 60.7819L55.7961 86.1919C55.7661 86.2819 55.6761 86.3219 55.5961 86.3219Z" fill="white"/>
<path d="M24.7762 67.7019C24.6962 67.7019 24.6161 67.6619 24.5761 67.5819C24.5161 67.4719 24.5561 67.3319 24.6661 67.2719L49.9562 53.7019C50.0662 53.6419 50.2062 53.6819 50.2662 53.7919C50.3261 53.9019 50.2862 54.0419 50.1762 54.1019L24.8861 67.6719C24.8561 67.6919 24.8162 67.7019 24.7762 67.7019Z" fill="white"/>
</svg>
